<svg width="14" height="14" viewBox="0 0 14 14" fill="none" xmlns="http://www.w3.org/2000/svg">
<path d="M13.1249 12.5606L12.3374 9.99688C13.0683 8.6954 13.2988 7.17182 12.9856 5.71239C12.6723 4.25297 11.8369 2.95816 10.6363 2.07124C9.43575 1.18432 7.9526 0.766341 6.46557 0.895839C4.97854 1.02534 3.58997 1.6934 2.56076 2.77449C1.53156 3.85559 0.932555 5.27532 0.876303 6.76692C0.82005 8.25853 1.31042 9.71933 2.25527 10.8749C3.20013 12.0304 4.53444 12.8012 6.00749 13.0423C7.48055 13.2834 8.99096 12.9784 10.2549 12.1844L12.5256 13.0944C12.5993 13.121 12.6787 13.1273 12.7557 13.1126C12.8326 13.098 12.9043 13.063 12.9631 13.0113C13.0309 12.96 13.0824 12.8901 13.1111 12.8101C13.1399 12.73 13.1447 12.6433 13.1249 12.5606ZM11.4449 10.0625L12.0093 11.9438L10.3687 11.2875C10.3021 11.2617 10.2302 11.2526 10.1593 11.261C10.0884 11.2694 10.0206 11.295 9.96182 11.3356C8.88599 12.0778 7.57364 12.3957 6.27742 12.2282C4.98121 12.0608 3.79278 11.4197 2.94093 10.4284C2.08908 9.43719 1.63403 8.16586 1.66339 6.8592C1.69276 5.55254 2.20446 4.30294 3.09998 3.35096C3.99551 2.39899 5.21154 1.81195 6.51397 1.70286C7.81639 1.59377 9.11314 1.97035 10.1545 2.76009C11.1959 3.54984 11.9084 4.69692 12.1547 5.98048C12.401 7.26405 12.1638 8.59337 11.4887 9.71251C11.4575 9.76461 11.4375 9.82264 11.43 9.8829C11.4225 9.94316 11.4275 10.0043 11.4449 10.0625Z" fill="black"/>
<path d="M7 7.875C7.48326 7.875 7.87501 7.48325 7.87501 7C7.87501 6.51675 7.48326 6.125 7 6.125C6.51675 6.125 6.125 6.51675 6.125 7C6.125 7.48325 6.51675 7.875 7 7.875Z" fill="black"/>
<path d="M10.0625 7.875C10.5457 7.875 10.9375 7.48325 10.9375 7C10.9375 6.51675 10.5457 6.125 10.0625 6.125C9.57925 6.125 9.1875 6.51675 9.1875 7C9.1875 7.48325 9.57925 7.875 10.0625 7.875Z" fill="black"/>
<path d="M3.9375 7.875C4.42075 7.875 4.8125 7.48325 4.8125 7C4.8125 6.51675 4.42075 6.125 3.9375 6.125C3.45425 6.125 3.0625 6.51675 3.0625 7C3.0625 7.48325 3.45425 7.875 3.9375 7.875Z" fill="black"/>
</svg>
