<svg width="14" height="14" viewBox="0 0 14 14" fill="none" xmlns="http://www.w3.org/2000/svg">
<path d="M13.9999 6.99996C13.9999 10.866 10.866 14 7 14C3.13399 14 0 10.866 0 6.99996C0 3.13399 3.13399 0 7 0C10.8659 0 13.9999 3.13399 13.9999 6.99996Z" fill="#434343"/>
<path fill-rule="evenodd" clip-rule="evenodd" d="M6.8363 4.35809L4.779 6.38417L3.58192 5.20521L6.8363 2L10.0918 5.20628L8.89469 6.38523L6.8363 4.35809ZM3.93359 7.21646L2.73651 6.03759L1.53943 7.21653L2.73651 8.39551L3.93359 7.21646ZM6.8363 10.0752L4.779 8.04917L3.58016 9.22657L3.58184 9.22819L6.8363 12.4333L10.0918 9.22713L10.0924 9.22646L8.89461 8.04819L6.8363 10.0752ZM10.9363 8.396L12.1332 7.21702L10.9362 6.03808L9.73908 7.21713L10.9363 8.396ZM8.05053 7.21593H8.05103L6.83632 6.01957L5.62266 7.21826L6.83632 8.41352L8.05103 7.21716L8.05164 7.21653L8.05053 7.21593Z" fill="#F4BB2B"/>
</svg>
