<svg width="32" height="32" viewBox="0 0 32 32" fill="none" xmlns="http://www.w3.org/2000/svg">
<path d="M32 16C32 24.8367 24.8367 32.0002 16.0001 32.0002C7.16344 32.0002 0 24.8367 0 16C0 7.16347 7.16344 3.05176e-05 16.0001 3.05176e-05C24.8366 3.05176e-05 32 7.16347 32 16" fill="#434343"/>
<path fill-rule="evenodd" clip-rule="evenodd" d="M15.6262 9.96142L10.9238 14.5925L8.18756 11.8977L15.6262 4.57147L23.0673 11.9002L20.3311 14.5949L15.6262 9.96142ZM8.99138 16.4949L6.25518 13.8003L3.51898 16.495L6.25518 19.1899L8.99138 16.4949ZM15.6262 23.0293L10.9238 18.3982L8.18354 21.0894L8.18737 21.0931L15.6262 28.4193L23.0673 21.0907L23.0686 21.0892L20.3309 18.396L15.6262 23.0293ZM24.9976 19.191L27.7336 16.4962L24.9974 13.8014L22.2612 16.4964L24.9976 19.191ZM18.4014 16.4937H18.4026L15.6261 13.7591L12.852 16.499L15.6261 19.231L18.4026 16.4965L18.404 16.4951L18.4014 16.4937Z" fill="#F4BB2B"/>
</svg>
