<svg width="128" height="128" viewBox="0 0 128 128" fill="none" xmlns="http://www.w3.org/2000/svg">
<circle cx="64" cy="64" r="64" fill="#F3F3F3"/>
<path d="M39.5 88.8901C39.5 80.4443 45.4406 73.2503 53.5141 71.9193L54.2414 71.7994C60.7062 70.7335 67.2938 70.7335 73.7586 71.7994L74.4859 71.9193C82.5594 73.2503 88.5 80.4443 88.5 88.8901C88.5 92.5407 85.6353 95.5 82.1015 95.5H45.8984C42.3647 95.5 39.5 92.5407 39.5 88.8901Z" stroke="black" stroke-width="3"/>
<path d="M78.2913 46.2812C78.2913 53.8924 71.8927 60.0625 63.9997 60.0625C56.1066 60.0625 49.708 53.8924 49.708 46.2812C49.708 38.6701 56.1066 32.5 63.9997 32.5C71.8927 32.5 78.2913 38.6701 78.2913 46.2812Z" stroke="url(#paint0_linear_16_2000)" stroke-width="3"/>
<defs>
<linearGradient id="paint0_linear_16_2000" x1="63.9997" y1="32.5" x2="63.9997" y2="60.0625" gradientUnits="userSpaceOnUse">
<stop stop-color="#229CF4"/>
<stop offset="1" stop-color="#3798F1"/>
</linearGradient>
</defs>
</svg>
