<svg width="13" height="11" viewBox="0 0 13 11" fill="none" xmlns="http://www.w3.org/2000/svg">
<path d="M11.27 0.968934C10.6468 0.353361 9.80603 0.0082408 8.93002 0.0082408C8.05401 0.0082408 7.21329 0.353361 6.59002 0.968934L6.12002 1.44904L5.65002 0.968934C5.18651 0.505627 4.5959 0.190364 3.95303 0.0630504C3.31016 -0.0642631 2.64395 0.0021657 2.03885 0.253846C1.43374 0.505527 0.916973 0.9312 0.554013 1.47687C0.191053 2.02254 -0.00176294 2.66368 1.21467e-05 3.31903C0.00407526 3.75576 0.0945282 4.18732 0.266156 4.58893C0.437784 4.99054 0.687193 5.35422 1.00001 5.659L5.84002 10.499C5.87982 10.541 5.92736 10.5749 5.98002 10.5989C6.03622 10.6093 6.09383 10.6093 6.15002 10.5989C6.20629 10.6084 6.26375 10.6084 6.32002 10.5989C6.37268 10.5749 6.42022 10.541 6.46002 10.499L11.3 5.659C11.6128 5.35422 11.8622 4.99054 12.0339 4.58893C12.2055 4.18732 12.296 3.75576 12.3 3.31903C12.2912 2.87886 12.1957 2.44468 12.0189 2.04144C11.8422 1.63821 11.5877 1.27374 11.27 0.968934Z" fill="#2E9AF3"/>
</svg>
