<svg width="14" height="12" viewBox="0 0 14 12" fill="none" xmlns="http://www.w3.org/2000/svg">
<path d="M12.1538 1.65563C11.5322 1.03635 10.6906 0.688629 9.81316 0.688629C8.93575 0.688629 8.0941 1.03635 7.47253 1.65563L7.00003 2.12813L6.52753 1.65563C5.90597 1.03635 5.06432 0.688629 4.18691 0.688629C3.3095 0.688629 2.46785 1.03635 1.84628 1.65563C1.22673 2.27794 0.878906 3.12031 0.878906 3.99844C0.878906 4.87657 1.22673 5.71895 1.84628 6.34126L6.68941 11.1844C6.73008 11.2254 6.77847 11.2579 6.83178 11.2801C6.88509 11.3024 6.94228 11.3138 7.00003 11.3138C7.05779 11.3138 7.11497 11.3024 7.16828 11.2801C7.2216 11.2579 7.26999 11.2254 7.31066 11.1844L12.1538 6.34126C12.7733 5.71895 13.1212 4.87657 13.1212 3.99844C13.1212 3.12031 12.7733 2.27794 12.1538 1.65563ZM11.5369 5.72L7.00003 10.2569L2.46316 5.72C2.00711 5.26313 1.75098 4.64397 1.75098 3.99844C1.75098 3.35291 2.00711 2.73375 2.46316 2.27688C2.92078 1.82057 3.54066 1.56432 4.18691 1.56432C4.83316 1.56432 5.45304 1.82057 5.91066 2.27688L6.68941 3.05563C6.73008 3.09663 6.77847 3.12918 6.83178 3.15139C6.88509 3.1736 6.94228 3.18504 7.00003 3.18504C7.05779 3.18504 7.11497 3.1736 7.16828 3.15139C7.2216 3.12918 7.26999 3.09663 7.31066 3.05563L8.08941 2.27688C8.54703 1.82057 9.16691 1.56432 9.81316 1.56432C10.4594 1.56432 11.0793 1.82057 11.5369 2.27688C11.993 2.73375 12.2491 3.35291 12.2491 3.99844C12.2491 4.64397 11.993 5.26313 11.5369 5.72Z" fill="black"/>
</svg>
