<svg width="143" height="21" viewBox="0 0 143 21" fill="none" xmlns="http://www.w3.org/2000/svg">
<path d="M7.64 0.719999C9.44 0.719999 10.9267 1.19333 12.1 2.14C13.2867 3.08667 14.0533 4.36667 14.4 5.98H10.78C10.5133 5.32667 10.1 4.81333 9.54 4.44C8.99333 4.06667 8.34 3.88 7.58 3.88C6.58 3.88 5.77333 4.24667 5.16 4.98C4.54667 5.71333 4.24 6.69333 4.24 7.92C4.24 9.14667 4.54667 10.1267 5.16 10.86C5.77333 11.58 6.58 11.94 7.58 11.94C8.34 11.94 8.99333 11.7533 9.54 11.38C10.1 11.0067 10.5133 10.5 10.78 9.86H14.4C14.0533 11.46 13.2867 12.74 12.1 13.7C10.9267 14.6467 9.44 15.12 7.64 15.12C6.26667 15.12 5.06 14.82 4.02 14.22C2.98 13.6067 2.17333 12.7533 1.6 11.66C1.04 10.5667 0.76 9.32 0.76 7.92C0.76 6.52 1.04 5.27333 1.6 4.18C2.17333 3.08667 2.98 2.24 4.02 1.64C5.06 1.02667 6.26667 0.719999 7.64 0.719999ZM21.5367 3.7C22.6434 3.7 23.6301 3.93333 24.4967 4.4C25.3767 4.85333 26.0634 5.51333 26.5567 6.38C27.0634 7.24667 27.3167 8.26 27.3167 9.42C27.3167 10.58 27.0634 11.5933 26.5567 12.46C26.0634 13.3267 25.3767 13.9933 24.4967 14.46C23.6301 14.9133 22.6434 15.14 21.5367 15.14C20.4301 15.14 19.4367 14.9133 18.5567 14.46C17.6767 13.9933 16.9834 13.3267 16.4767 12.46C15.9834 11.5933 15.7367 10.58 15.7367 9.42C15.7367 8.26 15.9834 7.24667 16.4767 6.38C16.9834 5.51333 17.6767 4.85333 18.5567 4.4C19.4367 3.93333 20.4301 3.7 21.5367 3.7ZM21.5367 6.66C20.8834 6.66 20.3301 6.9 19.8767 7.38C19.4367 7.84667 19.2167 8.52667 19.2167 9.42C19.2167 10.3133 19.4367 10.9933 19.8767 11.46C20.3301 11.9267 20.8834 12.16 21.5367 12.16C22.1901 12.16 22.7367 11.9267 23.1767 11.46C23.6167 10.9933 23.8367 10.3133 23.8367 9.42C23.8367 8.52667 23.6167 7.84667 23.1767 7.38C22.7367 6.9 22.1901 6.66 21.5367 6.66ZM33.1502 3.7C34.5635 3.7 35.6902 4.05333 36.5302 4.76C37.3835 5.46667 37.9168 6.4 38.1302 7.56H34.9302C34.8368 7.10667 34.6235 6.75333 34.2902 6.5C33.9702 6.23333 33.5635 6.1 33.0702 6.1C32.6835 6.1 32.3902 6.18667 32.1902 6.36C31.9902 6.52 31.8902 6.75333 31.8902 7.06C31.8902 7.40667 32.0702 7.66667 32.4302 7.84C32.8035 8.01333 33.3835 8.18667 34.1702 8.36C35.0235 8.56 35.7235 8.76667 36.2702 8.98C36.8168 9.18 37.2902 9.51333 37.6902 9.98C38.0902 10.4467 38.2902 11.0733 38.2902 11.86C38.2902 12.5 38.1168 13.0667 37.7702 13.56C37.4235 14.0533 36.9235 14.44 36.2702 14.72C35.6168 15 34.8435 15.14 33.9502 15.14C32.4435 15.14 31.2368 14.8067 30.3302 14.14C29.4235 13.4733 28.8702 12.52 28.6702 11.28H31.9702C32.0235 11.76 32.2235 12.1267 32.5702 12.38C32.9302 12.6333 33.3902 12.76 33.9502 12.76C34.3368 12.76 34.6302 12.6733 34.8302 12.5C35.0302 12.3133 35.1302 12.0733 35.1302 11.78C35.1302 11.3933 34.9435 11.12 34.5702 10.96C34.2102 10.7867 33.6168 10.6067 32.7902 10.42C31.9635 10.2467 31.2835 10.06 30.7502 9.86C30.2168 9.66 29.7568 9.34 29.3702 8.9C28.9835 8.44667 28.7902 7.83333 28.7902 7.06C28.7902 6.06 29.1702 5.25333 29.9302 4.64C30.6902 4.01333 31.7635 3.7 33.1502 3.7ZM47.1439 3.7C48.0639 3.7 48.8839 3.93333 49.6039 4.4C50.3372 4.85333 50.9106 5.51333 51.3239 6.38C51.7506 7.23333 51.9639 8.24667 51.9639 9.42C51.9639 10.58 51.7506 11.5933 51.3239 12.46C50.9106 13.3267 50.3372 13.9933 49.6039 14.46C48.8839 14.9133 48.0639 15.14 47.1439 15.14C46.2906 15.14 45.5572 14.9467 44.9439 14.56C44.3306 14.1733 43.8839 13.6467 43.6039 12.98V20.32H40.1839V3.84H43.6039V5.86C43.8839 5.19333 44.3306 4.66667 44.9439 4.28C45.5572 3.89333 46.2906 3.7 47.1439 3.7ZM46.0439 6.7C45.3239 6.7 44.7306 6.94667 44.2639 7.44C43.8106 7.92 43.5839 8.58 43.5839 9.42C43.5839 10.2467 43.8106 10.9067 44.2639 11.4C44.7306 11.8933 45.3239 12.14 46.0439 12.14C46.7772 12.14 47.3639 11.9 47.8039 11.42C48.2572 10.94 48.4839 10.2733 48.4839 9.42C48.4839 8.56667 48.2572 7.9 47.8039 7.42C47.3639 6.94 46.7772 6.7 46.0439 6.7ZM57.1586 0.2V15H53.7386V0.2H57.1586ZM63.7598 3.7C64.6132 3.7 65.3465 3.89333 65.9598 4.28C66.5732 4.66667 67.0265 5.19333 67.3198 5.86V3.84H70.7198V15H67.3198V12.98C67.0265 13.6467 66.5732 14.1733 65.9598 14.56C65.3465 14.9467 64.6132 15.14 63.7598 15.14C62.8398 15.14 62.0132 14.9133 61.2798 14.46C60.5598 13.9933 59.9865 13.3267 59.5598 12.46C59.1465 11.5933 58.9398 10.58 58.9398 9.42C58.9398 8.24667 59.1465 7.23333 59.5598 6.38C59.9865 5.51333 60.5598 4.85333 61.2798 4.4C62.0132 3.93333 62.8398 3.7 63.7598 3.7ZM64.8598 6.7C64.1265 6.7 63.5332 6.94 63.0798 7.42C62.6398 7.9 62.4198 8.56667 62.4198 9.42C62.4198 10.2733 62.6398 10.94 63.0798 11.42C63.5332 11.9 64.1265 12.14 64.8598 12.14C65.5798 12.14 66.1665 11.8933 66.6198 11.4C67.0865 10.9067 67.3198 10.2467 67.3198 9.42C67.3198 8.58 67.0865 7.92 66.6198 7.44C66.1665 6.94667 65.5798 6.7 64.8598 6.7ZM75.6545 3.84L78.3345 10.68L80.8345 3.84H84.6145L77.6545 20.32H73.8945L76.5145 14.58L71.8345 3.84H75.6545ZM96.3503 9.12C96.3503 9.4 96.317 9.70667 96.2503 10.04H88.5103C88.5503 10.88 88.7636 11.4867 89.1503 11.86C89.537 12.22 90.0303 12.4 90.6303 12.4C91.137 12.4 91.557 12.2733 91.8903 12.02C92.2236 11.7667 92.4436 11.44 92.5503 11.04H96.1703C96.0236 11.8267 95.7036 12.5333 95.2103 13.16C94.717 13.7733 94.0903 14.26 93.3303 14.62C92.5703 14.9667 91.7236 15.14 90.7903 15.14C89.697 15.14 88.7236 14.9133 87.8703 14.46C87.0303 13.9933 86.3703 13.3267 85.8903 12.46C85.4103 11.5933 85.1703 10.58 85.1703 9.42C85.1703 8.24667 85.4036 7.23333 85.8703 6.38C86.3503 5.51333 87.017 4.85333 87.8703 4.4C88.7236 3.93333 89.697 3.7 90.7903 3.7C91.897 3.7 92.8703 3.92667 93.7103 4.38C94.5503 4.83333 95.197 5.47333 95.6503 6.3C96.117 7.11333 96.3503 8.05333 96.3503 9.12ZM92.8903 8.6C92.9036 7.86667 92.7036 7.32 92.2903 6.96C91.8903 6.58667 91.3903 6.4 90.7903 6.4C90.1636 6.4 89.6436 6.58667 89.2303 6.96C88.817 7.33333 88.5836 7.88 88.5303 8.6H92.8903ZM101.553 5.94C101.98 5.26 102.526 4.72 103.193 4.32C103.873 3.92 104.606 3.72 105.393 3.72V7.38H104.413C103.506 7.38 102.8 7.57333 102.293 7.96C101.8 8.34667 101.553 9 101.553 9.92V15H98.1331V3.84H101.553V5.94Z" fill="url(#paint0_linear_57_544)"/>
<path d="M119.385 15H115.965L110.245 6.32V15H106.825V0.86H110.245L115.965 9.62V0.86H119.385V15ZM130.966 0.86V3.58H125.166V6.68H129.646V9.28H125.166V15H121.746V0.86H130.966ZM142.883 0.86V3.58H139.043V15H135.603V3.58H131.803V0.86H142.883Z" fill="black"/>
<defs>
<linearGradient id="paint0_linear_57_544" x1="72" y1="-7" x2="72" y2="23" gradientUnits="userSpaceOnUse">
<stop stop-color="#229CF4"/>
<stop offset="1" stop-color="#3798F1"/>
</linearGradient>
</defs>
</svg>
