<svg width="401" height="401" viewBox="0 0 401 401" fill="none" xmlns="http://www.w3.org/2000/svg">
<path d="M104.877 371.154L100.23 373.851C173.23 418.12 288.341 412.849 358.489 323.609C425.003 239.049 413.091 113.886 325.382 43.6883C294.046 18.3241 255.634 3.26658 215.408 0.578152C174.345 -2.47488 136.023 6.59508 100.052 27.0415C100.217 27.1503 100.358 27.2444 100.483 27.3273C100.83 27.558 101.045 27.7015 101.267 27.8326C118.309 37.6306 135.313 47.4731 152.281 57.3602C152.694 57.6105 153.159 57.7619 153.641 57.8025C154.122 57.8431 154.606 57.7718 155.056 57.5941C168.038 53.3957 181.537 51.0036 195.172 50.4852C205.37 50.0937 215.582 50.7771 225.638 52.5243C257.327 57.7678 286.453 73.1723 308.622 96.4145C327.992 116.289 341.377 141.215 347.245 168.339C347.345 168.875 347.568 169.381 347.897 169.816C348.226 170.251 348.651 170.603 349.139 170.846C365.899 180.443 382.658 190.071 399.418 199.727C399.669 199.874 399.912 200.043 400.198 200.241L400.2 200.243C400.37 200.361 400.555 200.489 400.766 200.63C400.55 200.773 400.361 200.901 400.19 201.018L400.188 201.019C399.892 201.22 399.645 201.389 399.385 201.544C382.61 211.2 365.825 220.857 349.028 230.514C348.579 230.742 348.19 231.071 347.89 231.475C347.591 231.879 347.389 232.348 347.301 232.843C344.959 243.831 341.339 254.508 336.514 264.655C325.303 288.583 307.913 309.088 286.135 324.055C257.563 343.71 225.961 352.531 191.327 350.518C179.003 349.765 166.827 347.428 155.1 343.565C154.628 343.385 154.12 343.318 153.617 343.368C153.114 343.418 152.63 343.585 152.203 343.855C136.431 352.962 120.656 362.062 104.877 371.154Z" fill="url(#paint0_linear_5024_76160)"/>
<path d="M204.753 100.347C151.276 98.2304 116.018 135.814 106.19 167.091C106.583 167.179 106.981 167.246 107.382 167.291H141.592C141.967 167.307 142.338 167.209 142.656 167.01C142.974 166.811 143.225 166.521 143.375 166.177C146.291 161.262 149.86 156.764 153.984 152.806C170.086 137.586 189.163 131.446 211.038 134.722C226.292 136.92 240.237 144.562 250.296 156.238C263.11 170.746 268.693 187.794 266.888 207.048C266.214 215.43 263.893 223.597 260.057 231.08C256.221 238.564 250.946 245.217 244.534 250.659C228.187 264.877 209.087 270.069 187.837 266.069C168.659 262.448 153.995 251.874 143.62 235.372C143.375 234.893 142.993 234.497 142.523 234.236C142.053 233.974 141.516 233.857 140.979 233.901H107.828C107.546 233.901 107.276 233.926 107.003 233.95C106.724 233.976 106.443 234.001 106.145 234.001C117.979 270.225 158.029 306.294 212.208 300.188C237.491 297.264 260.71 284.819 277.142 265.385C293.574 245.95 301.985 220.986 300.663 195.571C299.503 170.574 289.005 146.922 271.246 129.29C253.487 111.659 229.759 101.331 204.753 100.347Z" fill="url(#paint1_linear_5024_76160)"/>
<path d="M200.431 243.562C194.703 243.559 189.033 242.412 183.753 240.189C178.474 237.966 173.692 234.712 169.686 230.617C165.681 226.522 162.534 221.668 160.429 216.341C158.324 211.014 157.304 205.32 157.429 199.593C157.678 188.234 162.409 177.433 170.589 169.547C178.77 161.661 189.738 157.33 201.1 157.497C206.791 157.584 212.408 158.799 217.626 161.071C222.844 163.344 227.559 166.63 231.497 170.739C235.436 174.847 238.52 179.696 240.571 185.005C242.622 190.314 243.599 195.977 243.445 201.666C243.154 212.879 238.494 223.534 230.459 231.361C222.424 239.187 211.649 243.565 200.431 243.562Z" fill="url(#paint2_linear_5024_76160)"/>
<path d="M0.248981 188.615C0.166401 189.645 0.0838542 190.676 0 191.705L0.0223085 209.343C0.108028 209.778 0.171239 210.217 0.211726 210.658C0.678216 220.665 1.93011 230.62 3.95587 240.431C10.8444 274.249 26.3864 305.703 49.0641 331.721C49.254 331.924 49.4563 332.107 49.6885 332.317C49.8378 332.452 49.9996 332.598 50.1785 332.768V68.3578C50.0063 68.4321 49.8451 68.5296 49.6993 68.6475C49.287 69.0264 48.9304 69.4275 48.585 69.8286C30.824 90.3804 17.4259 114.327 9.20441 140.216C4.80122 154.005 1.9604 168.245 0.735431 182.668C0.5668 184.648 0.407829 186.632 0.248981 188.615Z" fill="url(#paint3_linear_5024_76160)"/>
<defs>
<linearGradient id="paint0_linear_5024_76160" x1="11.7006" y1="121.451" x2="347.145" y2="334.789" gradientUnits="userSpaceOnUse">
<stop stop-color="#E72646"/>
<stop offset="0.611307" stop-color="#E84275"/>
<stop offset="1" stop-color="#F8BF82"/>
</linearGradient>
<linearGradient id="paint1_linear_5024_76160" x1="11.7006" y1="121.451" x2="347.145" y2="334.789" gradientUnits="userSpaceOnUse">
<stop stop-color="#E72646"/>
<stop offset="0.611307" stop-color="#E84275"/>
<stop offset="1" stop-color="#F8BF82"/>
</linearGradient>
<linearGradient id="paint2_linear_5024_76160" x1="11.7006" y1="121.451" x2="347.145" y2="334.789" gradientUnits="userSpaceOnUse">
<stop stop-color="#E72646"/>
<stop offset="0.611307" stop-color="#E84275"/>
<stop offset="1" stop-color="#F8BF82"/>
</linearGradient>
<linearGradient id="paint3_linear_5024_76160" x1="11.7006" y1="121.451" x2="347.145" y2="334.789" gradientUnits="userSpaceOnUse">
<stop stop-color="#E72646"/>
<stop offset="0.611307" stop-color="#E84275"/>
<stop offset="1" stop-color="#F8BF82"/>
</linearGradient>
</defs>
</svg>
