<svg width="14" height="14" viewBox="0 0 14 14" fill="none" xmlns="http://www.w3.org/2000/svg">
<path d="M10.2039 1.75873H11.6227L6.6908 6.69067C6.61111 6.77318 6.56701 6.88369 6.56801 6.9984C6.56901 7.11311 6.61502 7.22285 6.69613 7.30396C6.77725 7.38508 6.88698 7.43109 7.00169 7.43209C7.1164 7.43308 7.22691 7.38898 7.30943 7.30929L12.2414 2.37735V3.79617C12.2414 3.9122 12.2874 4.02348 12.3695 4.10552C12.4515 4.18757 12.5628 4.23367 12.6789 4.23367C12.7949 4.23367 12.9062 4.18757 12.9882 4.10552C13.0703 4.02348 13.1164 3.9122 13.1164 3.79617V1.32123C13.1164 1.2052 13.0703 1.09392 12.9882 1.01187C12.9062 0.929822 12.7949 0.883728 12.6789 0.883728H10.2039C10.0879 0.883728 9.97661 0.929822 9.89456 1.01187C9.81252 1.09392 9.76642 1.2052 9.76642 1.32123C9.76642 1.43726 9.81252 1.54854 9.89456 1.63059C9.97661 1.71263 10.0879 1.75873 10.2039 1.75873Z" fill="black"/>
<path d="M12.6875 6.5625C12.5715 6.5625 12.4602 6.60859 12.3781 6.69064C12.2961 6.77269 12.25 6.88397 12.25 7V10.9375C12.25 11.2856 12.1117 11.6194 11.8656 11.8656C11.6194 12.1117 11.2856 12.25 10.9375 12.25H3.0625C2.7144 12.25 2.38056 12.1117 2.13442 11.8656C1.88828 11.6194 1.75 11.2856 1.75 10.9375V3.0625C1.75 2.7144 1.88828 2.38056 2.13442 2.13442C2.38056 1.88828 2.7144 1.75 3.0625 1.75H7C7.11603 1.75 7.22731 1.70391 7.30936 1.62186C7.39141 1.53981 7.4375 1.42853 7.4375 1.3125C7.4375 1.19647 7.39141 1.08519 7.30936 1.00314C7.22731 0.921094 7.11603 0.875 7 0.875H3.0625C2.48255 0.875695 1.92656 1.10639 1.51647 1.51647C1.10639 1.92656 0.875695 2.48255 0.875 3.0625V10.9375C0.875695 11.5174 1.10639 12.0734 1.51647 12.4835C1.92656 12.8936 2.48255 13.1243 3.0625 13.125H10.9375C11.5174 13.1243 12.0734 12.8936 12.4835 12.4835C12.8936 12.0734 13.1243 11.5174 13.125 10.9375V7C13.125 6.88397 13.0789 6.77269 12.9969 6.69064C12.9148 6.60859 12.8035 6.5625 12.6875 6.5625Z" fill="black"/>
</svg>
