<svg width="20" height="20" viewBox="0 0 20 20" fill="none" xmlns="http://www.w3.org/2000/svg">
<path d="M10 0C4.48601 0 0 4.48601 0 10C0 15.514 4.48601 20 10 20C15.514 20 20 15.514 20 10C20 4.48601 15.5141 0 10 0ZM10 18.9189C7.55017 18.9189 5.32811 17.9259 3.71458 16.3216C3.07024 15.6809 2.52328 14.9425 2.09739 14.131C1.4488 12.8952 1.0811 11.4898 1.0811 10C1.0811 5.0821 5.0821 1.0811 10 1.0811C12.3327 1.0811 14.4586 1.98165 16.0496 3.45288C16.8745 4.2156 17.5556 5.13156 18.0468 6.15535C18.6056 7.32017 18.9189 8.62417 18.9189 10C18.9189 14.9179 14.9179 18.9189 10 18.9189Z" fill="black"/>
<path d="M6.58186 7.72984C7.16295 7.72984 7.63573 8.17559 7.63573 8.78371H8.71682C8.71682 7.56747 7.75911 6.64874 6.58186 6.64874C5.40461 6.64874 4.4469 7.56747 4.4469 8.78371H5.52799C5.52799 8.17559 6.00084 7.72984 6.58186 7.72984Z" fill="black"/>
<path d="M13.4179 7.72984C13.999 7.72984 14.4718 8.17559 14.4718 8.78371H15.5529C15.5529 7.56747 14.5952 6.64874 13.4179 6.64874C12.2407 6.64874 11.283 7.56747 11.283 8.78371H12.3641C12.3641 8.17559 12.8368 7.72984 13.4179 7.72984Z" fill="black"/>
<path d="M9.98085 15.5404C12.0724 15.5404 14.0768 14.4708 15.2244 12.6949L14.3164 12.1082C13.2626 13.7389 11.3343 14.6491 9.40463 14.4263C7.90042 14.2528 6.50939 13.3862 5.6835 12.1082L4.77551 12.6949C5.77485 14.2415 7.45906 15.2902 9.28071 15.5002C9.51456 15.5273 9.74808 15.5404 9.98085 15.5404Z" fill="black"/>
</svg>
