<svg width="20" height="20" viewBox="0 0 20 20" fill="none" xmlns="http://www.w3.org/2000/svg">
<path d="M19.8431 10C19.8431 15.5229 15.5229 20 10 20C8.34961 20 6.79259 19.6002 5.42051 18.8922C3.96808 18.1426 2.8798 16.8516 1.95047 15.52C1.25314 14.5207 0.576784 13.5841 0.281059 12.3641C0.0973725 11.6061 0 10.8144 0 10C0 4.47714 4.47714 0 10 0C14.2841 0.0279608 19.8431 4.47714 19.8431 10Z" fill="url(#paint0_linear_1_745)"/>
<path d="M10 0C9.73591 0 9.47427 0.0104314 9.21532 0.0305098C13.1794 0.338235 16.4948 2.95745 17.816 6.54173C17.8147 6.54427 17.8132 6.54643 17.8118 6.54906C16.7892 8.51337 15.0483 10.7723 12.9103 12.9103C10.7723 15.0482 8.51297 16.7892 6.54913 17.8118C5.81631 18.1931 5.23803 18.4152 4.79199 18.5381C5.64415 19.059 6.58042 19.4555 7.57556 19.7034C9.7214 18.5804 12.1547 16.7098 14.4323 14.4322C15.99 12.8744 17.3571 11.2439 18.4251 9.68227C18.4284 9.7878 18.4307 9.89361 18.4307 9.99996C18.4307 15.2587 14.3714 19.5692 9.21536 19.9695C9.47426 19.9896 9.73591 20 10 20C12.567 20 14.9081 19.0327 16.6788 17.4429C17.3285 16.8594 17.8445 16.1361 18.3236 15.402C18.8672 14.5689 19.347 13.7058 19.6241 12.7255C19.869 11.8591 20 10.9449 20 10C20 7.49114 19.0761 5.19808 17.55 3.44247C16.7479 2.51976 15.6618 1.86314 14.5736 1.28408C13.1746 0.539529 11.6954 0 10 0V0Z" fill="url(#paint1_linear_1_745)"/>
<path d="M6.17258 10.1457L5.51556 9.48868C4.3014 8.27452 2.33289 8.27452 1.11874 9.48868C0.352029 10.2554 0.0339899 11.3677 0.29552 12.4199C0.930932 14.9766 2.55015 17.1444 4.72819 18.4984C5.86042 19.2022 7.32721 19.0388 8.26992 18.0961C8.75827 17.6077 9.4207 17.3333 10.1114 17.3333C10.9674 17.3333 11.6614 16.6394 11.6614 15.7833C11.6614 14.3959 10.5366 13.271 9.14909 13.271H8.53956C7.52846 13.271 6.70878 12.4513 6.70878 11.4403C6.70878 10.9547 6.51592 10.489 6.17258 10.1457Z" fill="url(#paint2_linear_1_745)"/>
<path d="M8.26988 18.0961C8.75827 17.6077 9.4207 17.3333 10.1114 17.3333C10.9674 17.3333 11.6614 16.6394 11.6614 15.7833C11.6614 15.2921 11.5199 14.8341 11.2762 14.447C9.65144 15.8807 8.01768 17.0471 6.54913 17.8118C5.81748 18.1925 5.23995 18.4145 4.79419 18.5374C5.91697 19.195 7.34533 19.0207 8.26988 18.0961Z" fill="url(#paint3_linear_1_745)"/>
<path d="M16.3024 9.13726C18.4025 9.13726 19.7294 6.86847 18.6875 5.04518C16.9651 2.03129 13.72 0 10 0C9.96863 0 9.93733 0.000156863 9.90604 0.000431373C8.76412 0.0110196 7.84314 0.937922 7.84314 2.07992C7.84314 2.63137 8.0622 3.16024 8.45212 3.55016L10.3087 5.40679C10.8154 5.91349 11.637 5.91349 12.1437 5.40679C12.6504 4.90008 13.4719 4.90008 13.9786 5.40679C14.7278 6.15592 15.1486 7.172 15.1486 8.23145C15.1486 8.73169 15.5541 9.13722 16.0544 9.13722H16.3024V9.13726Z" fill="url(#paint4_linear_1_745)"/>
<path d="M9.46045 0.0529412C13.3157 0.447412 16.5222 3.03161 17.816 6.54177C17.8146 6.54431 17.8131 6.54647 17.8118 6.5491C17.3842 7.37043 16.8307 8.24333 16.1754 9.13726H16.3024C18.4025 9.13726 19.7295 6.86847 18.6875 5.04518C16.9652 2.03129 13.72 0 10.0001 0C9.96202 0 9.92417 0.000705882 9.88625 0.00113725C9.7401 0.00384314 9.59774 0.0216863 9.46045 0.0529412Z" fill="url(#paint5_linear_1_745)"/>
<path d="M12.8856 10.4412C13.7301 10.4412 14.4147 9.75655 14.4147 8.91203C14.4147 8.06752 13.7301 7.3829 12.8856 7.3829C12.0411 7.3829 11.3564 8.06752 11.3564 8.91203C11.3564 9.75655 12.0411 10.4412 12.8856 10.4412Z" fill="url(#paint6_linear_1_745)"/>
<path d="M2.94114 7.93138C3.63721 7.93138 4.20149 7.3671 4.20149 6.67103C4.20149 5.97495 3.63721 5.41068 2.94114 5.41068C2.24507 5.41068 1.68079 5.97495 1.68079 6.67103C1.68079 7.3671 2.24507 7.93138 2.94114 7.93138Z" fill="url(#paint7_linear_1_745)"/>
<path d="M19.6239 12.7255H18.5541C17.3832 12.7255 16.2603 13.1906 15.4324 14.0185L14.3634 15.0876C13.9399 15.5111 14.2399 16.2353 14.8389 16.2353C15.2202 16.2353 15.5294 16.5445 15.5294 16.9258C15.5294 17.5214 16.2352 17.8403 16.6784 17.4424C18.0656 16.197 19.1027 14.5696 19.6239 12.7255Z" fill="url(#paint8_linear_1_745)"/>
<path d="M18.5541 12.7255C18.3832 12.7255 18.2135 12.7357 18.0455 12.7552C17.5773 14.392 16.7026 15.8569 15.5374 17.0341C15.6165 17.5585 16.2628 17.8155 16.6783 17.4425C18.0655 16.1971 19.1026 14.5697 19.6239 12.7255H18.5541V12.7255Z" fill="url(#paint9_linear_1_745)"/>
<path d="M19.0482 0.951797C18.3629 0.266424 16.9887 -0.24487 14.2878 0.963757C15.1129 1.35548 15.8758 1.85721 16.5573 2.45027C16.7859 2.40293 16.97 2.38521 17.1145 2.38521C17.236 2.38521 17.3292 2.39764 17.3967 2.41486C17.4646 2.43207 17.5067 2.45407 17.5263 2.47368C17.5885 2.53631 17.677 2.82905 17.5498 3.44266C17.4512 3.91807 17.2231 4.58674 16.7529 5.49019C15.7303 7.4545 13.9894 9.71344 11.8515 11.8514C9.71356 13.9893 7.45411 15.7303 5.49027 16.7529C4.58678 17.2231 3.91815 17.4512 3.44274 17.5497C2.82909 17.6769 2.53638 17.5885 2.47372 17.5263C2.41152 17.4636 2.32305 17.1709 2.45027 16.5573C1.85721 15.8757 1.35548 15.1129 0.963757 14.2878C-0.24487 16.9887 0.266424 18.3623 0.951796 19.0482C1.33776 19.4337 1.94136 19.7647 2.87689 19.7647C3.6034 19.7647 4.53082 19.5647 5.71168 19.0362C5.95799 18.9262 6.21532 18.8019 6.48411 18.6618C8.63783 17.5407 11.0843 15.6624 13.3733 13.3734C15.6624 11.0843 17.5406 8.63788 18.6617 6.48415C18.8014 6.21537 18.9262 5.9585 19.0362 5.71219C19.5647 4.53129 19.7647 3.6034 19.7647 2.87642C19.7647 1.94137 19.4342 1.33776 19.0482 0.951797Z" fill="url(#paint10_linear_1_745)"/>
<defs>
<linearGradient id="paint0_linear_1_745" x1="-0.466902" y1="10" x2="19.6151" y2="10" gradientUnits="userSpaceOnUse">
<stop stop-color="#01D0FB"/>
<stop offset="0.6075" stop-color="#26A6FE"/>
<stop offset="1" stop-color="#0182FC"/>
</linearGradient>
<linearGradient id="paint1_linear_1_745" x1="4.43415" y1="10" x2="19.8253" y2="10" gradientUnits="userSpaceOnUse">
<stop stop-color="#01BFFA"/>
<stop offset="0.2539" stop-color="#1F9EFC"/>
<stop offset="0.5724" stop-color="#407AFD"/>
<stop offset="0.8326" stop-color="#5464FF"/>
<stop offset="1" stop-color="#5B5CFF"/>
</linearGradient>
<linearGradient id="paint2_linear_1_745" x1="-0.0641277" y1="13.7555" x2="11.5298" y2="13.7555" gradientUnits="userSpaceOnUse">
<stop stop-color="#B0E7C9"/>
<stop offset="0.593" stop-color="#46CC8D"/>
<stop offset="1" stop-color="#0AB69F"/>
</linearGradient>
<linearGradient id="paint3_linear_1_745" x1="4.23533" y1="16.6897" x2="11.0458" y2="16.6897" gradientUnits="userSpaceOnUse">
<stop stop-color="#46CC8D"/>
<stop offset="0.5484" stop-color="#0AB69F"/>
<stop offset="1" stop-color="#01998D"/>
</linearGradient>
<linearGradient id="paint4_linear_1_745" x1="7.09804" y1="4.56863" x2="18.6683" y2="4.56863" gradientUnits="userSpaceOnUse">
<stop stop-color="#B0E7C9"/>
<stop offset="0.593" stop-color="#46CC8D"/>
<stop offset="1" stop-color="#0AB69F"/>
</linearGradient>
<linearGradient id="paint5_linear_1_745" x1="8.82288" y1="4.56863" x2="18.7235" y2="4.56863" gradientUnits="userSpaceOnUse">
<stop stop-color="#46CC8D"/>
<stop offset="0.5484" stop-color="#0AB69F"/>
<stop offset="1" stop-color="#01998D"/>
</linearGradient>
<linearGradient id="paint6_linear_1_745" x1="11.8452" y1="8.91203" x2="15.2841" y2="8.91203" gradientUnits="userSpaceOnUse">
<stop stop-color="#46CC8D"/>
<stop offset="0.5484" stop-color="#0AB69F"/>
<stop offset="1" stop-color="#01998D"/>
</linearGradient>
<linearGradient id="paint7_linear_1_745" x1="1.3333" y1="6.67103" x2="4.72879" y2="6.67103" gradientUnits="userSpaceOnUse">
<stop stop-color="#B0E7C9"/>
<stop offset="0.593" stop-color="#46CC8D"/>
<stop offset="1" stop-color="#0AB69F"/>
</linearGradient>
<linearGradient id="paint8_linear_1_745" x1="13.2941" y1="15.1722" x2="18.7128" y2="15.1722" gradientUnits="userSpaceOnUse">
<stop stop-color="#B0E7C9"/>
<stop offset="0.593" stop-color="#46CC8D"/>
<stop offset="1" stop-color="#0AB69F"/>
</linearGradient>
<linearGradient id="paint9_linear_1_745" x1="14.8853" y1="15.1722" x2="18.9418" y2="15.1722" gradientUnits="userSpaceOnUse">
<stop stop-color="#46CC8D"/>
<stop offset="0.5484" stop-color="#0AB69F"/>
<stop offset="1" stop-color="#01998D"/>
</linearGradient>
<linearGradient id="paint10_linear_1_745" x1="-0.235301" y1="10.0001" x2="19.1867" y2="10.0001" gradientUnits="userSpaceOnUse">
<stop stop-color="#FFF9DF"/>
<stop offset="0.593" stop-color="#FFE177"/>
<stop offset="1" stop-color="#FEB137"/>
</linearGradient>
</defs>
</svg>
