<svg width="20" height="20" viewBox="0 0 20 20" fill="none" xmlns="http://www.w3.org/2000/svg">
<path d="M7.91969 9.58897C4.59357 9.58897 2.02463 6.66619 2.45149 3.36756L2.74922 1.0669C2.84306 0.341759 3.54812 -0.139966 4.25769 0.0365826C6.75553 0.658112 8.69894 2.75529 9.04243 5.40984L9.36972 7.93917C9.48294 8.81392 8.80172 9.58897 7.91969 9.58897Z" fill="url(#paint0_linear_1_570)"/>
<path d="M9.36979 7.93915L9.04249 5.40978C8.87198 4.09205 8.30708 2.91182 7.47598 1.98111C5.39614 2.39574 3.62692 3.63064 2.54602 5.32017C3.10594 7.73821 5.27304 9.58891 7.91975 9.58891C8.80175 9.58895 9.48296 8.8139 9.36979 7.93915Z" fill="url(#paint1_linear_1_570)"/>
<path d="M8.17201 9.58898C5.49503 9.58898 3.4275 7.23663 3.77103 4.5818L4.01064 2.73016C4.08617 2.14655 4.65362 1.75882 5.22468 1.90094C7.23503 2.40114 8.79914 4.08906 9.07561 6.22549L9.33902 8.26118C9.43016 8.96518 8.88189 9.58898 8.17201 9.58898Z" fill="url(#paint2_linear_1_570)"/>
<path d="M8.0126 9.58584C8.67817 9.54435 9.21272 9.06035 9.34837 8.43914C9.34958 8.38059 9.34684 8.32122 9.33908 8.26118L9.07562 6.22549C8.85158 4.49416 7.78178 3.05757 6.31429 2.30875C5.40539 2.64326 4.58002 3.14114 3.87668 3.76545L3.77104 4.58181C3.43433 7.18365 5.41358 9.49463 8.0126 9.58584Z" fill="url(#paint3_linear_1_570)"/>
<path d="M12.0843 9.58897C15.4104 9.58897 17.9794 6.66619 17.5525 3.36756L17.2548 1.0669C17.161 0.341759 16.4559 -0.139966 15.7463 0.0365826C13.2485 0.658112 11.3051 2.75529 10.9616 5.40984L10.6343 7.93917C10.5211 8.81392 11.2023 9.58897 12.0843 9.58897Z" fill="url(#paint4_linear_1_570)"/>
<path d="M17.5526 3.36756L17.2548 1.0669C17.161 0.341759 16.456 -0.139966 15.7464 0.0365826C15.6742 0.0545434 15.6024 0.0739159 15.5312 0.0943081C15.9186 0.256308 16.2155 0.614112 16.2741 1.0669L16.5718 3.36756C16.9704 6.44811 14.7562 9.2005 11.7526 9.55101C11.859 9.57564 11.9699 9.58897 12.0844 9.58897C15.4105 9.58897 17.9794 6.66619 17.5526 3.36756Z" fill="url(#paint5_linear_1_570)"/>
<path d="M11.8321 9.58898C14.5091 9.58898 16.5766 7.23663 16.2331 4.5818L15.9935 2.73016C15.9179 2.14655 15.3505 1.75882 14.7794 1.90094C12.7691 2.40114 11.205 4.08906 10.9285 6.22549L10.6651 8.26118C10.5739 8.96518 11.1222 9.58898 11.8321 9.58898Z" fill="url(#paint6_linear_1_570)"/>
<path d="M18.0363 11.0144C17.8544 10.832 17.6621 10.6625 17.4607 10.5064C17.037 10.1778 16.7933 9.66847 16.7933 9.13232C16.7933 5.38158 13.7528 2.34103 10.002 2.34103C6.25128 2.34103 3.21073 5.38158 3.21073 9.13232C3.21073 9.66843 2.96704 10.1778 2.54335 10.5064C2.34198 10.6625 2.14963 10.832 1.96778 11.0144L1.9619 11.0204C0.656136 12.3369 0.524254 14.4338 1.69069 15.8752C2.23955 16.5534 2.96735 17.113 3.81837 17.4956C4.16053 17.6494 4.52218 17.3222 4.34665 17.0187C4.33077 16.9912 4.31586 16.9632 4.30049 16.9354C5.27547 17.9494 6.66277 18.6958 8.26163 19.014C8.749 19.111 9.17583 19.3662 9.45653 19.7252C9.58865 19.8942 9.80316 19.997 10.0343 19.9999C10.2402 20.0025 10.4372 19.9263 10.5752 19.7901C10.8448 19.5243 11.3324 19.0956 11.7425 19.014C13.3413 18.6958 14.7286 17.9494 15.7036 16.9354C15.6882 16.9632 15.6733 16.9912 15.6574 17.0187C15.4819 17.3222 15.8436 17.6494 16.1857 17.4956C17.0127 17.1238 17.7233 16.5849 18.2664 15.9325C19.4728 14.483 19.3676 12.35 18.0363 11.0144Z" fill="url(#paint7_linear_1_570)"/>
<path d="M18.0363 11.0145C17.8544 10.832 17.6621 10.6625 17.4607 10.5064C17.037 10.1779 16.7933 9.66849 16.7933 9.13234C16.7933 5.72265 14.2804 2.90015 11.0056 2.41501C13.4804 3.42905 15.2239 5.8614 15.2239 8.7014C15.2239 9.23751 15.4676 9.74692 15.8913 10.0754C16.0926 10.2316 16.285 10.4011 16.4668 10.5835C17.7982 11.9191 17.9034 14.0521 16.6969 15.5015C16.1538 16.1541 15.4432 16.6929 14.6162 17.0646C14.3857 17.1683 14.1463 17.0536 14.0684 16.8749C14.0213 16.7669 13.8876 16.7286 13.7901 16.7948C13.1138 17.2534 11.4239 18.3342 10.173 18.5831C9.77593 18.6621 9.30683 19.066 9.03271 19.333C9.19534 19.4429 9.33887 19.5748 9.45652 19.7253C9.58864 19.8943 9.80315 19.997 10.0343 19.9999C10.2402 20.0026 10.4371 19.9263 10.5752 19.7902C10.8448 19.5243 11.3324 19.0957 11.7424 19.0141C13.3413 18.6959 14.7286 17.9494 15.7036 16.9354C15.6882 16.9632 15.6733 16.9912 15.6574 17.0187C15.4819 17.3222 15.8435 17.6494 16.1857 17.4956C17.0126 17.1239 17.7233 16.585 18.2664 15.9325C19.4728 14.483 19.3677 12.3501 18.0363 11.0145Z" fill="url(#paint8_linear_1_570)"/>
<path d="M18.6902 11.9055C18.3294 11.5647 17.7396 11.1706 16.942 11.1706C15.8577 11.1706 15.1545 9.72469 14.8906 8.1992C14.7565 7.42469 14.0777 6.86273 13.2914 6.86273C12.8945 6.86273 12.5267 7.00626 12.242 7.24704C11.9569 7.48822 11.7545 7.82743 11.6886 8.21841L10.8032 13.4902H9.2008L8.31531 8.21841C8.24943 7.82743 8.04707 7.48822 7.76198 7.24704C7.47727 7.00626 7.10943 6.86273 6.71257 6.86273C5.92629 6.86273 5.24747 7.42469 5.11335 8.1992C4.84943 9.72469 4.14629 11.1706 3.06198 11.1706C2.26433 11.1706 1.67414 11.5651 1.31335 11.9055C1.48081 11.5863 1.69728 11.2874 1.96198 11.0204L1.96786 11.0145C2.14943 10.8321 2.34198 10.6623 2.54316 10.5063C2.96708 10.178 3.09296 9.66861 3.09296 9.13253V9.13214C3.09296 7.25684 3.85296 5.5592 5.08198 4.33018C6.311 3.10116 8.12668 2.22351 10.002 2.22351C13.7526 2.22351 16.911 5.38155 16.911 9.13214V9.13253C16.911 9.66861 17.0369 10.178 17.4608 10.5063C17.662 10.6623 17.8545 10.8321 18.0361 11.0145C18.3039 11.2831 18.5224 11.5843 18.6902 11.9055Z" fill="url(#paint9_linear_1_570)"/>
<path d="M12.4725 16.1727C12.3101 16.1727 12.1784 16.3044 12.1784 16.4669C12.1784 16.975 11.765 17.3884 11.2568 17.3884C10.7487 17.3884 10.3353 16.975 10.3353 16.4669V14.271H9.74704V16.4669C9.74704 16.975 9.33363 17.3884 8.82547 17.3884C8.31732 17.3884 7.90391 16.975 7.90391 16.4669C7.90391 16.3044 7.77226 16.1727 7.60979 16.1727C7.44732 16.1727 7.31567 16.3044 7.31567 16.4669C7.31567 17.2994 7.99297 17.9767 8.82547 17.9767C9.32359 17.9767 9.76602 17.734 10.0412 17.3609C10.3163 17.734 10.7587 17.9767 11.2568 17.9767C12.0893 17.9767 12.7666 17.2994 12.7666 16.4669C12.7666 16.3044 12.635 16.1727 12.4725 16.1727Z" fill="url(#paint10_linear_1_570)"/>
<path d="M10.6659 12.9507H9.33804C8.30204 12.9507 7.65455 14.0721 8.17255 14.9693L8.52631 15.5821C9.18216 16.718 10.8218 16.718 11.4776 15.5821L11.8314 14.9693C12.3494 14.0721 11.7019 12.9507 10.6659 12.9507Z" fill="url(#paint11_linear_1_570)"/>
<path d="M10.6659 12.9507H9.68509C10.721 12.9507 11.3686 14.0721 10.8506 14.9693L10.4968 15.5821C10.2635 15.9863 9.9054 16.2458 9.5116 16.3624C10.2246 16.5735 11.0552 16.3138 11.4776 15.5821L11.8314 14.9693C12.3494 14.0721 11.7019 12.9507 10.6659 12.9507Z" fill="url(#paint12_linear_1_570)"/>
<path d="M6.73317 9.58337C5.96352 9.58337 5.3374 10.2095 5.3374 10.9791C5.3374 11.1954 5.51274 11.3707 5.72897 11.3707C5.94525 11.3707 6.12054 11.1953 6.12054 10.9791C6.12054 10.6413 6.39537 10.3665 6.73317 10.3665C7.07094 10.3665 7.34576 10.6413 7.34576 10.9791C7.34576 11.1954 7.52109 11.3707 7.73733 11.3707C7.95361 11.3707 8.1289 11.1953 8.1289 10.9791C8.1289 10.2095 7.50278 9.58337 6.73317 9.58337Z" fill="url(#paint13_linear_1_570)"/>
<path d="M13.2707 9.58337C12.5011 9.58337 11.875 10.2095 11.875 10.9791C11.875 11.1954 12.0503 11.3707 12.2666 11.3707C12.4828 11.3707 12.6581 11.1953 12.6581 10.9791C12.6581 10.6413 12.933 10.3665 13.2707 10.3665C13.6085 10.3665 13.8834 10.6413 13.8834 10.9791C13.8834 11.1954 14.0587 11.3707 14.2749 11.3707C14.4912 11.3707 14.6665 11.1953 14.6665 10.9791C14.6665 10.2095 14.0404 9.58337 13.2707 9.58337Z" fill="url(#paint14_linear_1_570)"/>
<path d="M18.6903 11.9055C18.3295 11.5647 17.7397 11.1706 16.9424 11.1706C16.8071 10.9624 16.6483 10.7655 16.4668 10.5835C16.2852 10.4012 16.0926 10.2318 15.8915 10.0753C15.6797 9.91139 15.5126 9.70197 15.3989 9.46629C15.2848 9.23099 15.224 8.96942 15.224 8.70158C15.224 5.86157 13.366 3.12628 10.355 2.23294C13.9487 2.42314 16.9111 5.5 16.9111 9.13217V9.13256C16.9111 9.25138 16.9173 9.36864 16.9315 9.48276C16.9813 9.88511 17.1307 10.2506 17.4609 10.5063C17.6621 10.6624 17.8546 10.8322 18.0362 11.0145C18.304 11.2832 18.5224 11.5843 18.6903 11.9055Z" fill="url(#paint15_linear_1_570)"/>
<defs>
<linearGradient id="paint0_linear_1_570" x1="2.21843" y1="4.7945" x2="12.5193" y2="4.7945" gradientUnits="userSpaceOnUse">
<stop stop-color="#FD9468"/>
<stop offset="0.5908" stop-color="#FD5426"/>
<stop offset="0.7128" stop-color="#F24C2C"/>
<stop offset="0.9307" stop-color="#D3353E"/>
<stop offset="0.984" stop-color="#CA2E43"/>
</linearGradient>
<linearGradient id="paint1_linear_1_570" x1="-0.541862" y1="5.78507" x2="8.80932" y2="5.78507" gradientUnits="userSpaceOnUse">
<stop stop-color="#FD9468"/>
<stop offset="0.5908" stop-color="#FD5426"/>
<stop offset="0.7128" stop-color="#F24C2C"/>
<stop offset="0.9307" stop-color="#D3353E"/>
<stop offset="0.984" stop-color="#CA2E43"/>
</linearGradient>
<linearGradient id="paint2_linear_1_570" x1="3.77284" y1="5.73024" x2="8.12648" y2="5.73024" gradientUnits="userSpaceOnUse">
<stop stop-color="#F8A5AF"/>
<stop offset="0.5341" stop-color="#F07281"/>
<stop offset="0.765" stop-color="#EE6677"/>
<stop offset="1" stop-color="#EB5569"/>
</linearGradient>
<linearGradient id="paint3_linear_1_570" x1="0.394251" y1="5.9473" x2="9.0817" y2="5.9473" gradientUnits="userSpaceOnUse">
<stop stop-color="#F8A5AF"/>
<stop offset="0.5341" stop-color="#F07281"/>
<stop offset="0.765" stop-color="#EE6677"/>
<stop offset="1" stop-color="#EB5569"/>
</linearGradient>
<linearGradient id="paint4_linear_1_570" x1="9.65263" y1="4.7945" x2="19.6266" y2="4.7945" gradientUnits="userSpaceOnUse">
<stop stop-color="#FD9468"/>
<stop offset="0.5908" stop-color="#FD5426"/>
<stop offset="0.7128" stop-color="#F24C2C"/>
<stop offset="0.9307" stop-color="#D3353E"/>
<stop offset="0.984" stop-color="#CA2E43"/>
</linearGradient>
<linearGradient id="paint5_linear_1_570" x1="5.22256" y1="4.7945" x2="18.046" y2="4.7945" gradientUnits="userSpaceOnUse">
<stop stop-color="#FD9468"/>
<stop offset="0.5908" stop-color="#FD5426"/>
<stop offset="0.7128" stop-color="#F24C2C"/>
<stop offset="0.9307" stop-color="#D3353E"/>
<stop offset="0.984" stop-color="#CA2E43"/>
</linearGradient>
<linearGradient id="paint6_linear_1_570" x1="11.182" y1="5.73024" x2="18.0697" y2="5.73024" gradientUnits="userSpaceOnUse">
<stop stop-color="#F8A5AF"/>
<stop offset="0.5341" stop-color="#F07281"/>
<stop offset="0.765" stop-color="#EE6677"/>
<stop offset="1" stop-color="#EB5569"/>
</linearGradient>
<linearGradient id="paint7_linear_1_570" x1="0.030293" y1="11.1705" x2="20.8306" y2="11.1705" gradientUnits="userSpaceOnUse">
<stop stop-color="#F5F8F9"/>
<stop offset="0.5213" stop-color="#D9E7EC"/>
<stop offset="1" stop-color="#B6C4CF"/>
</linearGradient>
<linearGradient id="paint8_linear_1_570" x1="-0.782306" y1="11.2075" x2="17.4926" y2="11.2075" gradientUnits="userSpaceOnUse">
<stop stop-color="#F5F8F9"/>
<stop offset="0.5213" stop-color="#D9E7EC"/>
<stop offset="1" stop-color="#B6C4CF"/>
</linearGradient>
<linearGradient id="paint9_linear_1_570" x1="0.490296" y1="7.85684" x2="20.3345" y2="7.85684" gradientUnits="userSpaceOnUse">
<stop stop-color="#FD9468"/>
<stop offset="0.5908" stop-color="#FD5426"/>
<stop offset="0.7128" stop-color="#F24C2C"/>
<stop offset="0.9307" stop-color="#D3353E"/>
<stop offset="0.984" stop-color="#CA2E43"/>
</linearGradient>
<linearGradient id="paint10_linear_1_570" x1="-1.64509" y1="16.1238" x2="15.1066" y2="16.1238" gradientUnits="userSpaceOnUse">
<stop stop-color="#F5F8F9"/>
<stop offset="0.5213" stop-color="#D9E7EC"/>
<stop offset="1" stop-color="#B6C4CF"/>
</linearGradient>
<linearGradient id="paint11_linear_1_570" x1="7.78494" y1="14.6924" x2="13.3632" y2="14.6924" gradientUnits="userSpaceOnUse">
<stop stop-color="#918291"/>
<stop offset="0.2667" stop-color="#766A75"/>
<stop offset="0.4488" stop-color="#685E68"/>
<stop offset="0.5104" stop-color="#625962"/>
<stop offset="0.81" stop-color="#4C464C"/>
<stop offset="1" stop-color="#433F43"/>
</linearGradient>
<linearGradient id="paint12_linear_1_570" x1="5.28133" y1="14.692" x2="10.1666" y2="14.692" gradientUnits="userSpaceOnUse">
<stop stop-color="#918291"/>
<stop offset="0.2667" stop-color="#766A75"/>
<stop offset="0.4488" stop-color="#685E68"/>
<stop offset="0.5104" stop-color="#625962"/>
<stop offset="0.81" stop-color="#4C464C"/>
<stop offset="1" stop-color="#433F43"/>
</linearGradient>
<linearGradient id="paint13_linear_1_570" x1="3.93297" y1="10.477" x2="8.3711" y2="10.477" gradientUnits="userSpaceOnUse">
<stop stop-color="#918291"/>
<stop offset="0.2667" stop-color="#766A75"/>
<stop offset="0.4488" stop-color="#685E68"/>
<stop offset="0.5104" stop-color="#625962"/>
<stop offset="0.81" stop-color="#4C464C"/>
<stop offset="1" stop-color="#433F43"/>
</linearGradient>
<linearGradient id="paint14_linear_1_570" x1="10.5193" y1="10.477" x2="14.8214" y2="10.477" gradientUnits="userSpaceOnUse">
<stop stop-color="#918291"/>
<stop offset="0.2667" stop-color="#766A75"/>
<stop offset="0.4488" stop-color="#685E68"/>
<stop offset="0.5104" stop-color="#625962"/>
<stop offset="0.81" stop-color="#4C464C"/>
<stop offset="1" stop-color="#433F43"/>
</linearGradient>
<linearGradient id="paint15_linear_1_570" x1="2.01967" y1="7.06922" x2="17.0372" y2="7.06922" gradientUnits="userSpaceOnUse">
<stop stop-color="#FD9468"/>
<stop offset="0.5908" stop-color="#FD5426"/>
<stop offset="0.7128" stop-color="#F24C2C"/>
<stop offset="0.9307" stop-color="#D3353E"/>
<stop offset="0.984" stop-color="#CA2E43"/>
</linearGradient>
</defs>
</svg>
