<svg width="20" height="20" viewBox="0 0 20 20" fill="none" xmlns="http://www.w3.org/2000/svg">
<path d="M15.2646 20H4.73542C4.33895 20 4.07887 19.5855 4.25142 19.2285L7.56821 12.3669H12.4318L15.7486 19.2285C15.9212 19.5855 15.6611 20 15.2646 20Z" fill="url(#paint0_linear_1_730)"/>
<path d="M15.2647 20H13.6953C14.0918 20 14.3518 19.5855 14.1792 19.2286L12.8675 16.5151C12.2519 15.2416 10.969 14.4228 9.55457 14.4079C8.98535 14.4019 8.41951 14.3842 7.86982 14.3549C7.45884 14.3329 7.09766 14.1333 6.86002 13.8326L7.56825 12.3671H12.4318L15.7487 19.2286C15.9212 19.5855 15.6612 20 15.2647 20Z" fill="url(#paint1_linear_1_730)"/>
<path d="M6.56207 11.8432V11.9961C6.56207 12.7302 7.13682 13.335 7.86992 13.3741C9.25573 13.4479 10.7442 13.4479 12.13 13.3741C12.8631 13.335 13.4379 12.7302 13.4379 11.9961V11.8432C11.2994 12.0438 8.70063 12.0438 6.56207 11.8432Z" fill="url(#paint2_linear_1_730)"/>
<path d="M12.4571 11.9192V11.9961C12.4571 12.7302 11.8823 13.335 11.1493 13.3741C10.6141 13.4026 10.0636 13.42 9.50961 13.4265C10.3901 13.4368 11.2794 13.4194 12.1301 13.3741C12.8632 13.335 13.4379 12.7302 13.4379 11.9961V11.8432C13.1202 11.873 12.7921 11.8983 12.4571 11.9192Z" fill="url(#paint3_linear_1_730)"/>
<path d="M19.5817 8.91465C19.5817 7.00794 0.418274 7.00794 0.418274 8.91465C0.418274 10.8214 4.70815 12.3671 9.99999 12.3671C15.2918 12.3671 19.5817 10.8214 19.5817 8.91465Z" fill="url(#paint4_linear_1_730)"/>
<path d="M19.5817 8.91481C19.5817 8.94892 19.5802 8.98304 19.5776 9.01716C19.5701 9.11128 19.552 9.20461 19.5235 9.29677C18.9963 11.0238 14.9333 12.367 10 12.367C9.74715 12.367 9.49613 12.3634 9.24813 12.3564C11.1012 12.3045 12.8064 12.0628 14.2139 11.6852C14.9316 11.4926 14.7674 10.3843 14.0277 10.4306C9.02707 10.7434 2.23695 10.4384 0.725111 9.51543C0.554248 9.41112 0.43962 9.22579 0.422718 9.01994C0.42264 9.019 0.422562 9.01806 0.422483 9.01712C0.419856 8.983 0.418365 8.94888 0.418365 8.91477C0.418365 8.85359 0.438287 8.79398 0.476601 8.73673C1.00303 7.94889 5.02774 7.53281 9.24817 7.48889C13.9691 7.43948 18.9347 7.85555 19.5235 8.73673C19.5618 8.79402 19.5817 8.85363 19.5817 8.91481Z" fill="url(#paint5_linear_1_730)"/>
<path d="M19.5817 7.37525C19.5817 9.28196 0.418274 9.28196 0.418274 7.37525C0.418274 5.46854 4.70815 3.92285 9.99999 3.92285C15.2918 3.92285 19.5817 5.46854 19.5817 7.37525Z" fill="url(#paint6_linear_1_730)"/>
<path d="M19.5817 7.3751C19.5817 8.37824 14.276 8.85353 9.24812 8.80098C13.7756 8.75392 18.0779 8.27863 18.0779 7.3751C18.0779 6.47529 17.1222 5.65572 15.5567 5.04125C15.2031 4.90247 14.8344 5.18423 14.8382 5.57851C14.8382 5.58184 14.8382 5.58513 14.8382 5.58847C14.8382 6.45243 12.1842 6.95992 9.53012 6.95992C6.87609 6.95992 4.22205 6.23415 4.22205 5.58847C4.22205 5.17749 4.46291 4.79082 4.88601 4.45552C6.16656 4.16337 7.65228 3.97788 9.24812 3.93356C9.49612 3.9265 9.74714 3.92297 10 3.92297C11.3553 3.92297 12.6446 4.02415 13.8131 4.20729C17.2077 4.73823 19.5817 5.95666 19.5817 7.3751Z" fill="url(#paint7_linear_1_730)"/>
<path d="M15.1884 4.39161C15.1884 6.81702 4.81161 6.81702 4.81161 4.39161C4.81161 1.9662 7.13456 0 10 0C12.8655 0 15.1884 1.9662 15.1884 4.39161Z" fill="url(#paint8_linear_1_730)"/>
<path d="M0 8.15843V8.16561C0 8.48255 0.214196 8.75937 0.521098 8.83851C4.40286 9.83952 15.5971 9.83952 19.4789 8.83851C19.7858 8.75937 20 8.48259 20 8.16561V8.15843C20 7.71263 19.5866 7.38408 19.1514 7.48083C15.117 8.37757 4.88298 8.37757 0.848588 7.48083C0.413411 7.38412 0 7.71267 0 8.15843H0Z" fill="url(#paint9_linear_1_730)"/>
<path d="M10 0C9.73326 0 9.47122 0.017098 9.2153 0.0499608C11.7084 0.370118 13.619 2.19196 13.619 4.39161C13.619 5.48161 11.5232 6.08165 9.2153 6.19192C12.0427 6.32706 15.1884 5.72702 15.1884 4.39161C15.1884 1.9662 12.8655 0 10 0Z" fill="url(#paint10_linear_1_730)"/>
<path d="M19.1514 7.48081C19.0079 7.5127 18.8563 7.54344 18.6977 7.57309C18.8889 7.69497 19.0192 7.90823 19.0192 8.15846V8.16564C19.0192 8.48262 18.805 8.7594 18.4981 8.83854C16.6414 9.31733 13.1118 9.56709 9.50961 9.58784C13.4386 9.6105 17.4538 9.36074 19.4789 8.83854C19.7858 8.7594 20 8.48262 20 8.16564V8.15846C20 7.71266 19.5866 7.38411 19.1514 7.48081Z" fill="url(#paint11_linear_1_730)"/>
<defs>
<linearGradient id="paint0_linear_1_730" x1="4.19718" y1="16.1835" x2="17.1722" y2="16.1835" gradientUnits="userSpaceOnUse">
<stop stop-color="#FEF056"/>
<stop offset="0.5213" stop-color="#F4D902"/>
<stop offset="1" stop-color="#FE9738"/>
</linearGradient>
<linearGradient id="paint1_linear_1_730" x1="0.610828" y1="16.1835" x2="15.3767" y2="16.1835" gradientUnits="userSpaceOnUse">
<stop stop-color="#FEF056"/>
<stop offset="0.5213" stop-color="#F4D902"/>
<stop offset="1" stop-color="#FE9738"/>
</linearGradient>
<linearGradient id="paint2_linear_1_730" x1="6.56207" y1="12.6363" x2="13.4513" y2="12.6363" gradientUnits="userSpaceOnUse">
<stop stop-color="#A2E62E"/>
<stop offset="0.5857" stop-color="#81B823"/>
<stop offset="1" stop-color="#037E73"/>
</linearGradient>
<linearGradient id="paint3_linear_1_730" x1="5.88237" y1="12.6363" x2="12.3148" y2="12.6363" gradientUnits="userSpaceOnUse">
<stop stop-color="#A2E62E"/>
<stop offset="0.5857" stop-color="#81B823"/>
<stop offset="1" stop-color="#037E73"/>
</linearGradient>
<linearGradient id="paint4_linear_1_730" x1="0.418313" y1="9.92587" x2="19.5817" y2="9.92587" gradientUnits="userSpaceOnUse">
<stop stop-color="#60B7FF"/>
<stop offset="0.5857" stop-color="#0182FC"/>
<stop offset="1" stop-color="#2740B0"/>
</linearGradient>
<linearGradient id="paint5_linear_1_730" x1="-3.3392" y1="9.92598" x2="16.7838" y2="9.92598" gradientUnits="userSpaceOnUse">
<stop stop-color="#60B7FF"/>
<stop offset="0.5857" stop-color="#0182FC"/>
<stop offset="1" stop-color="#2740B0"/>
</linearGradient>
<linearGradient id="paint6_linear_1_730" x1="0.418313" y1="6.36407" x2="20.9207" y2="6.36407" gradientUnits="userSpaceOnUse">
<stop stop-color="#60B7FF"/>
<stop offset="0.5857" stop-color="#0182FC"/>
<stop offset="1" stop-color="#2740B0"/>
</linearGradient>
<linearGradient id="paint7_linear_1_730" x1="-3.2265" y1="6.36392" x2="18.4639" y2="6.36392" gradientUnits="userSpaceOnUse">
<stop stop-color="#60B7FF"/>
<stop offset="0.5857" stop-color="#0182FC"/>
<stop offset="1" stop-color="#2740B0"/>
</linearGradient>
<linearGradient id="paint8_linear_1_730" x1="4.78432" y1="3.10533" x2="16.7059" y2="3.10533" gradientUnits="userSpaceOnUse">
<stop stop-color="#EAF6FF"/>
<stop offset="0.5213" stop-color="#D8ECFE"/>
<stop offset="1" stop-color="#B3DAFE"/>
</linearGradient>
<linearGradient id="paint9_linear_1_730" x1="1.33333" y1="8.52655" x2="24.8112" y2="8.52655" gradientUnits="userSpaceOnUse">
<stop stop-color="#D8ECFE"/>
<stop offset="0.5667" stop-color="#B3DAFE"/>
<stop offset="0.9955" stop-color="#8AC9FE"/>
</linearGradient>
<linearGradient id="paint10_linear_1_730" x1="1.80391" y1="3.10529" x2="12.3149" y2="3.10529" gradientUnits="userSpaceOnUse">
<stop stop-color="#EAF6FF"/>
<stop offset="0.5213" stop-color="#D8ECFE"/>
<stop offset="1" stop-color="#B3DAFE"/>
</linearGradient>
<linearGradient id="paint11_linear_1_730" x1="5.80393" y1="8.52654" x2="18.2225" y2="8.52654" gradientUnits="userSpaceOnUse">
<stop stop-color="#D8ECFE"/>
<stop offset="0.5667" stop-color="#B3DAFE"/>
<stop offset="0.9955" stop-color="#8AC9FE"/>
</linearGradient>
</defs>
</svg>
