<svg width="20" height="20" viewBox="0 0 20 20" fill="none" xmlns="http://www.w3.org/2000/svg">
<path d="M6.78141 18.6631C8.01945 17.4251 7.88322 15.2856 6.46981 13.9066C5.07667 12.5474 2.94706 12.4572 1.7462 13.7045C1.11636 14.3588 0.859139 15.2528 0.960237 16.1519C0.95961 16.1463 0.95863 16.1406 0.958041 16.135C0.960512 16.9238 1.28486 17.0807 0.715728 17.6498C0.546865 17.8187 0.361296 17.9619 0.163179 18.0798C0.0327473 18.1573 0.0232963 18.346 0.14259 18.4665C0.153571 18.4776 0.16463 18.4886 0.175728 18.4996C2.05851 20.3692 4.94036 20.5036 6.60953 18.8348C6.72134 18.7231 6.66373 18.7809 6.78141 18.6631V18.6631Z" fill="url(#paint0_linear_1_413)"/>
<path d="M6.78141 18.6631C8.01945 17.4251 7.88322 15.2856 6.46981 13.9066C5.07667 12.5474 2.94706 12.4572 1.7462 13.7045C1.11636 14.3588 0.859139 15.2528 0.960237 16.1519C0.95961 16.1463 0.95863 16.1406 0.958041 16.135C0.960512 16.9238 1.28486 17.0807 0.715728 17.6498C0.546865 17.8187 0.361296 17.9619 0.163179 18.0798C0.0327473 18.1573 0.0232963 18.346 0.14259 18.4665C0.153571 18.4776 0.16463 18.4886 0.175728 18.4996C2.05851 20.3692 4.94036 20.5036 6.60953 18.8348C6.72134 18.7231 6.66373 18.7809 6.78141 18.6631V18.6631Z" fill="url(#paint1_linear_1_413)"/>
<path d="M5.61609 17.4978C6.85413 16.2598 7.2486 14.651 6.48633 13.9232C5.73503 13.2058 4.12303 13.6332 2.91135 14.8697C2.27582 15.5183 1.87009 16.2638 1.73797 16.9297C1.7388 16.9255 1.73938 16.9214 1.74025 16.9172C1.55821 17.5215 1.77033 17.5662 1.20119 18.1353C1.03233 18.3042 0.856639 18.4573 0.677228 18.5938C0.621581 18.6362 0.580757 18.6913 0.559777 18.7444C0.536287 18.8039 1.06601 19.2628 1.36691 19.3378C2.49284 19.6186 4.12715 18.9866 5.44425 17.6696C5.55601 17.5578 5.49837 17.6156 5.61609 17.4978Z" fill="url(#paint2_linear_1_413)"/>
<path d="M6.78136 18.663C6.66351 18.7809 6.72128 18.7231 6.60948 18.8349C4.94042 20.5035 2.05853 20.3691 0.175907 18.4997C0.164573 18.4887 0.153632 18.4778 0.142691 18.4664C0.0954754 18.4188 0.0685734 18.3604 0.0612793 18.3026C1.32583 19.0865 3.36626 18.5989 4.86983 17.0953C4.98163 16.9835 4.9241 17.0414 5.04195 16.9236C6.14536 15.8202 6.86991 14.7411 6.03473 13.5396C6.18602 13.6493 6.33147 13.7718 6.46983 13.9067C7.8834 15.2856 8.01936 17.4251 6.78136 18.663V18.663Z" fill="url(#paint3_linear_1_413)"/>
<path d="M6.46981 13.9066C6.33157 13.7717 6.18596 13.6495 6.03483 13.5397C7.02138 14.895 7.00118 16.6939 5.90667 17.7884C5.78894 17.9061 5.84655 17.8484 5.73479 17.9601C4.27698 19.4176 1.89424 19.4995 0.0598458 18.2514C0.0543164 18.3249 0.0813752 18.4047 0.142591 18.4665C0.153571 18.4776 0.16463 18.4886 0.175728 18.4996C2.05851 20.3692 4.94036 20.5036 6.60953 18.8348C6.7213 18.7231 6.66369 18.7809 6.78141 18.6631C8.01949 17.4251 7.88322 15.2856 6.46981 13.9066V13.9066Z" fill="url(#paint4_linear_1_413)"/>
<path d="M19.3241 0.616974C18.5563 -0.150791 17.3308 -0.209223 16.4935 0.482033L8.11284 7.40067C7.28618 8.08314 6.60563 8.92534 6.11198 9.8769L4.77057 12.4626L7.47849 15.1705L10.0641 13.8291C11.0157 13.3354 11.8579 12.6549 12.5404 11.8282L19.459 3.44757C20.1502 2.61027 20.0918 1.38474 19.3241 0.616974V0.616974Z" fill="url(#paint5_linear_1_413)"/>
<path d="M19.3241 0.616977C18.7211 0.0139575 17.8357 -0.151219 17.0778 0.140506C17.3454 0.243408 17.5957 0.402428 17.8103 0.617016C18.5781 1.38478 18.6365 2.61031 17.9452 3.4476L11.0266 11.8282C10.3442 12.6549 9.50197 13.3354 8.55041 13.8291L6.96143 14.6534L7.47852 15.1705L10.0642 13.8291C11.0157 13.3354 11.8579 12.6549 12.5404 11.8282L19.459 3.44757C20.1502 2.61027 20.0918 1.38474 19.3241 0.616977V0.616977Z" fill="url(#paint6_linear_1_413)"/>
<path d="M5.21546 10.7505L4.63899 11.9663C4.48389 12.2935 4.55126 12.6827 4.80722 12.9387L7.00228 15.1338C7.25828 15.3898 7.64757 15.4572 7.97471 15.302L9.19051 14.7256C9.49177 14.5827 9.56067 14.1846 9.3249 13.9488L5.99216 10.6161C5.75644 10.3804 5.35832 10.4493 5.21546 10.7505Z" fill="url(#paint7_linear_1_413)"/>
<path d="M9.32493 13.9489L5.99219 10.6161C5.75643 10.3803 5.35831 10.4492 5.21545 10.7505L5.02161 11.1593L7.81113 13.9489C8.0469 14.1846 7.97799 14.5827 7.67674 14.7256L6.94231 15.0738L7.00227 15.1338C7.25827 15.3898 7.64756 15.4572 7.9747 15.302L9.1905 14.7256C9.4918 14.5827 9.5607 14.1846 9.32493 13.9489V13.9489Z" fill="url(#paint8_linear_1_413)"/>
<path d="M6.707 4.94619C7.91369 4.94619 8.89191 3.96798 8.89191 2.76129C8.89191 1.5546 7.91369 0.576385 6.707 0.576385C5.50031 0.576385 4.52209 1.5546 4.52209 2.76129C4.52209 3.96798 5.50031 4.94619 6.707 4.94619Z" fill="url(#paint9_linear_1_413)"/>
<path d="M2.93414 9.6249C3.83012 9.6249 4.55646 8.89857 4.55646 8.00259C4.55646 7.10661 3.83012 6.38028 2.93414 6.38028C2.03816 6.38028 1.31183 7.10661 1.31183 8.00259C1.31183 8.89857 2.03816 9.6249 2.93414 9.6249Z" fill="url(#paint10_linear_1_413)"/>
<path d="M16.0015 11.7435C14.352 11.7475 12.9767 12.917 12.6546 14.4719C12.5983 14.7437 12.3998 14.965 12.1374 15.0555C11.2791 15.3516 10.663 16.1671 10.6655 17.1266C10.6685 18.3132 11.6393 19.2926 12.8258 19.3056C13.4299 19.3122 13.9781 19.0735 14.3773 18.6831C14.5748 18.49 14.8606 18.4117 15.1276 18.4827C15.4091 18.5575 15.7049 18.5974 16.01 18.5974C17.9026 18.5974 19.4369 17.0631 19.4369 15.1705C19.437 13.2763 17.8957 11.7389 16.0015 11.7435V11.7435Z" fill="url(#paint11_linear_1_413)"/>
<path d="M14.4504 18.5974C14.1453 18.5974 13.8495 18.5575 13.5679 18.4827C13.301 18.4118 13.0152 18.49 12.8177 18.6832C12.6065 18.8897 12.3534 19.0531 12.0727 19.1609C12.3075 19.2515 12.5612 19.3027 12.8259 19.3056C13.4299 19.3122 13.9781 19.0736 14.3774 18.6832C14.4101 18.6512 14.4454 18.6226 14.4826 18.597C14.4718 18.5971 14.4612 18.5974 14.4504 18.5974V18.5974Z" fill="url(#paint12_linear_1_413)"/>
<path d="M16.0015 11.7435C15.7362 11.7442 15.4782 11.7753 15.2303 11.8331C16.7458 12.1866 17.8774 13.5475 17.8773 15.1706C17.8773 16.7949 16.7471 18.1553 15.2302 18.5083C15.4807 18.5666 15.7418 18.5975 16.01 18.5975C17.9027 18.5975 19.4369 17.0632 19.437 15.1706C19.437 13.2763 17.8957 11.7389 16.0015 11.7435Z" fill="url(#paint13_linear_1_413)"/>
<defs>
<linearGradient id="paint0_linear_1_413" x1="1.27667" y1="14.156" x2="6.27319" y2="19.1525" gradientUnits="userSpaceOnUse">
<stop stop-color="#FEE903"/>
<stop offset="0.2305" stop-color="#FEE505"/>
<stop offset="0.4171" stop-color="#FEDB0B"/>
<stop offset="0.5884" stop-color="#FECA15"/>
<stop offset="0.7504" stop-color="#FEB223"/>
<stop offset="0.9046" stop-color="#FE9435"/>
<stop offset="1" stop-color="#FE7D43"/>
</linearGradient>
<linearGradient id="paint1_linear_1_413" x1="1.27667" y1="14.156" x2="6.27319" y2="19.1525" gradientUnits="userSpaceOnUse">
<stop stop-color="#FFE177"/>
<stop offset="0.5725" stop-color="#FEB137"/>
<stop offset="1" stop-color="#FE646F"/>
</linearGradient>
<linearGradient id="paint2_linear_1_413" x1="0.780213" y1="13.6067" x2="5.82757" y2="18.654" gradientUnits="userSpaceOnUse">
<stop stop-color="#FFE177"/>
<stop offset="0.5725" stop-color="#FEB137"/>
<stop offset="1" stop-color="#FE646F"/>
</linearGradient>
<linearGradient id="paint3_linear_1_413" x1="-1.4337" y1="11.4457" x2="6.06996" y2="18.9493" gradientUnits="userSpaceOnUse">
<stop stop-color="#FFE177"/>
<stop offset="0.5725" stop-color="#FEB137"/>
<stop offset="1" stop-color="#FE646F"/>
</linearGradient>
<linearGradient id="paint4_linear_1_413" x1="-0.472055" y1="12.4072" x2="5.29348" y2="18.1728" gradientUnits="userSpaceOnUse">
<stop stop-color="#FFE177"/>
<stop offset="0.5725" stop-color="#FEB137"/>
<stop offset="1" stop-color="#FE646F"/>
</linearGradient>
<linearGradient id="paint5_linear_1_413" x1="4.85237" y1="7.58526" x2="19.0961" y2="7.58526" gradientUnits="userSpaceOnUse">
<stop stop-color="#537983"/>
<stop offset="1" stop-color="#3E5959"/>
</linearGradient>
<linearGradient id="paint6_linear_1_413" x1="1.27805" y1="7.58533" x2="17.5984" y2="7.58533" gradientUnits="userSpaceOnUse">
<stop stop-color="#537983"/>
<stop offset="1" stop-color="#384949"/>
</linearGradient>
<linearGradient id="paint7_linear_1_413" x1="4.56871" y1="12.9297" x2="10.0014" y2="12.9297" gradientUnits="userSpaceOnUse">
<stop stop-color="#F9F3F1"/>
<stop offset="0.5725" stop-color="#EFE2DD"/>
<stop offset="1" stop-color="#CDBFBA"/>
</linearGradient>
<linearGradient id="paint8_linear_1_413" x1="1.53267" y1="12.9297" x2="8.77446" y2="12.9297" gradientUnits="userSpaceOnUse">
<stop stop-color="#F9F3F1"/>
<stop offset="0.5725" stop-color="#EFE2DD"/>
<stop offset="1" stop-color="#CDBFBA"/>
</linearGradient>
<linearGradient id="paint9_linear_1_413" x1="4.86276" y1="2.76129" x2="10.195" y2="2.76129" gradientUnits="userSpaceOnUse">
<stop stop-color="#7ACAA6"/>
<stop offset="0.5725" stop-color="#09A76D"/>
<stop offset="1" stop-color="#026841"/>
</linearGradient>
<linearGradient id="paint10_linear_1_413" x1="1.47246" y1="8.00259" x2="6.61446" y2="8.00259" gradientUnits="userSpaceOnUse">
<stop stop-color="#6BD9E7"/>
<stop offset="0.5725" stop-color="#26A6FE"/>
<stop offset="1" stop-color="#0172FB"/>
</linearGradient>
<linearGradient id="paint11_linear_1_413" x1="9.88986" y1="15.5246" x2="20.6918" y2="15.5246" gradientUnits="userSpaceOnUse">
<stop stop-color="#FDB4BA"/>
<stop offset="0.5725" stop-color="#BD80E1"/>
<stop offset="1" stop-color="#9857BD"/>
</linearGradient>
<linearGradient id="paint12_linear_1_413" x1="6.67494" y1="18.8813" x2="19.1805" y2="18.8813" gradientUnits="userSpaceOnUse">
<stop stop-color="#FDB4BA"/>
<stop offset="0.5725" stop-color="#BD80E1"/>
<stop offset="1" stop-color="#9857BD"/>
</linearGradient>
<linearGradient id="paint13_linear_1_413" x1="6.67495" y1="15.1705" x2="19.1805" y2="15.1705" gradientUnits="userSpaceOnUse">
<stop stop-color="#FDB4BA"/>
<stop offset="0.5725" stop-color="#BD80E1"/>
<stop offset="1" stop-color="#9857BD"/>
</linearGradient>
</defs>
</svg>
