<svg width="20" height="20" viewBox="0 0 20 20" fill="none" xmlns="http://www.w3.org/2000/svg">
<path d="M18.9509 20C20.0495 20 20.4072 18.5238 19.4302 18.0213C17.3119 16.9319 13.8772 16.2236 9.99999 16.2236C6.12278 16.2236 2.68808 16.9319 0.569803 18.0213C-0.407255 18.5238 -0.0495687 20 1.04914 20H18.9509Z" fill="url(#paint0_linear_1_693)"/>
<path d="M6.82078 17.138C6.82078 18.1588 7.06862 19.1447 7.52078 20H1.04902C-0.0494122 20 -0.407059 18.5239 0.569803 18.0212C2.14706 17.2102 4.45333 16.6102 7.12901 16.3568C7.07215 16.4149 7.02195 16.4808 6.97921 16.5521C6.87803 16.7219 6.82078 16.9247 6.82078 17.138Z" fill="url(#paint1_linear_1_693)"/>
<path d="M18.951 20H12.48C12.9317 19.1451 13.1792 18.1596 13.1792 17.1396V17.138C13.1792 16.8353 13.0639 16.5537 12.871 16.3568C15.5466 16.6102 17.8529 17.2102 19.4302 18.0212C20.407 18.5239 20.0494 20 18.951 20Z" fill="url(#paint2_linear_1_693)"/>
<path d="M19.4302 18.0213C18.8914 17.7441 18.2669 17.4918 17.572 17.2694C17.6705 17.3294 17.7674 17.3899 17.8608 17.4518C18.8379 18.0989 18.4802 20 17.3815 20H18.9509C20.0496 20 20.4073 18.5238 19.4302 18.0213Z" fill="url(#paint3_linear_1_693)"/>
<path d="M2.73667 6.13616L0.920196 4.31969C0.580627 3.98012 0 4.22063 0 4.70087V5.47063C0 9.91828 1.76682 14.1838 4.9118 17.3288C5.55922 17.9762 7.52078 20 7.52078 20C7.52078 20 7.52078 16.7906 10 16.7906V8.16769H7.64126C5.80169 8.16769 4.03745 7.43695 2.73667 6.13616Z" fill="url(#paint4_linear_1_693)"/>
<path d="M2.73666 6.13615L2.72544 6.12494C2.51979 6.81388 2.40881 7.54364 2.40881 8.29949V10.4951C2.40881 14.0317 4.82736 17.0034 8.10077 17.8467C8.46202 17.2638 9.04814 16.7906 9.99998 16.7906V8.16768H7.64124C5.80167 8.16768 4.03744 7.43694 2.73666 6.13615Z" fill="url(#paint5_linear_1_693)"/>
<path d="M17.2633 6.13616L19.0798 4.31969C19.4194 3.98012 20 4.22063 20 4.70087V5.47063C20 9.91828 18.2332 14.1838 15.0882 17.3288C14.4408 17.9762 12.4792 20 12.4792 20C12.4792 20 12.4792 16.7906 10 16.7906V8.16769H12.3587C14.1983 8.16769 15.9625 7.43695 17.2633 6.13616Z" fill="url(#paint6_linear_1_693)"/>
<path d="M17.5912 10.4951V8.29949C17.5912 7.54368 17.4802 6.81392 17.2745 6.12494L17.2633 6.13615C15.9625 7.43694 14.1984 8.16768 12.3588 8.16768H10V16.7906C10.9518 16.7906 11.538 17.2638 11.8992 17.8467C15.1726 17.0035 17.5912 14.0317 17.5912 10.4951Z" fill="url(#paint7_linear_1_693)"/>
<path d="M6.40226 15.8865C6.01191 16.7222 6.01191 17.6629 6.40226 18.4986C6.48497 18.6757 6.67842 18.791 6.89289 18.791H6.89355C7.79991 18.791 8.65139 18.4023 9.18367 17.7458L9.40539 17.4723C9.54061 17.3054 9.54053 17.0797 9.4052 16.913L9.1819 16.6379C8.64951 15.9822 7.79861 15.5941 6.89293 15.5941C6.67842 15.5942 6.48497 15.7094 6.40226 15.8865Z" fill="url(#paint8_linear_1_693)"/>
<path d="M13.5978 15.8865C13.5151 15.7094 13.3216 15.5941 13.1071 15.5941C12.2015 15.5941 11.3506 15.9822 10.8182 16.6379L10.5949 16.913C10.4595 17.0797 10.4594 17.3054 10.5947 17.4723L10.8164 17.7457C11.3487 18.4023 12.2002 18.791 13.1065 18.791H13.1072C13.3216 18.791 13.5151 18.6757 13.5978 18.4986C13.9882 17.6629 13.9882 16.7221 13.5978 15.8865Z" fill="url(#paint9_linear_1_693)"/>
<path d="M9.99999 18.511C10.7282 18.511 11.3185 17.9207 11.3185 17.1926C11.3185 16.4644 10.7282 15.8741 9.99999 15.8741C9.27182 15.8741 8.68152 16.4644 8.68152 17.1926C8.68152 17.9207 9.27182 18.511 9.99999 18.511Z" fill="url(#paint10_linear_1_693)"/>
<path d="M9.40543 17.4722L9.18347 17.7459C9.1121 17.8337 9.03524 17.9169 8.95327 17.9945C8.93916 18.0082 8.92504 18.0216 8.91053 18.0345C7.90073 17.8898 6.95485 17.5467 6.11328 17.0463C6.1321 16.651 6.22857 16.2584 6.4023 15.8867C6.44387 15.798 6.51289 15.7247 6.59838 15.6737C6.68387 15.6227 6.78583 15.5941 6.89289 15.5941C7.67798 15.5941 8.4219 15.8859 8.95288 16.3914C9.03445 16.4682 9.11092 16.5506 9.1819 16.638L9.40504 16.9129C9.54033 17.0796 9.54033 17.3055 9.40543 17.4722Z" fill="url(#paint11_linear_1_693)"/>
<path d="M13.8866 17.0463C13.045 17.5467 12.0991 17.8898 11.0893 18.0345C11.0748 18.0216 11.0607 18.0082 11.0466 17.9945C10.9646 17.9169 10.8877 17.8337 10.8164 17.7459L10.5944 17.4722C10.4595 17.3055 10.4595 17.0796 10.5948 16.9129L10.8179 16.638C10.8889 16.5506 10.9654 16.4682 11.047 16.3914C11.2717 16.1773 11.5344 16.0016 11.8227 15.8702C12.2152 15.691 12.654 15.5941 13.107 15.5941C13.3215 15.5941 13.5148 15.7094 13.5976 15.8867C13.7713 16.2584 13.8678 16.651 13.8866 17.0463Z" fill="url(#paint12_linear_1_693)"/>
<path d="M11.3184 17.1926C11.3184 17.4945 11.2172 17.7726 11.0466 17.9945C11.0329 18.0122 11.0192 18.029 11.0047 18.0459C10.676 18.0894 10.3404 18.1118 9.99996 18.1118C9.65956 18.1118 9.32388 18.0894 8.99525 18.0459C8.98074 18.029 8.96701 18.0122 8.95328 17.9945C8.7827 17.7726 8.68152 17.4945 8.68152 17.1926C8.68152 16.891 8.7827 16.6133 8.95289 16.3914C9.19368 16.0769 9.57329 15.8741 9.99996 15.8741C10.4266 15.8741 10.8062 16.0769 11.047 16.3914C11.2172 16.6133 11.3184 16.891 11.3184 17.1926Z" fill="url(#paint13_linear_1_693)"/>
<path d="M4.96754 13.3091L4.07475 12.5142C3.02291 11.5777 2.42126 10.2365 2.42126 8.82813V7.39907C2.42126 7.05397 2.82911 6.87103 3.08683 7.10052L4.96754 8.77499V13.3091Z" fill="url(#paint14_linear_1_693)"/>
<path d="M15.0326 13.3091L15.9254 12.5142C16.9772 11.5777 17.5789 10.2365 17.5789 8.82813V7.39907C17.5789 7.05397 17.171 6.87103 16.9133 7.10052L15.0326 8.77499V13.3091Z" fill="url(#paint15_linear_1_693)"/>
<path d="M10.0001 16.4977C6.57405 16.4977 3.79675 13.7204 3.79675 10.2944V8.5002C3.79675 5.0742 6.57405 2.29691 10.0001 2.29691C13.4261 2.29691 16.2034 5.0742 16.2034 8.5002V10.2944C16.2034 13.7204 13.4261 16.4977 10.0001 16.4977Z" fill="url(#paint16_linear_1_693)"/>
<path d="M10 2.29691C9.73419 2.29691 9.47231 2.31369 9.21533 2.34612C12.2708 2.73181 14.6339 5.34 14.6339 8.5002V10.2944C14.6339 13.4545 12.2708 16.0627 9.21533 16.4484C9.47235 16.4809 9.73423 16.4977 10 16.4977C13.426 16.4977 16.2033 13.7204 16.2033 10.2944V8.5002C16.2033 5.0742 13.426 2.29691 10 2.29691Z" fill="url(#paint17_linear_1_693)"/>
<path d="M7.29209 10.4186C6.58389 10.4186 6.00769 9.8424 6.00769 9.13421C6.00769 8.93523 6.16902 8.7739 6.36801 8.7739C6.56699 8.7739 6.72832 8.93523 6.72832 9.13421C6.72832 9.44503 6.98122 9.69793 7.29205 9.69793C7.60287 9.69793 7.85577 9.44503 7.85577 9.13421C7.85577 8.93523 8.01711 8.7739 8.21609 8.7739C8.41507 8.7739 8.5764 8.93523 8.5764 9.13421C8.57644 9.8424 8.00028 10.4186 7.29209 10.4186Z" fill="url(#paint18_linear_1_693)"/>
<path d="M12.7081 10.4186C11.9999 10.4186 11.4237 9.8424 11.4237 9.13421C11.4237 8.93523 11.585 8.7739 11.784 8.7739C11.983 8.7739 12.1443 8.93523 12.1443 9.13421C12.1443 9.44503 12.3972 9.69793 12.7081 9.69793C13.0189 9.69793 13.2718 9.44503 13.2718 9.13421C13.2718 8.93523 13.4331 8.7739 13.6321 8.7739C13.8311 8.7739 13.9924 8.93523 13.9924 9.13421C13.9925 9.8424 13.4163 10.4186 12.7081 10.4186Z" fill="url(#paint19_linear_1_693)"/>
<path d="M7.62267 4.86427C8.29808 4.86427 8.94487 5.2911 9.54216 5.65255C9.82597 5.82427 10.1741 5.82427 10.4579 5.65255C11.0552 5.2911 11.702 4.86427 12.3774 4.86427C13.8449 4.86427 15.1774 6.77816 16.1602 7.78102C16.1602 7.78102 17.8099 0 10 0C2.19013 0 3.83985 7.78102 3.83985 7.78102C4.8226 6.77816 6.15515 4.86427 7.62267 4.86427Z" fill="url(#paint20_linear_1_693)"/>
<path d="M16.16 7.78094C15.7428 7.35506 15.2624 6.76526 14.7357 6.22722C14.7181 4.27114 13.9428 0.336471 9.21533 0.025098C9.46553 0.00862745 9.7271 0 10 0C17.8098 0 16.16 7.78094 16.16 7.78094Z" fill="url(#paint21_linear_1_693)"/>
<path d="M13.6857 12.3263C13.5676 12.4244 13.4402 12.5177 13.3045 12.6056C13.3045 12.6056 12.8944 12.9928 12.6656 13.0959C12.3985 13.2161 11.807 13.2572 11.807 13.2572C11.2513 13.4081 10.6408 13.4915 10.0001 13.4915C9.35925 13.4915 8.74866 13.4081 8.19282 13.2571C8.19282 13.2571 7.59435 13.2135 7.32447 13.0913C7.09953 12.9895 6.69572 12.6057 6.69572 12.6057C6.56 12.5178 6.43262 12.4245 6.31443 12.3263C6.17219 12.2082 5.9616 12.3459 6.01666 12.5224C6.52517 14.1526 8.11607 15.3422 10.0001 15.3422C11.8841 15.3422 13.475 14.1527 13.9835 12.5224C14.0385 12.3459 13.828 12.2082 13.6857 12.3263Z" fill="url(#paint22_linear_1_693)"/>
<path d="M8.19317 13.258C8.1014 13.4559 7.96882 13.6303 7.80258 13.7648L7.6618 13.8792C7.5758 13.9483 7.46003 13.9483 7.37403 13.8787L7.23231 13.7639C6.89984 13.4939 6.70144 13.0649 6.69568 12.6065C7.12133 12.8822 7.62913 13.1052 8.19317 13.258Z" fill="white"/>
<path d="M13.3044 12.6055C13.2987 13.0643 13.0998 13.4938 12.7668 13.7638L12.626 13.8782C12.5405 13.9474 12.4243 13.9474 12.3383 13.8777L12.197 13.7629C12.0312 13.6284 11.8986 13.4544 11.8069 13.257C12.371 13.1042 12.8788 12.8813 13.3044 12.6055Z" fill="white"/>
<defs>
<linearGradient id="paint0_linear_1_693" x1="0.392509" y1="18.1118" x2="26.5887" y2="18.1118" gradientUnits="userSpaceOnUse">
<stop stop-color="#F8F6F7"/>
<stop offset="0.1788" stop-color="#F8F6F7"/>
<stop offset="1" stop-color="#E7E6F5"/>
</linearGradient>
<linearGradient id="paint1_linear_1_693" x1="0.0784308" y1="18.1784" x2="9.8956" y2="18.1784" gradientUnits="userSpaceOnUse">
<stop stop-color="#814AA0"/>
<stop offset="0.4701" stop-color="#5B3374"/>
<stop offset="1" stop-color="#192A7D"/>
</linearGradient>
<linearGradient id="paint2_linear_1_693" x1="12.6275" y1="18.1784" x2="22.4772" y2="18.1784" gradientUnits="userSpaceOnUse">
<stop stop-color="#814AA0"/>
<stop offset="0.4701" stop-color="#5B3374"/>
<stop offset="1" stop-color="#192A7D"/>
</linearGradient>
<linearGradient id="paint3_linear_1_693" x1="1.16176" y1="18.6347" x2="14.3011" y2="18.6347" gradientUnits="userSpaceOnUse">
<stop stop-color="#814AA0"/>
<stop offset="0.4701" stop-color="#5B3374"/>
<stop offset="1" stop-color="#192A7D"/>
</linearGradient>
<linearGradient id="paint4_linear_1_693" x1="-1.26718" y1="12.0804" x2="13.5302" y2="12.0804" gradientUnits="userSpaceOnUse">
<stop stop-color="#FE646F"/>
<stop offset="0.593" stop-color="#FB2B3A"/>
<stop offset="1" stop-color="#C41926"/>
</linearGradient>
<linearGradient id="paint5_linear_1_693" x1="-4.07844" y1="11.9858" x2="8.00724" y2="11.9858" gradientUnits="userSpaceOnUse">
<stop stop-color="#FE646F"/>
<stop offset="0.593" stop-color="#FB2B3A"/>
<stop offset="1" stop-color="#C41926"/>
</linearGradient>
<linearGradient id="paint6_linear_1_693" x1="9.6909" y1="12.0804" x2="22.5624" y2="12.0804" gradientUnits="userSpaceOnUse">
<stop stop-color="#FE646F"/>
<stop offset="0.593" stop-color="#FB2B3A"/>
<stop offset="1" stop-color="#C41926"/>
</linearGradient>
<linearGradient id="paint7_linear_1_693" x1="1.13725" y1="11.9858" x2="17.3171" y2="11.9858" gradientUnits="userSpaceOnUse">
<stop stop-color="#FE646F"/>
<stop offset="0.593" stop-color="#FB2B3A"/>
<stop offset="1" stop-color="#C41926"/>
</linearGradient>
<linearGradient id="paint8_linear_1_693" x1="6.24712" y1="17.1925" x2="10.368" y2="17.1925" gradientUnits="userSpaceOnUse">
<stop stop-color="#FFF9DF"/>
<stop offset="0.593" stop-color="#FFE177"/>
<stop offset="1" stop-color="#FEB237"/>
</linearGradient>
<linearGradient id="paint9_linear_1_693" x1="10.6131" y1="17.1925" x2="14.536" y2="17.1925" gradientUnits="userSpaceOnUse">
<stop stop-color="#FFF9DF"/>
<stop offset="0.593" stop-color="#FFE177"/>
<stop offset="1" stop-color="#FEB237"/>
</linearGradient>
<linearGradient id="paint10_linear_1_693" x1="8.78834" y1="17.1926" x2="11.987" y2="17.1926" gradientUnits="userSpaceOnUse">
<stop stop-color="#FFF9DF"/>
<stop offset="0.593" stop-color="#FFE177"/>
<stop offset="1" stop-color="#FEB237"/>
</linearGradient>
<linearGradient id="paint11_linear_1_693" x1="6.66661" y1="16.8143" x2="9.49692" y2="16.8143" gradientUnits="userSpaceOnUse">
<stop stop-color="#FFE177"/>
<stop offset="1" stop-color="#FEB237"/>
</linearGradient>
<linearGradient id="paint12_linear_1_693" x1="10.3528" y1="16.8143" x2="16.4939" y2="16.8143" gradientUnits="userSpaceOnUse">
<stop stop-color="#FFE177"/>
<stop offset="1" stop-color="#FEB237"/>
</linearGradient>
<linearGradient id="paint13_linear_1_693" x1="9.01956" y1="16.9929" x2="13.1624" y2="16.9929" gradientUnits="userSpaceOnUse">
<stop stop-color="#FFE177"/>
<stop offset="1" stop-color="#FEB237"/>
</linearGradient>
<linearGradient id="paint14_linear_1_693" x1="2.42126" y1="8.77415" x2="4.96754" y2="8.77415" gradientUnits="userSpaceOnUse">
<stop stop-color="#F8F6F7"/>
<stop offset="0.1788" stop-color="#F8F6F7"/>
<stop offset="1" stop-color="#E7E6F5"/>
</linearGradient>
<linearGradient id="paint15_linear_1_693" x1="15.4289" y1="10.1538" x2="17.4998" y2="10.1538" gradientUnits="userSpaceOnUse">
<stop stop-color="#F8F6F7"/>
<stop offset="0.1788" stop-color="#F8F6F7"/>
<stop offset="1" stop-color="#E7E6F5"/>
</linearGradient>
<linearGradient id="paint16_linear_1_693" x1="3.79675" y1="9.3973" x2="16.2034" y2="9.3973" gradientUnits="userSpaceOnUse">
<stop stop-color="#F8F6F7"/>
<stop offset="0.1788" stop-color="#F8F6F7"/>
<stop offset="1" stop-color="#E7E6F5"/>
</linearGradient>
<linearGradient id="paint17_linear_1_693" x1="9.21533" y1="9.3973" x2="16.2033" y2="9.3973" gradientUnits="userSpaceOnUse">
<stop stop-color="#F8F6F7"/>
<stop offset="1" stop-color="#D1CEEB"/>
</linearGradient>
<linearGradient id="paint18_linear_1_693" x1="4.71533" y1="9.59625" x2="8.79931" y2="9.59625" gradientUnits="userSpaceOnUse">
<stop stop-color="#814AA0"/>
<stop offset="0.4701" stop-color="#5B3374"/>
<stop offset="1" stop-color="#192A7D"/>
</linearGradient>
<linearGradient id="paint19_linear_1_693" x1="10.1762" y1="9.59625" x2="14.135" y2="9.59625" gradientUnits="userSpaceOnUse">
<stop stop-color="#814AA0"/>
<stop offset="0.4701" stop-color="#5B3374"/>
<stop offset="1" stop-color="#192A7D"/>
</linearGradient>
<linearGradient id="paint20_linear_1_693" x1="3.69436" y1="3.89051" x2="19.608" y2="3.89051" gradientUnits="userSpaceOnUse">
<stop stop-color="#814AA0"/>
<stop offset="0.4701" stop-color="#5B3374"/>
<stop offset="1" stop-color="#192A7D"/>
</linearGradient>
<linearGradient id="paint21_linear_1_693" x1="1.92659" y1="3.89047" x2="16.2839" y2="3.89047" gradientUnits="userSpaceOnUse">
<stop stop-color="#814AA0"/>
<stop offset="0.4701" stop-color="#5B3374"/>
<stop offset="1" stop-color="#192A7D"/>
</linearGradient>
<linearGradient id="paint22_linear_1_693" x1="4.27337" y1="13.8122" x2="16.6092" y2="13.8122" gradientUnits="userSpaceOnUse">
<stop stop-color="#FE646F"/>
<stop offset="0.593" stop-color="#FB2B3A"/>
<stop offset="1" stop-color="#C41926"/>
</linearGradient>
</defs>
</svg>
