<svg width="16" height="20" viewBox="0 0 16 20" fill="none" xmlns="http://www.w3.org/2000/svg">
<path d="M3.00386 5.00259C4.38528 5.00259 5.50515 3.88272 5.50515 2.50129C5.50515 1.11987 4.38528 0 3.00386 0C1.62243 0 0.502563 1.11987 0.502563 2.50129C0.502563 3.88272 1.62243 5.00259 3.00386 5.00259Z" fill="url(#paint0_linear_1_592)"/>
<path d="M1.0553 4.0689C1.51377 4.63808 2.21608 5.00255 3.0038 5.00255C4.38521 5.00255 5.50509 3.88267 5.50509 2.50125C5.50509 1.78549 5.20396 1.14043 4.72204 0.684509C3.1282 1.33137 1.82353 2.54184 1.0553 4.0689Z" fill="url(#paint1_linear_1_592)"/>
<path d="M3.00389 3.99749C3.83022 3.99749 4.50009 3.32762 4.50009 2.50129C4.50009 1.67497 3.83022 1.0051 3.00389 1.0051C2.17756 1.0051 1.50769 1.67497 1.50769 2.50129C1.50769 3.32762 2.17756 3.99749 3.00389 3.99749Z" fill="url(#paint2_linear_1_592)"/>
<path d="M1.63721 3.11029C1.8705 3.633 2.39442 3.99751 3.0038 3.99751C3.83011 3.99751 4.5 3.32763 4.5 2.50131C4.5 1.93449 4.18474 1.44131 3.72004 1.18747C2.90301 1.68237 2.19419 2.3379 1.63721 3.11029Z" fill="url(#paint3_linear_1_592)"/>
<path d="M12.9962 5.00259C14.3776 5.00259 15.4974 3.88272 15.4974 2.50129C15.4974 1.11987 14.3776 0 12.9962 0C11.6147 0 10.4949 1.11987 10.4949 2.50129C10.4949 3.88272 11.6147 5.00259 12.9962 5.00259Z" fill="url(#paint4_linear_1_592)"/>
<path d="M12.9962 0C12.8218 0 12.6517 0.0179608 12.4874 0.0519216C13.6248 0.28698 14.4798 1.29424 14.4798 2.50129C14.4798 3.70835 13.6248 4.71561 12.4874 4.95067C12.6517 4.98463 12.8218 5.00259 12.9962 5.00259C14.3776 5.00259 15.4975 3.88271 15.4975 2.50129C15.4975 1.11988 14.3776 0 12.9962 0Z" fill="url(#paint5_linear_1_592)"/>
<path d="M12.9962 3.99749C13.8225 3.99749 14.4924 3.32762 14.4924 2.50129C14.4924 1.67497 13.8225 1.0051 12.9962 1.0051C12.1699 1.0051 11.5 1.67497 11.5 2.50129C11.5 3.32762 12.1699 3.99749 12.9962 3.99749Z" fill="url(#paint6_linear_1_592)"/>
<path d="M8.00003 19.3522C10.6899 19.3522 12.8704 17.7744 12.8704 15.8281C12.8704 13.8818 10.6899 12.304 8.00003 12.304C5.31019 12.304 3.12964 13.8818 3.12964 15.8281C3.12964 17.7744 5.31019 19.3522 8.00003 19.3522Z" fill="url(#paint7_linear_1_592)"/>
<path d="M4.4552 13.4117C5.45865 14.116 6.68092 14.5297 7.99998 14.5297C9.31903 14.5297 10.5413 14.116 11.5448 13.4117C10.6566 12.7299 9.39707 12.304 7.99998 12.304C6.60288 12.304 5.34332 12.7298 4.4552 13.4117Z" fill="url(#paint8_linear_1_592)"/>
<path d="M7.99998 20C10.1252 20 11.848 18.2772 11.848 16.152C11.848 14.0268 10.1252 12.304 7.99998 12.304C5.87479 12.304 4.15198 14.0268 4.15198 16.152C4.15198 18.2772 5.87479 20 7.99998 20Z" fill="url(#paint9_linear_1_592)"/>
<path d="M8 14.5297C9.09126 14.5297 10.1162 14.2464 11.0059 13.7498C10.3008 12.8686 9.21639 12.304 8 12.304C6.78361 12.304 5.69922 12.8686 4.99408 13.7498C5.88381 14.2464 6.90875 14.5297 8 14.5297Z" fill="url(#paint10_linear_1_592)"/>
<path d="M8.00003 18.1763C9.51333 18.1763 10.7401 16.9495 10.7401 15.4362C10.7401 13.9229 9.51333 12.6961 8.00003 12.6961C6.48672 12.6961 5.25995 13.9229 5.25995 15.4362C5.25995 16.9495 6.48672 18.1763 8.00003 18.1763Z" fill="url(#paint11_linear_1_592)"/>
<path d="M8 14.5297C8.83914 14.5297 9.63874 14.3616 10.3682 14.0584C9.89322 13.2439 9.01086 12.6961 8 12.6961C6.98913 12.6961 6.10678 13.2439 5.63184 14.0584C6.36125 14.3616 7.16086 14.5297 8 14.5297Z" fill="url(#paint12_linear_1_592)"/>
<path d="M8 13.5185C11.4118 13.5185 14.1776 10.7527 14.1776 7.34088C14.1776 3.92908 11.4118 1.16327 8 1.16327C4.5882 1.16327 1.82239 3.92908 1.82239 7.34088C1.82239 10.7527 4.5882 13.5185 8 13.5185Z" fill="url(#paint13_linear_1_592)"/>
<path d="M8.00004 1.16327C7.73121 1.16327 7.46643 1.18052 7.20667 1.21382C10.2437 1.60319 12.5909 4.1979 12.5909 7.34088C12.5909 10.4839 10.2438 13.0785 7.20667 13.4679C7.46643 13.5012 7.73121 13.5185 8.00004 13.5185C11.4118 13.5185 14.1776 10.7527 14.1776 7.34088C14.1776 3.92907 11.4118 1.16327 8.00004 1.16327Z" fill="url(#paint14_linear_1_592)"/>
<path d="M8.00002 13.5184C10.1274 13.5184 11.852 11.7938 11.852 9.66642C11.852 7.53902 10.1274 5.81442 8.00002 5.81442C5.87261 5.81442 4.14801 7.53902 4.14801 9.66642C4.14801 11.7938 5.87261 13.5184 8.00002 13.5184Z" fill="url(#paint15_linear_1_592)"/>
<path d="M5.25993 6.15758C4.64679 6.15758 4.14801 5.65879 4.14801 5.04569C4.14801 4.87342 4.28766 4.73373 4.45997 4.73373C4.63224 4.73373 4.77193 4.87338 4.77193 5.04569C4.77193 5.31479 4.99087 5.53369 5.25997 5.53369C5.52907 5.53369 5.74797 5.31475 5.74797 5.04569C5.74797 4.87342 5.88762 4.73373 6.05993 4.73373C6.23224 4.73373 6.37189 4.87338 6.37189 5.04569C6.37185 5.65879 5.87303 6.15758 5.25993 6.15758Z" fill="url(#paint16_linear_1_592)"/>
<path d="M10.7401 6.15758C10.127 6.15758 9.62817 5.65879 9.62817 5.04569C9.62817 4.87342 9.76782 4.73373 9.94009 4.73373C10.1124 4.73373 10.252 4.87338 10.252 5.04569C10.252 5.31479 10.471 5.53369 10.7401 5.53369C11.0092 5.53369 11.2281 5.31475 11.2281 5.04569C11.2281 4.87342 11.3677 4.73373 11.54 4.73373C11.7123 4.73373 11.8519 4.87338 11.8519 5.04569C11.852 5.65879 11.3532 6.15758 10.7401 6.15758Z" fill="url(#paint17_linear_1_592)"/>
<path d="M8.43229 5.65381H7.56778C7.17205 5.65381 6.92468 6.0822 7.12256 6.42494L7.2435 6.63443C7.57974 7.21682 8.42033 7.21682 8.75657 6.63443L8.87751 6.42494C9.07535 6.0822 8.82802 5.65381 8.43229 5.65381Z" fill="url(#paint18_linear_1_592)"/>
<path d="M5.65761 17.2049C5.66231 17.1704 5.66561 17.1355 5.66561 17.0997C5.66561 16.6738 5.32031 16.3284 4.89435 16.3284C4.7349 16.3284 4.58713 16.3772 4.46435 16.4603C4.40188 16.5025 4.32827 16.525 4.2529 16.5264C4.24278 16.5266 4.23255 16.5269 4.22231 16.5271C4.13725 16.5292 4.05502 16.5024 3.98404 16.4556C3.84639 16.3646 3.67812 16.3165 3.49761 16.331C3.16855 16.3575 2.89086 16.5982 2.81196 16.9187C2.78576 17.0252 2.78408 17.1279 2.80027 17.2246C2.81055 17.286 2.79659 17.3485 2.76568 17.4026C2.76533 17.4032 2.76498 17.4038 2.76463 17.4044C2.73176 17.4621 2.67764 17.5052 2.61419 17.5246C2.29819 17.6209 2.06812 17.914 2.06812 18.2615C2.06812 18.6444 2.34749 18.9613 2.71337 19.0215C3.01259 19.636 3.66306 20.0479 4.40365 19.9956C5.27529 19.934 5.97325 19.2173 6.01388 18.3444C6.03388 17.9149 5.89764 17.518 5.65761 17.2049Z" fill="url(#paint19_linear_1_592)"/>
<path d="M4.29217 19.1597C4.79853 19.1597 5.20903 18.7492 5.20903 18.2428C5.20903 17.7365 4.79853 17.326 4.29217 17.326C3.7858 17.326 3.37531 17.7365 3.37531 18.2428C3.37531 18.7492 3.7858 19.1597 4.29217 19.1597Z" fill="url(#paint20_linear_1_592)"/>
<path d="M10.3425 17.2049C10.3378 17.1704 10.3345 17.1355 10.3345 17.0997C10.3345 16.6738 10.6798 16.3284 11.1057 16.3284C11.2652 16.3284 11.4129 16.3772 11.5357 16.4603C11.5982 16.5025 11.6718 16.525 11.7472 16.5264C11.7573 16.5266 11.7675 16.5269 11.7778 16.5271C11.8628 16.5292 11.9451 16.5024 12.016 16.4556C12.1537 16.3646 12.322 16.3165 12.5025 16.331C12.8315 16.3575 13.1092 16.5982 13.1881 16.9187C13.2143 17.0252 13.216 17.1279 13.1998 17.2246C13.1895 17.286 13.2035 17.3485 13.2344 17.4026C13.2347 17.4032 13.2351 17.4038 13.2354 17.4044C13.2683 17.4621 13.3224 17.5052 13.3859 17.5246C13.7019 17.6209 13.932 17.914 13.932 18.2615C13.932 18.6444 13.6526 18.9613 13.2867 19.0215C12.9875 19.636 12.337 20.0479 11.5964 19.9956C10.7248 19.934 10.0268 19.2173 9.98619 18.3444C9.96619 17.9149 10.1024 17.518 10.3425 17.2049Z" fill="url(#paint21_linear_1_592)"/>
<path d="M11.7079 19.1597C12.2143 19.1597 12.6248 18.7492 12.6248 18.2428C12.6248 17.7365 12.2143 17.326 11.7079 17.326C11.2016 17.326 10.7911 17.7365 10.7911 18.2428C10.7911 18.7492 11.2016 19.1597 11.7079 19.1597Z" fill="url(#paint22_linear_1_592)"/>
<path d="M7.30005 13.4548C7.49068 13.4898 7.68617 13.5108 7.8855 13.5166C7.92342 13.5173 7.96122 13.5184 7.99926 13.5185H7.99997C9.87734 13.5185 11.4407 12.1753 11.7824 10.3976C10.8581 12.0175 9.22212 13.1785 7.30005 13.4548Z" fill="url(#paint23_linear_1_592)"/>
<defs>
<linearGradient id="paint0_linear_1_592" x1="0.276681" y1="2.50129" x2="6.08127" y2="2.50129" gradientUnits="userSpaceOnUse">
<stop stop-color="#FECEC8"/>
<stop offset="0.5725" stop-color="#FE73C5"/>
<stop offset="1" stop-color="#F1239A"/>
</linearGradient>
<linearGradient id="paint1_linear_1_592" x1="-1.64878" y1="2.84357" x2="6.39964" y2="2.84357" gradientUnits="userSpaceOnUse">
<stop stop-color="#FECEC8"/>
<stop offset="0.5725" stop-color="#FE73C5"/>
<stop offset="1" stop-color="#F1239A"/>
</linearGradient>
<linearGradient id="paint2_linear_1_592" x1="1.37259" y1="2.50129" x2="4.84468" y2="2.50129" gradientUnits="userSpaceOnUse">
<stop stop-color="#FFF3BE"/>
<stop offset="0.5725" stop-color="#FFD15B"/>
<stop offset="1" stop-color="#ECA026"/>
</linearGradient>
<linearGradient id="paint3_linear_1_592" x1="-0.287308" y1="2.59249" x2="4.75678" y2="2.59249" gradientUnits="userSpaceOnUse">
<stop stop-color="#FFF3BE"/>
<stop offset="0.5725" stop-color="#FFD15B"/>
<stop offset="1" stop-color="#ECA026"/>
</linearGradient>
<linearGradient id="paint4_linear_1_592" x1="10.269" y1="2.50129" x2="16.0736" y2="2.50129" gradientUnits="userSpaceOnUse">
<stop stop-color="#FECEC8"/>
<stop offset="0.5725" stop-color="#FE73C5"/>
<stop offset="1" stop-color="#F1239A"/>
</linearGradient>
<linearGradient id="paint5_linear_1_592" x1="8.11843" y1="2.50129" x2="15.3904" y2="2.50129" gradientUnits="userSpaceOnUse">
<stop stop-color="#FECEC8"/>
<stop offset="0.5725" stop-color="#FE73C5"/>
<stop offset="1" stop-color="#F1239A"/>
</linearGradient>
<linearGradient id="paint6_linear_1_592" x1="11.3649" y1="2.50129" x2="14.837" y2="2.50129" gradientUnits="userSpaceOnUse">
<stop stop-color="#FFF3BE"/>
<stop offset="0.5725" stop-color="#FFD15B"/>
<stop offset="1" stop-color="#ECA026"/>
</linearGradient>
<linearGradient id="paint7_linear_1_592" x1="3.12964" y1="15.8281" x2="12.8704" y2="15.8281" gradientUnits="userSpaceOnUse">
<stop stop-color="#FECEC8"/>
<stop offset="0.5725" stop-color="#FE73C5"/>
<stop offset="1" stop-color="#F1239A"/>
</linearGradient>
<linearGradient id="paint8_linear_1_592" x1="1.82352" y1="13.4169" x2="11.5299" y2="13.4169" gradientUnits="userSpaceOnUse">
<stop stop-color="#FECEC8"/>
<stop offset="0.5725" stop-color="#FE73C5"/>
<stop offset="1" stop-color="#F1239A"/>
</linearGradient>
<linearGradient id="paint9_linear_1_592" x1="4.15198" y1="16.152" x2="13.118" y2="16.152" gradientUnits="userSpaceOnUse">
<stop stop-color="#FECEC8"/>
<stop offset="0.5725" stop-color="#FE73C5"/>
<stop offset="1" stop-color="#F1239A"/>
</linearGradient>
<linearGradient id="paint10_linear_1_592" x1="3.66667" y1="13.4169" x2="11.412" y2="13.4169" gradientUnits="userSpaceOnUse">
<stop stop-color="#FECEC8"/>
<stop offset="0.5725" stop-color="#FE73C5"/>
<stop offset="1" stop-color="#F1239A"/>
</linearGradient>
<linearGradient id="paint11_linear_1_592" x1="5.25995" y1="15.4362" x2="10.7401" y2="15.4362" gradientUnits="userSpaceOnUse">
<stop stop-color="#F8F6F7"/>
<stop offset="0.1788" stop-color="#F8F6F7"/>
<stop offset="1" stop-color="#E7E6F5"/>
</linearGradient>
<linearGradient id="paint12_linear_1_592" x1="2.62744" y1="13.6129" x2="9.57404" y2="13.6129" gradientUnits="userSpaceOnUse">
<stop stop-color="#F8F6F7"/>
<stop offset="1" stop-color="#D1CEEB"/>
</linearGradient>
<linearGradient id="paint13_linear_1_592" x1="1.82243" y1="7.34088" x2="14.1776" y2="7.34088" gradientUnits="userSpaceOnUse">
<stop stop-color="#FECEC8"/>
<stop offset="0.5725" stop-color="#FE73C5"/>
<stop offset="1" stop-color="#F1239A"/>
</linearGradient>
<linearGradient id="paint14_linear_1_592" x1="0.143347" y1="7.34088" x2="12.9825" y2="7.34088" gradientUnits="userSpaceOnUse">
<stop stop-color="#FECEC8"/>
<stop offset="0.5725" stop-color="#FE73C5"/>
<stop offset="1" stop-color="#F1239A"/>
</linearGradient>
<linearGradient id="paint15_linear_1_592" x1="4.14801" y1="9.66642" x2="11.852" y2="9.66642" gradientUnits="userSpaceOnUse">
<stop stop-color="#FFF3BE"/>
<stop offset="0.5725" stop-color="#FFD15B"/>
<stop offset="1" stop-color="#ECA026"/>
</linearGradient>
<linearGradient id="paint16_linear_1_592" x1="4.00244" y1="5.44566" x2="6.38616" y2="5.44566" gradientUnits="userSpaceOnUse">
<stop stop-color="#537983"/>
<stop offset="1" stop-color="#3E5959"/>
</linearGradient>
<linearGradient id="paint17_linear_1_592" x1="9.48264" y1="5.44566" x2="11.8664" y2="5.44566" gradientUnits="userSpaceOnUse">
<stop stop-color="#537983"/>
<stop offset="1" stop-color="#3E5959"/>
</linearGradient>
<linearGradient id="paint18_linear_1_592" x1="7.05287" y1="6.36247" x2="8.94716" y2="6.36247" gradientUnits="userSpaceOnUse">
<stop stop-color="#537983"/>
<stop offset="1" stop-color="#3E5959"/>
</linearGradient>
<linearGradient id="paint19_linear_1_592" x1="2.18682" y1="18.1642" x2="6.4167" y2="18.1642" gradientUnits="userSpaceOnUse">
<stop stop-color="#FECEC8"/>
<stop offset="0.5725" stop-color="#FE73C5"/>
<stop offset="1" stop-color="#F1239A"/>
</linearGradient>
<linearGradient id="paint20_linear_1_592" x1="3.43044" y1="18.2428" x2="5.39526" y2="18.2428" gradientUnits="userSpaceOnUse">
<stop stop-color="#FFF3BE"/>
<stop offset="0.5725" stop-color="#FFD15B"/>
<stop offset="1" stop-color="#ECA026"/>
</linearGradient>
<linearGradient id="paint21_linear_1_592" x1="9.4145" y1="18.1642" x2="14.2858" y2="18.1642" gradientUnits="userSpaceOnUse">
<stop stop-color="#FECEC8"/>
<stop offset="0.5725" stop-color="#FE73C5"/>
<stop offset="1" stop-color="#F1239A"/>
</linearGradient>
<linearGradient id="paint22_linear_1_592" x1="10.8462" y1="18.2428" x2="12.811" y2="18.2428" gradientUnits="userSpaceOnUse">
<stop stop-color="#FFF3BE"/>
<stop offset="0.5725" stop-color="#FFD15B"/>
<stop offset="1" stop-color="#ECA026"/>
</linearGradient>
<linearGradient id="paint23_linear_1_592" x1="3.13727" y1="11.958" x2="11.1978" y2="11.958" gradientUnits="userSpaceOnUse">
<stop stop-color="#FFF3BE"/>
<stop offset="0.5725" stop-color="#FFD15B"/>
<stop offset="1" stop-color="#ECA026"/>
</linearGradient>
</defs>
</svg>
