<svg width="20" height="20" viewBox="0 0 20 20" fill="none" xmlns="http://www.w3.org/2000/svg">
<path d="M10.3872 15.5934C10.4296 15.0985 10.7754 14.6893 11.2541 14.5574C11.7157 14.4302 12.1332 14.1981 12.4745 13.8568C12.8843 13.4471 13.1365 12.9275 13.2389 12.3537C13.2994 12.0145 13.0019 11.7248 12.6615 11.7782C12.1718 11.8549 11.6533 11.7047 11.2759 11.3272C10.7031 10.7544 10.6534 9.8565 11.1267 9.22721C11.1959 9.13521 11.2025 9.00634 11.1324 8.91509C11.0468 8.80372 10.8897 8.78403 10.7813 8.8667C10.1516 9.34705 9.24814 9.29948 8.67265 8.72399C8.29524 8.34658 8.14501 7.82819 8.22175 7.33842C8.27508 6.99799 7.98544 6.70054 7.64622 6.76105C7.07238 6.8634 6.55285 7.11567 6.14308 7.52544C5.80179 7.86673 5.56971 8.28423 5.44254 8.74579C5.31061 9.22458 4.90136 9.57034 4.40654 9.6127C3.32606 9.70517 2.03826 9.88882 1.23944 10.6877C-0.676955 12.6041 -0.280798 16.1073 1.80587 18.194C3.89254 20.2808 7.39583 20.6769 9.31222 18.7605C10.1111 17.9616 10.2948 16.6738 10.3872 15.5934Z" fill="url(#paint0_linear_1_498)"/>
<path d="M8.78759 11.5956L10.1657 10.2174C9.87986 9.93152 9.72457 9.56438 9.69931 9.19085C9.69931 9.19081 9.69931 9.19073 9.69931 9.19069C9.32531 9.16536 8.95849 9.00991 8.67265 8.72403C8.57696 8.62834 8.49602 8.52356 8.42955 8.41254L7.01704 9.82505C6.88783 9.95426 6.88783 10.1645 7.01732 10.2939L8.31896 11.5956C8.44845 11.725 8.65837 11.7248 8.78759 11.5956Z" fill="url(#paint1_linear_1_498)"/>
<path d="M9.31227 18.7604C7.39588 20.6767 3.89251 20.2808 1.80584 18.1941C1.61949 18.0078 1.44647 17.8098 1.28729 17.6029C3.39639 19.2234 6.45749 19.3956 8.20251 17.6506C9.00141 16.8517 9.18498 15.5639 9.27761 14.4836C9.31976 13.9889 9.6658 13.5796 10.1444 13.4476C10.6061 13.3203 11.0234 13.0882 11.3648 12.7469C11.6518 12.4599 11.8615 12.1193 11.9962 11.7433C12.2134 11.8013 12.4405 11.8127 12.6615 11.778C13.002 11.7248 13.2995 12.0146 13.2388 12.3537C13.1365 12.9274 12.8841 13.4471 12.4745 13.8566C12.1332 14.198 11.7159 14.4301 11.2542 14.5574C10.7755 14.6894 10.4295 15.0987 10.3873 15.5933C10.2947 16.6737 10.1111 17.9615 9.31227 18.7604Z" fill="url(#paint2_linear_1_498)"/>
<path d="M9.01257 12.2899L7.71092 10.9882C7.58147 10.8587 7.58147 10.6488 7.71092 10.5193L14.75 3.48024C14.8795 3.35079 15.0894 3.35079 15.2188 3.48024L16.5205 4.78193C16.6499 4.91138 16.6499 5.12126 16.5205 5.25075L9.48135 12.2899C9.3519 12.4193 9.14202 12.4193 9.01257 12.2899Z" fill="url(#paint3_linear_1_498)"/>
<path d="M16.5206 5.24994L9.48146 12.289C9.35185 12.4186 9.14193 12.4186 9.0126 12.2893L8.2951 11.5718C8.42471 11.7014 8.63463 11.7014 8.76424 11.5718L14.9319 5.40417L14.1229 4.59519C14.036 4.50829 13.9715 4.40766 13.9293 4.30009L14.75 3.47939C14.8794 3.35005 15.0893 3.35005 15.2186 3.47939L16.5206 4.78131C16.6499 4.91068 16.6499 5.1206 16.5206 5.24994Z" fill="url(#paint4_linear_1_498)"/>
<path d="M18.3533 4.59258L15.4617 1.70105L15.8777 1.28513L18.7693 4.17662L18.3533 4.59258Z" fill="url(#paint5_linear_1_498)"/>
<path d="M19.1808 3.24888L16.8054 0.873541L17.2214 0.457581L19.5968 2.83295L19.1808 3.24888Z" fill="url(#paint6_linear_1_498)"/>
<path d="M17.5535 5.96392L14.0904 2.50082L14.5064 2.0849L17.9695 5.548L17.5535 5.96392Z" fill="url(#paint7_linear_1_498)"/>
<path d="M16.1574 5.195L14.805 3.84258C14.5061 3.54375 14.5565 3.04603 14.9091 2.81309L17.535 1.07834C17.9317 0.816266 18.4581 0.869482 18.7942 1.20572C19.1305 1.54195 19.1837 2.0683 18.9216 2.46501L17.1869 5.09089C16.9539 5.44351 16.4562 5.49383 16.1574 5.195Z" fill="url(#paint8_linear_1_498)"/>
<path d="M17.1869 5.09089L18.9216 2.46501C19.1837 2.0683 19.1305 1.54191 18.7943 1.20571C18.6692 1.08065 18.5178 0.994927 18.3566 0.949829C18.4328 1.22206 18.3927 1.5223 18.2281 1.77148L16.4933 4.39736C16.2604 4.74995 15.7627 4.80031 15.4638 4.50148L14.8049 3.84258L14.805 3.84262L16.1574 5.19505C16.4562 5.49384 16.954 5.44352 17.1869 5.09089Z" fill="url(#paint9_linear_1_498)"/>
<path d="M17.4243 0.146C17.2296 -0.0486667 16.9141 -0.0486667 16.7194 0.146L16.4938 0.371569C16.2992 0.566235 16.2992 0.881804 16.4938 1.07647C16.6885 1.27114 17.0041 1.27114 17.1987 1.07647L17.4243 0.850902C17.6189 0.656235 17.6189 0.340627 17.4243 0.146Z" fill="url(#paint10_linear_1_498)"/>
<path d="M16.0806 0.973484C15.886 0.778817 15.5704 0.778817 15.3757 0.973484L15.1502 1.19905C14.9555 1.39372 14.9555 1.70933 15.1502 1.90395C15.3448 2.09862 15.6604 2.09862 15.8551 1.90395L16.0806 1.67839C16.2753 1.48372 16.2753 1.16815 16.0806 0.973484Z" fill="url(#paint11_linear_1_498)"/>
<path d="M14.823 1.88703C14.6283 1.69236 14.3128 1.69236 14.1181 1.88703L13.8925 2.1126C13.6979 2.30726 13.6979 2.62283 13.8925 2.8175C14.0872 3.01217 14.4028 3.01217 14.5974 2.8175L14.823 2.59193C15.0177 2.39726 15.0177 2.0817 14.823 1.88703Z" fill="url(#paint12_linear_1_498)"/>
<path d="M19.854 2.57566C19.6593 2.38099 19.3438 2.38099 19.1491 2.57566L18.9235 2.80123C18.7289 2.99589 18.7289 3.31146 18.9235 3.50613C19.1182 3.7008 19.4338 3.7008 19.6284 3.50613L19.854 3.28056C20.0487 3.08593 20.0487 2.77032 19.854 2.57566Z" fill="url(#paint13_linear_1_498)"/>
<path d="M19.0265 3.91935C18.8318 3.72468 18.5163 3.72468 18.3216 3.91935L18.096 4.14491C17.9013 4.33958 17.9013 4.65519 18.096 4.84981C18.2907 5.04448 18.6063 5.04448 18.8009 4.84981L19.0265 4.62425C19.2212 4.42962 19.2212 4.11401 19.0265 3.91935Z" fill="url(#paint14_linear_1_498)"/>
<path d="M18.113 5.17698C17.9183 4.98231 17.6027 4.98231 17.4081 5.17698L17.1825 5.40254C16.9878 5.59721 16.9878 5.91278 17.1825 6.10744C17.3772 6.30211 17.6927 6.30211 17.8874 6.10744L18.113 5.88188C18.3076 5.68721 18.3076 5.37164 18.113 5.17698Z" fill="url(#paint15_linear_1_498)"/>
<path d="M8.30035 14.0274L5.97251 11.6996C5.84063 11.5677 5.84063 11.3539 5.97251 11.222L6.21239 10.9821C6.34427 10.8502 6.55812 10.8502 6.69 10.9821L9.01784 13.3099C9.14972 13.4418 9.14972 13.6557 9.01784 13.7876L8.77796 14.0274C8.64608 14.1593 8.43223 14.1593 8.30035 14.0274Z" fill="url(#paint16_linear_1_498)"/>
<path d="M7.18194 15.1459L4.8541 12.818C4.72222 12.6861 4.72222 12.4723 4.8541 12.3404L5.09398 12.1005C5.22586 11.9686 5.43971 11.9686 5.57159 12.1005L7.89943 14.4284C8.03132 14.5603 8.03132 14.7741 7.89943 14.906L7.65955 15.1459C7.52763 15.2778 7.31383 15.2778 7.18194 15.1459Z" fill="url(#paint17_linear_1_498)"/>
<path d="M5.9079 18.961C6.28692 18.961 6.59417 18.6538 6.59417 18.2748C6.59417 17.8958 6.28692 17.5885 5.9079 17.5885C5.52888 17.5885 5.22162 17.8958 5.22162 18.2748C5.22162 18.6538 5.52888 18.961 5.9079 18.961Z" fill="url(#paint18_linear_1_498)"/>
<path d="M7.87664 18.6283C8.25566 18.6283 8.56292 18.321 8.56292 17.942C8.56292 17.563 8.25566 17.2557 7.87664 17.2557C7.49762 17.2557 7.19037 17.563 7.19037 17.942C7.19037 18.321 7.49762 18.6283 7.87664 18.6283Z" fill="url(#paint19_linear_1_498)"/>
<path d="M3.09088 17.0251L2.97496 16.9092C2.30026 16.2345 2.30026 15.1405 2.97496 14.4658C3.10057 14.3402 3.30425 14.3402 3.42986 14.4658L5.53421 16.5702C5.65982 16.6958 5.65982 16.8995 5.53421 17.0251C4.85947 17.6998 3.76559 17.6998 3.09088 17.0251Z" fill="url(#paint20_linear_1_498)"/>
<path d="M5.53418 16.5702L4.84065 15.8766C4.96626 16.0022 4.96626 16.2059 4.84065 16.3315C4.26547 16.9067 3.38582 16.9911 2.72076 16.5857C2.79092 16.7008 2.87539 16.8096 2.97492 16.9091L3.09084 17.0251C3.76555 17.6998 4.85948 17.6998 5.53418 17.0251C5.65983 16.8995 5.65983 16.6958 5.53418 16.5702Z" fill="url(#paint21_linear_1_498)"/>
<defs>
<linearGradient id="paint0_linear_1_498" x1="1.06664" y1="8.15045" x2="11.0793" y2="18.1631" gradientUnits="userSpaceOnUse">
<stop stop-color="#FE646F"/>
<stop offset="0.593" stop-color="#FB2B3A"/>
<stop offset="1" stop-color="#C41926"/>
</linearGradient>
<linearGradient id="paint1_linear_1_498" x1="6.48857" y1="7.87335" x2="8.68454" y2="10.0693" gradientUnits="userSpaceOnUse">
<stop stop-color="#FE646F"/>
<stop offset="0.593" stop-color="#FB2B3A"/>
<stop offset="1" stop-color="#C41926"/>
</linearGradient>
<linearGradient id="paint2_linear_1_498" x1="2.74684" y1="10.35" x2="8.44125" y2="16.0444" gradientUnits="userSpaceOnUse">
<stop stop-color="#FE646F"/>
<stop offset="0.593" stop-color="#FB2B3A"/>
<stop offset="1" stop-color="#C41926"/>
</linearGradient>
<linearGradient id="paint3_linear_1_498" x1="10.3542" y1="6.1285" x2="13.775" y2="9.54922" gradientUnits="userSpaceOnUse">
<stop stop-color="#537983"/>
<stop offset="0.593" stop-color="#554E56"/>
<stop offset="1" stop-color="#433F43"/>
</linearGradient>
<linearGradient id="paint4_linear_1_498" x1="9.52283" y1="5.29647" x2="12.9435" y2="8.71718" gradientUnits="userSpaceOnUse">
<stop stop-color="#537983"/>
<stop offset="0.593" stop-color="#554E56"/>
<stop offset="1" stop-color="#433F43"/>
</linearGradient>
<linearGradient id="paint5_linear_1_498" x1="15.667" y1="1.49662" x2="18.5581" y2="4.38776" gradientUnits="userSpaceOnUse">
<stop stop-color="#537983"/>
<stop offset="0.593" stop-color="#554E56"/>
<stop offset="1" stop-color="#433F43"/>
</linearGradient>
<linearGradient id="paint6_linear_1_498" x1="17.0105" y1="0.669247" x2="19.3855" y2="3.04427" gradientUnits="userSpaceOnUse">
<stop stop-color="#537983"/>
<stop offset="0.593" stop-color="#554E56"/>
<stop offset="1" stop-color="#433F43"/>
</linearGradient>
<linearGradient id="paint7_linear_1_498" x1="14.2958" y1="2.2963" x2="17.7584" y2="5.75889" gradientUnits="userSpaceOnUse">
<stop stop-color="#537983"/>
<stop offset="0.593" stop-color="#554E56"/>
<stop offset="1" stop-color="#433F43"/>
</linearGradient>
<linearGradient id="paint8_linear_1_498" x1="14.8521" y1="0.583116" x2="19.2906" y2="5.0216" gradientUnits="userSpaceOnUse">
<stop stop-color="#FE646F"/>
<stop offset="0.593" stop-color="#FB2B3A"/>
<stop offset="1" stop-color="#C41926"/>
</linearGradient>
<linearGradient id="paint9_linear_1_498" x1="14.6022" y1="0.329986" x2="18.1281" y2="3.85581" gradientUnits="userSpaceOnUse">
<stop stop-color="#FE646F"/>
<stop offset="0.593" stop-color="#FB2B3A"/>
<stop offset="1" stop-color="#C41926"/>
</linearGradient>
<linearGradient id="paint10_linear_1_498" x1="16.4853" y1="0.144114" x2="17.251" y2="0.909832" gradientUnits="userSpaceOnUse">
<stop stop-color="#F8F6F7"/>
<stop offset="0.1788" stop-color="#F8F6F7"/>
<stop offset="1" stop-color="#E7E6F5"/>
</linearGradient>
<linearGradient id="paint11_linear_1_498" x1="15.1418" y1="0.971465" x2="15.9076" y2="1.73722" gradientUnits="userSpaceOnUse">
<stop stop-color="#F8F6F7"/>
<stop offset="0.1788" stop-color="#F8F6F7"/>
<stop offset="1" stop-color="#E7E6F5"/>
</linearGradient>
<linearGradient id="paint12_linear_1_498" x1="13.8844" y1="1.88487" x2="14.6501" y2="2.65063" gradientUnits="userSpaceOnUse">
<stop stop-color="#F8F6F7"/>
<stop offset="0.1788" stop-color="#F8F6F7"/>
<stop offset="1" stop-color="#E7E6F5"/>
</linearGradient>
<linearGradient id="paint13_linear_1_498" x1="19.0115" y1="2.67028" x2="19.7511" y2="3.40984" gradientUnits="userSpaceOnUse">
<stop stop-color="#F8F6F7"/>
<stop offset="0.1788" stop-color="#F8F6F7"/>
<stop offset="1" stop-color="#E7E6F5"/>
</linearGradient>
<linearGradient id="paint14_linear_1_498" x1="18.1841" y1="4.01375" x2="18.9236" y2="4.7533" gradientUnits="userSpaceOnUse">
<stop stop-color="#F8F6F7"/>
<stop offset="0.1788" stop-color="#F8F6F7"/>
<stop offset="1" stop-color="#E7E6F5"/>
</linearGradient>
<linearGradient id="paint15_linear_1_498" x1="17.2707" y1="5.27119" x2="18.0103" y2="6.01075" gradientUnits="userSpaceOnUse">
<stop stop-color="#F8F6F7"/>
<stop offset="0.1788" stop-color="#F8F6F7"/>
<stop offset="1" stop-color="#E7E6F5"/>
</linearGradient>
<linearGradient id="paint16_linear_1_498" x1="5.81419" y1="10.8282" x2="9.41649" y2="14.4305" gradientUnits="userSpaceOnUse">
<stop stop-color="#F8F6F7"/>
<stop offset="0.1788" stop-color="#F8F6F7"/>
<stop offset="1" stop-color="#E7E6F5"/>
</linearGradient>
<linearGradient id="paint17_linear_1_498" x1="4.69595" y1="11.9464" x2="8.29825" y2="15.5487" gradientUnits="userSpaceOnUse">
<stop stop-color="#F8F6F7"/>
<stop offset="0.1788" stop-color="#F8F6F7"/>
<stop offset="1" stop-color="#E7E6F5"/>
</linearGradient>
<linearGradient id="paint18_linear_1_498" x1="5.25824" y1="17.6243" x2="6.31626" y2="18.6824" gradientUnits="userSpaceOnUse">
<stop stop-color="#F8F6F7"/>
<stop offset="0.1788" stop-color="#F8F6F7"/>
<stop offset="1" stop-color="#E7E6F5"/>
</linearGradient>
<linearGradient id="paint19_linear_1_498" x1="7.39306" y1="17.458" x2="8.33827" y2="18.4032" gradientUnits="userSpaceOnUse">
<stop stop-color="#F8F6F7"/>
<stop offset="0.1788" stop-color="#F8F6F7"/>
<stop offset="1" stop-color="#E7E6F5"/>
</linearGradient>
<linearGradient id="paint20_linear_1_498" x1="-3.96181" y1="8.52238" x2="11.2269" y2="23.711" gradientUnits="userSpaceOnUse">
<stop stop-color="#537983"/>
<stop offset="0.593" stop-color="#554E56"/>
<stop offset="1" stop-color="#433F43"/>
</linearGradient>
<linearGradient id="paint21_linear_1_498" x1="-3.23255" y1="9.25164" x2="6.41992" y2="18.904" gradientUnits="userSpaceOnUse">
<stop stop-color="#537983"/>
<stop offset="0.593" stop-color="#554E56"/>
<stop offset="1" stop-color="#433F43"/>
</linearGradient>
</defs>
</svg>
