<svg width="20" height="16" viewBox="0 0 20 16" fill="none" xmlns="http://www.w3.org/2000/svg">
<path d="M9.8296 1.66246C6.7705 0.990929 3.6947 0.958615 0.63396 1.5656C0.265412 1.63869 0 1.96261 0 2.33834V15.1103C0 15.6034 0.447686 15.9736 0.932509 15.8841C3.51141 15.4078 6.10035 15.3851 8.68019 15.816C9.5538 15.9619 10.4461 15.9619 11.3197 15.816C13.8996 15.3851 16.4885 15.4078 19.0674 15.8841C19.5523 15.9736 19.9999 15.6034 19.9999 15.1103C19.9999 10.853 19.9999 6.59567 19.9999 2.33838C19.9999 1.96265 19.7345 1.63873 19.366 1.56563C16.3053 0.958654 13.2295 0.990929 10.1703 1.6625C10.0581 1.68709 9.94188 1.68709 9.8296 1.66246V1.66246Z" fill="url(#paint0_linear_1_784)"/>
<path d="M19.3661 1.56559C17.6503 1.22531 15.9299 1.08606 14.2102 1.14755C15.4067 1.18978 16.6028 1.3288 17.7966 1.56559C18.1652 1.63869 18.4306 1.96261 18.4306 2.33833V15.1103C18.4306 15.3657 18.3103 15.588 18.127 15.7306C18.4406 15.7751 18.7541 15.8262 19.0675 15.884C19.5523 15.9735 20 15.6033 20 15.1103C20 10.8529 20 6.59559 20 2.33829C20 1.96261 19.7346 1.63869 19.3661 1.56559Z" fill="url(#paint1_linear_1_784)"/>
<path d="M10 15.0174C7.24618 14.34 4.477 14.2693 1.7199 14.8056C1.2232 14.9022 0.758179 14.5425 0.758179 14.0649C0.758179 9.78859 0.758179 5.51227 0.758179 1.23596C0.758179 0.88333 1.01685 0.57635 1.3821 0.498742C4.25081 -0.111023 7.13363 -0.0633367 10 0.641761V15.0174Z" fill="url(#paint2_linear_1_784)"/>
<path d="M18.2801 14.8056C15.5231 14.2694 12.7539 14.3399 10 15.0174C10 10.2255 10 5.43363 10 0.641752C12.8664 -0.0633463 15.7493 -0.110993 18.6179 0.498693C18.9831 0.57634 19.2418 0.883281 19.2418 1.23591V14.0648C19.2418 14.5425 18.7768 14.9022 18.2801 14.8056Z" fill="url(#paint3_linear_1_784)"/>
<path d="M19.2418 1.23595C19.2418 0.883327 18.9832 0.576347 18.6179 0.4987C17.0276 0.160661 15.4328 0.025053 13.8389 0.0911706C14.9097 0.135877 15.9801 0.271641 17.0485 0.4987C17.4138 0.576347 17.6724 0.883288 17.6724 1.23595V14.0649C17.6724 14.3046 17.5553 14.5145 17.3759 14.652C17.6774 14.6961 17.9789 14.747 18.2801 14.8056C18.7768 14.9022 19.2418 14.5425 19.2418 14.0649C19.2418 9.78858 19.2418 5.51227 19.2418 1.23595Z" fill="url(#paint4_linear_1_784)"/>
<path d="M8.68041 13.1542C6.10041 12.7233 3.51139 12.746 0.932566 13.2221C0.873743 13.2331 0.815312 13.237 0.758057 13.2346V14.0648C0.758057 14.5425 1.22315 14.9021 1.72002 14.8056C4.47688 14.2695 7.24629 14.3401 10 15.0174V13.2637C9.55845 13.2637 9.11688 13.2272 8.68041 13.1542V13.1542Z" fill="url(#paint5_linear_1_784)"/>
<path d="M19.0674 13.2221C16.4886 12.746 13.8996 12.7233 11.3196 13.1542C10.8831 13.2272 10.4416 13.2637 10 13.2637V15.0174C12.7537 14.3401 15.5231 14.2695 18.28 14.8056C18.7769 14.9021 19.2419 14.5425 19.2419 14.0648V13.2346C19.1847 13.237 19.1263 13.2331 19.0674 13.2221V13.2221Z" fill="url(#paint6_linear_1_784)"/>
<path d="M13.3414 13.5137C13.4536 13.5083 13.5451 13.5959 13.5451 13.7082V15.3267C13.5451 15.5404 13.2867 15.6475 13.1353 15.4965C12.9404 15.3016 12.6847 15.2039 12.4294 15.2039C12.1741 15.2039 11.9184 15.3016 11.7235 15.4965C11.5765 15.6431 11.3282 15.5463 11.3145 15.3443C11.3141 15.3384 11.3137 15.3326 11.3137 15.3267V13.9216C11.3137 13.8278 11.3821 13.7479 11.4748 13.7337C11.846 13.6768 12.7729 13.5408 13.3414 13.5137Z" fill="url(#paint7_linear_1_784)"/>
<path d="M19.2418 14.0649C19.2418 13.7882 19.2418 13.5114 19.2418 13.2346C19.1846 13.237 19.1262 13.2331 19.0675 13.2221C18.6027 13.1363 18.1377 13.0654 17.6724 13.0091V14.0649C17.6724 14.3046 17.5553 14.5144 17.3759 14.652C17.6774 14.6961 17.9789 14.747 18.2801 14.8056C18.7768 14.9022 19.2418 14.5426 19.2418 14.0649V14.0649Z" fill="url(#paint8_linear_1_784)"/>
<path d="M8.50015 4.23498C7.39741 3.65243 6.49188 2.74686 5.90929 1.64411C5.68294 1.21564 5.07525 1.21564 4.84886 1.64411C4.26627 2.74686 3.36074 3.65239 2.258 4.23498C1.82953 4.46133 1.82953 5.06902 2.258 5.29541C3.36074 5.87796 4.26627 6.78353 4.84886 7.88628C5.07521 8.31475 5.6829 8.31475 5.90929 7.88628C6.49188 6.78353 7.39741 5.878 8.50015 5.29541C8.92862 5.06906 8.92862 4.46137 8.50015 4.23498V4.23498Z" fill="url(#paint9_linear_1_784)"/>
<path d="M8.50014 4.23496C7.39783 3.65261 6.49253 2.74751 5.90994 1.64532C5.68418 1.21822 5.07594 1.21371 4.85053 1.641C4.84735 1.64704 4.84414 1.65308 4.84092 1.65912C4.69018 1.94241 4.72237 2.28763 4.91869 2.54143C5.45877 3.23971 6.14445 3.81955 6.93073 4.23492C7.35571 4.45943 7.35571 5.07081 6.93073 5.29536C6.14445 5.71073 5.45877 6.29057 4.91869 6.98885C4.72237 7.24269 4.69018 7.5879 4.84092 7.87116C4.84414 7.8772 4.84735 7.88324 4.85053 7.88928C5.07594 8.31657 5.68418 8.31206 5.90994 7.88496C6.49253 6.78277 7.39783 5.87767 8.50014 5.29532C8.92454 5.0712 8.92454 4.4592 8.50014 4.23496V4.23496Z" fill="url(#paint10_linear_1_784)"/>
<path d="M4.10369 7.79976C3.64651 7.55823 3.2711 7.18282 3.02957 6.72564C2.93573 6.548 2.68376 6.548 2.58992 6.72564C2.34839 7.18282 1.97298 7.55823 1.5158 7.79976C1.33816 7.89361 1.33816 8.14557 1.5158 8.23941C1.97298 8.48094 2.34839 8.85635 2.58992 9.31353C2.68376 9.49118 2.93573 9.49118 3.02957 9.31353C3.2711 8.85635 3.64651 8.48094 4.10369 8.23941C4.28133 8.14557 4.28133 7.89361 4.10369 7.79976Z" fill="url(#paint11_linear_1_784)"/>
<path d="M13.2728 2.34537C12.8856 2.14082 12.5675 1.82282 12.363 1.43561C12.2835 1.28514 12.0701 1.28514 11.9906 1.43561C11.7861 1.82282 11.4681 2.14082 11.0809 2.34537C10.9304 2.42486 10.9304 2.63823 11.0809 2.71772C11.4681 2.92227 11.7861 3.24027 11.9906 3.62749C12.0701 3.77796 12.2835 3.77796 12.363 3.62749C12.5675 3.24027 12.8856 2.92227 13.2728 2.71772C13.4232 2.63827 13.4232 2.42486 13.2728 2.34537Z" fill="url(#paint12_linear_1_784)"/>
<path d="M2.36142 10.6055C2.2195 10.6055 2.09456 10.5026 2.07138 10.3579C2.04566 10.1975 2.15483 10.0467 2.31526 10.021C4.34903 9.69513 6.41068 9.69497 8.44287 10.0206C8.60327 10.0464 8.71248 10.1972 8.68676 10.3576C8.66103 10.518 8.51028 10.6272 8.34981 10.6015C6.3793 10.2857 4.38028 10.2858 2.40832 10.6018C2.39256 10.6043 2.37687 10.6055 2.36142 10.6055V10.6055Z" fill="#ACACAC"/>
<path d="M2.36142 12.0886C2.2195 12.0886 2.09456 11.9857 2.07138 11.841C2.04566 11.6806 2.15483 11.5298 2.31526 11.5041C4.34903 11.1783 6.41068 11.1781 8.44287 11.5037C8.60327 11.5295 8.71248 11.6803 8.68676 11.8407C8.66103 12.0011 8.51028 12.1102 8.34981 12.0846C6.3793 11.7688 4.38028 11.769 2.40832 12.0849C2.39256 12.0874 2.37687 12.0886 2.36142 12.0886V12.0886Z" fill="#ACACAC"/>
<path d="M17.6385 3.23679C17.6231 3.23679 17.6074 3.23557 17.5916 3.23302C16.473 3.05377 15.3375 2.97534 14.2166 2.99981C14.0558 3.00373 13.9197 2.87463 13.9161 2.7122C13.9126 2.54981 14.0414 2.41526 14.2038 2.41173C15.36 2.38628 16.5311 2.46734 17.6847 2.6522C17.8451 2.67793 17.9544 2.82875 17.9286 2.98914C17.9054 3.13377 17.7805 3.23679 17.6385 3.23679Z" fill="#ACACAC"/>
<path d="M11.6032 4.72024C11.4613 4.72024 11.3364 4.61726 11.3132 4.47263C11.2875 4.31224 11.3967 4.16138 11.5571 4.13569C13.5908 3.80985 15.6525 3.8097 17.6847 4.1353C17.8451 4.16103 17.9543 4.31185 17.9286 4.47224C17.9029 4.63263 17.752 4.74173 17.5917 4.71612C15.6211 4.40036 13.6221 4.40052 11.6501 4.71648C11.6344 4.71899 11.6187 4.72024 11.6032 4.72024V4.72024Z" fill="#ACACAC"/>
<path d="M11.6032 6.20334C11.4613 6.20334 11.3364 6.10036 11.3132 5.95573C11.2875 5.79534 11.3967 5.64447 11.5571 5.61879C13.5908 5.29295 15.6525 5.29279 17.6847 5.6184C17.8451 5.64412 17.9543 5.79494 17.9286 5.95534C17.9029 6.11573 17.752 6.22475 17.5917 6.19922C15.6211 5.88345 13.6221 5.88361 11.6501 6.19957C11.6344 6.20208 11.6187 6.20334 11.6032 6.20334V6.20334Z" fill="#ACACAC"/>
<path d="M11.6032 7.68641C11.4613 7.68641 11.3364 7.58342 11.3132 7.4388C11.2875 7.2784 11.3967 7.12754 11.5571 7.10185C13.5908 6.77601 15.6525 6.77585 17.6847 7.10146C17.8451 7.12719 17.9543 7.27801 17.9286 7.4384C17.9029 7.5988 17.752 7.70794 17.5917 7.68229C15.6211 7.36652 13.6221 7.36668 11.6501 7.68264C11.6344 7.68519 11.6187 7.68641 11.6032 7.68641V7.68641Z" fill="#ACACAC"/>
<path d="M11.6032 9.1695C11.4613 9.1695 11.3364 9.06652 11.3132 8.92189C11.2875 8.76151 11.3967 8.61065 11.5571 8.58496C13.5908 8.25913 15.6525 8.25897 17.6847 8.58461C17.8451 8.61034 17.9543 8.76115 17.9286 8.92154C17.9029 9.08197 17.752 9.19118 17.5917 9.16542C15.6211 8.84966 13.6221 8.84982 11.6501 9.16577C11.6344 9.16828 11.6187 9.1695 11.6032 9.1695V9.1695Z" fill="#ACACAC"/>
<path d="M11.6032 10.6526C11.4613 10.6526 11.3364 10.5496 11.3132 10.405C11.2875 10.2446 11.3967 10.0937 11.5571 10.068C13.5908 9.74219 15.6525 9.74203 17.6847 10.0677C17.8451 10.0934 17.9543 10.2442 17.9286 10.4046C17.9029 10.5651 17.752 10.6742 17.5917 10.6485C15.6211 10.3327 13.6221 10.3329 11.6501 10.6489C11.6344 10.6513 11.6187 10.6526 11.6032 10.6526V10.6526Z" fill="#ACACAC"/>
<path d="M11.6032 12.1357C11.4613 12.1357 11.3364 12.0327 11.3132 11.8881C11.2875 11.7277 11.3967 11.5768 11.5571 11.5511C13.5908 11.2253 15.6525 11.2251 17.6847 11.5507C17.8451 11.5764 17.9543 11.7273 17.9286 11.8877C17.9029 12.0481 17.752 12.1572 17.5917 12.1316C15.6211 11.8158 13.6221 11.8159 11.6501 12.1319C11.6344 12.1345 11.6187 12.1357 11.6032 12.1357V12.1357Z" fill="#ACACAC"/>
<path d="M9.23295 7.48809H8.85318C8.6333 7.48809 8.45502 7.30986 8.45502 7.08993V6.71017C8.45502 6.54911 8.33094 6.40868 8.16996 6.40385C8.00341 6.39883 7.86678 6.5324 7.86678 6.69785V7.08997C7.86678 7.30986 7.68855 7.48813 7.46863 7.48813H7.08886C6.9278 7.48813 6.78737 7.61221 6.78255 7.77319C6.77753 7.93974 6.9111 8.07637 7.07655 8.07637H7.46867C7.68855 8.07637 7.86682 8.2546 7.86682 8.47453V8.85429C7.86682 9.01535 7.9909 9.15578 8.15188 9.16061C8.31843 9.16563 8.45506 9.03206 8.45506 8.86661V8.47449C8.45506 8.2546 8.6333 8.07633 8.85322 8.07633H9.24534C9.41079 8.07633 9.54432 7.93974 9.53934 7.77315C9.5344 7.61217 9.39397 7.48809 9.23295 7.48809V7.48809Z" fill="url(#paint13_linear_1_784)"/>
<defs>
<linearGradient id="paint0_linear_1_784" x1="0" y1="8.52936" x2="21.0196" y2="8.52936" gradientUnits="userSpaceOnUse">
<stop stop-color="#FE73C5"/>
<stop offset="0.1257" stop-color="#F771C7"/>
<stop offset="0.3117" stop-color="#E36ECC"/>
<stop offset="0.5339" stop-color="#C369D5"/>
<stop offset="0.6488" stop-color="#AF66DA"/>
<stop offset="0.7769" stop-color="#A15DC8"/>
<stop offset="1" stop-color="#814AA0"/>
</linearGradient>
<linearGradient id="paint1_linear_1_784" x1="9.56862" y1="8.51547" x2="18.1205" y2="8.51547" gradientUnits="userSpaceOnUse">
<stop stop-color="#FE73C5"/>
<stop offset="0.1257" stop-color="#F771C7"/>
<stop offset="0.3117" stop-color="#E36ECC"/>
<stop offset="0.5339" stop-color="#C369D5"/>
<stop offset="0.6488" stop-color="#AF66DA"/>
<stop offset="0.7769" stop-color="#A15DC8"/>
<stop offset="1" stop-color="#814AA0"/>
</linearGradient>
<linearGradient id="paint2_linear_1_784" x1="0.758179" y1="7.546" x2="10" y2="7.546" gradientUnits="userSpaceOnUse">
<stop stop-color="#F8F6F7"/>
<stop offset="0.1788" stop-color="#F8F6F7"/>
<stop offset="1" stop-color="#E7E6F5"/>
</linearGradient>
<linearGradient id="paint3_linear_1_784" x1="10" y1="7.54599" x2="19.2418" y2="7.54599" gradientUnits="userSpaceOnUse">
<stop stop-color="#F8F6F7"/>
<stop offset="0.1788" stop-color="#F8F6F7"/>
<stop offset="1" stop-color="#E7E6F5"/>
</linearGradient>
<linearGradient id="paint4_linear_1_784" x1="14.3095" y1="7.44815" x2="20.2198" y2="7.44815" gradientUnits="userSpaceOnUse">
<stop stop-color="#F8F6F7"/>
<stop offset="1" stop-color="#D1CEEB"/>
</linearGradient>
<linearGradient id="paint5_linear_1_784" x1="-0.967316" y1="13.9323" x2="9.58814" y2="13.9323" gradientUnits="userSpaceOnUse">
<stop stop-color="#F8F6F7"/>
<stop offset="1" stop-color="#D1CEEB"/>
</linearGradient>
<linearGradient id="paint6_linear_1_784" x1="7.97385" y1="13.9323" x2="21.6557" y2="13.9323" gradientUnits="userSpaceOnUse">
<stop stop-color="#F8F6F7"/>
<stop offset="1" stop-color="#D1CEEB"/>
</linearGradient>
<linearGradient id="paint7_linear_1_784" x1="11.3333" y1="14.5403" x2="14.0829" y2="14.5403" gradientUnits="userSpaceOnUse">
<stop stop-color="#BBEC6C"/>
<stop offset="0.542" stop-color="#97D729"/>
<stop offset="1" stop-color="#78A91F"/>
</linearGradient>
<linearGradient id="paint8_linear_1_784" x1="14.4575" y1="13.9153" x2="16.1752" y2="13.9153" gradientUnits="userSpaceOnUse">
<stop stop-color="#F8F6F7"/>
<stop offset="1" stop-color="#D1CEEB"/>
</linearGradient>
<linearGradient id="paint9_linear_1_784" x1="1.982" y1="4.76521" x2="8.7027" y2="4.76521" gradientUnits="userSpaceOnUse">
<stop stop-color="#FEE903"/>
<stop offset="0.2305" stop-color="#FEE505"/>
<stop offset="0.4171" stop-color="#FEDB0B"/>
<stop offset="0.5884" stop-color="#FECA15"/>
<stop offset="0.7504" stop-color="#FEB223"/>
<stop offset="0.9046" stop-color="#FE9435"/>
<stop offset="1" stop-color="#FE7D43"/>
</linearGradient>
<linearGradient id="paint10_linear_1_784" x1="-0.272227" y1="4.7652" x2="8.86281" y2="4.7652" gradientUnits="userSpaceOnUse">
<stop stop-color="#FEE903"/>
<stop offset="0.2305" stop-color="#FEE505"/>
<stop offset="0.4171" stop-color="#FEDB0B"/>
<stop offset="0.5884" stop-color="#FECA15"/>
<stop offset="0.7504" stop-color="#FEB223"/>
<stop offset="0.9046" stop-color="#FE9435"/>
<stop offset="1" stop-color="#FE7D43"/>
</linearGradient>
<linearGradient id="paint11_linear_1_784" x1="1.40137" y1="8.01957" x2="4.18769" y2="8.01957" gradientUnits="userSpaceOnUse">
<stop stop-color="#FEE903"/>
<stop offset="0.2305" stop-color="#FEE505"/>
<stop offset="0.4171" stop-color="#FEDB0B"/>
<stop offset="0.5884" stop-color="#FECA15"/>
<stop offset="0.7504" stop-color="#FEB223"/>
<stop offset="0.9046" stop-color="#FE9435"/>
<stop offset="1" stop-color="#FE7D43"/>
</linearGradient>
<linearGradient id="paint12_linear_1_784" x1="10.9839" y1="2.53157" x2="13.3439" y2="2.53157" gradientUnits="userSpaceOnUse">
<stop stop-color="#FEE903"/>
<stop offset="0.2305" stop-color="#FEE505"/>
<stop offset="0.4171" stop-color="#FEDB0B"/>
<stop offset="0.5884" stop-color="#FECA15"/>
<stop offset="0.7504" stop-color="#FEB223"/>
<stop offset="0.9046" stop-color="#FE9435"/>
<stop offset="1" stop-color="#FE7D43"/>
</linearGradient>
<linearGradient id="paint13_linear_1_784" x1="6.78243" y1="7.78221" x2="9.53938" y2="7.78221" gradientUnits="userSpaceOnUse">
<stop stop-color="#FEE903"/>
<stop offset="0.2305" stop-color="#FEE505"/>
<stop offset="0.4171" stop-color="#FEDB0B"/>
<stop offset="0.5884" stop-color="#FECA15"/>
<stop offset="0.7504" stop-color="#FEB223"/>
<stop offset="0.9046" stop-color="#FE9435"/>
<stop offset="1" stop-color="#FE7D43"/>
</linearGradient>
</defs>
</svg>
