<svg width="16" height="17" viewBox="0 0 16 17" fill="none" xmlns="http://www.w3.org/2000/svg">
<path d="M16 10.9583L16 6.04166C16 4.73259 15.5399 3.44112 14.6413 2.40778L15.375 2.40778C15.7202 2.40778 16 2.12797 16 1.78278C16 1.43759 15.7202 1.15778 15.375 1.15778L12.9167 1.15778C12.5715 1.15778 12.2917 1.44 12.2917 1.78278L12.2917 4.24112C12.2917 4.58631 12.5715 4.86612 12.9167 4.86612C13.2618 4.86612 13.5417 4.58631 13.5417 4.24112L13.5417 3.05884C14.3043 3.84991 14.75 4.91775 14.75 6.04166L14.75 10.9583C14.75 13.3248 12.8248 15.25 10.4583 15.25L5.54169 15.25C3.17522 15.25 1.25 13.3248 1.25 10.9583L1.25 6.04165C1.25 3.67522 3.17522 1.75 5.54166 1.75L8 1.75C8.34519 1.75 8.625 1.47019 8.625 1.125C8.625 0.779812 8.34519 0.5 8 0.5L5.54166 0.5C2.48597 0.499999 3.70603e-06 2.98597 3.57246e-06 6.04165L3.35755e-06 10.9583C3.22398e-06 14.014 2.48597 16.5 5.54166 16.5L10.4583 16.5C13.514 16.5 16 14.014 16 10.9583Z" fill="url(#paint0_linear_353_4336)"/>
<path d="M8.625 4.8125V8.24113L10.9003 10.5164C11.1444 10.7605 11.1444 11.1562 10.9003 11.4003C10.6562 11.6444 10.2605 11.6443 10.0164 11.4003L7.55806 8.94194C7.44084 8.82475 7.375 8.66575 7.375 8.5V4.8125C7.375 4.46731 7.65481 4.1875 8 4.1875C8.34519 4.1875 8.625 4.46731 8.625 4.8125Z" fill="url(#paint1_linear_353_4336)"/>
<defs>
<linearGradient id="paint0_linear_353_4336" x1="16" y1="8.5" x2="3.46501e-06" y2="8.5" gradientUnits="userSpaceOnUse">
<stop stop-color="#229CF4"/>
<stop offset="1" stop-color="#3798F1"/>
</linearGradient>
<linearGradient id="paint1_linear_353_4336" x1="9.22918" y1="4.1875" x2="9.22918" y2="11.5833" gradientUnits="userSpaceOnUse">
<stop stop-color="#229CF4"/>
<stop offset="1" stop-color="#3798F1"/>
</linearGradient>
</defs>
</svg>
