<svg width="18" height="19" viewBox="0 0 18 19" fill="none" xmlns="http://www.w3.org/2000/svg">
<g clip-path="url(#clip0_353_4366)">
<path d="M12.9224 9.53196C12.5765 9.36753 12.2235 9.22589 11.8644 9.10723C13.0275 8.23423 13.7812 6.84412 13.7812 5.28125C13.7812 2.64488 11.6364 0.5 8.99998 0.5C6.36358 0.5 4.21873 2.64488 4.21873 5.28125C4.21873 6.84584 4.97417 8.23733 6.13942 9.11015C5.0718 9.46164 4.07002 10.0086 3.19323 10.7298C1.58546 12.0522 0.467599 13.8969 0.0456192 15.9239C-0.0866385 16.559 0.0718106 17.2113 0.480256 17.7136C0.886697 18.2134 1.48938 18.5 2.13372 18.5H10.7929C11.1813 18.5 11.4961 18.1852 11.4961 17.7969C11.4961 17.4085 11.1813 17.0938 10.7929 17.0938H2.13372C1.83356 17.0938 1.65247 16.9262 1.57126 16.8264C1.43102 16.6539 1.37674 16.4294 1.42234 16.2104C2.152 12.7055 5.2435 10.1453 8.81358 10.0589C8.87542 10.0613 8.93754 10.0625 8.99998 10.0625C9.06301 10.0625 9.12577 10.0613 9.1882 10.0588C10.2823 10.0845 11.3345 10.3342 12.3187 10.802C12.6694 10.9687 13.0888 10.8196 13.2555 10.4688C13.4222 10.1181 13.2731 9.69867 12.9224 9.53196ZM9.17147 8.65193C9.11441 8.65091 9.05725 8.65038 8.99998 8.65038C8.94324 8.65038 8.88649 8.65094 8.82982 8.652C7.04758 8.56309 5.62498 7.08519 5.62498 5.28125C5.62498 3.42025 7.13898 1.90625 8.99998 1.90625C10.861 1.90625 12.375 3.42025 12.375 5.28125C12.375 7.08473 10.9531 8.56235 9.17147 8.65193Z" fill="url(#paint0_linear_353_4366)"/>
<path d="M17.2969 14.457H15.3633V12.5234C15.3633 12.1351 15.0485 11.8203 14.6602 11.8203C14.2718 11.8203 13.957 12.1351 13.957 12.5234V14.457H12.0234C11.6351 14.457 11.3203 14.7718 11.3203 15.1602C11.3203 15.5485 11.6351 15.8633 12.0234 15.8633H13.957V17.7969C13.957 18.1852 14.2718 18.5 14.6602 18.5C15.0485 18.5 15.3633 18.1852 15.3633 17.7969V15.8633H17.2969C17.6852 15.8633 18 15.5485 18 15.1602C18 14.7718 17.6852 14.457 17.2969 14.457Z" fill="url(#paint1_linear_353_4366)"/>
</g>
<defs>
<linearGradient id="paint0_linear_353_4366" x1="6.89061" y1="0.5" x2="6.89061" y2="18.5" gradientUnits="userSpaceOnUse">
<stop stop-color="#229CF4"/>
<stop offset="1" stop-color="#3798F1"/>
</linearGradient>
<linearGradient id="paint1_linear_353_4366" x1="14.6602" y1="11.8203" x2="14.6602" y2="18.5" gradientUnits="userSpaceOnUse">
<stop stop-color="#229CF4"/>
<stop offset="1" stop-color="#3798F1"/>
</linearGradient>
<clipPath id="clip0_353_4366">
<rect width="18" height="18" fill="white" transform="translate(0 0.5)"/>
</clipPath>
</defs>
</svg>
