<svg width="12" height="19" viewBox="0 0 12 19" fill="none" xmlns="http://www.w3.org/2000/svg">
<path d="M9.02669 10.2776H3.18123V6.0118H0.64917L6.10179 0.5L11.3509 6.0118H9.02669V10.2776ZM4.24354 9.2153H7.96437V4.94948H8.87221L6.08728 2.02518L3.19438 4.94948H4.24354V9.2153Z" fill="url(#paint0_linear_353_4401)"/>
<path d="M3.08228 16.2199H4.14459V17.2822H3.08228V16.2199Z" fill="url(#paint1_linear_353_4401)"/>
<path d="M3.08228 11.8086H4.14459V15.1532H3.08228V11.8086Z" fill="url(#paint2_linear_353_4401)"/>
<path d="M7.96436 16.2199H9.02667V17.2822H7.96436V16.2199Z" fill="url(#paint3_linear_353_4401)"/>
<path d="M7.96436 11.8086H9.02667V15.1532H7.96436V11.8086Z" fill="url(#paint4_linear_353_4401)"/>
<path d="M5.52332 13.5697H6.58563V18.5H5.52332V13.5697Z" fill="url(#paint5_linear_353_4401)"/>
<defs>
<linearGradient id="paint0_linear_353_4401" x1="6.00004" y1="0.5" x2="6.00004" y2="10.2776" gradientUnits="userSpaceOnUse">
<stop stop-color="#229CF4"/>
<stop offset="1" stop-color="#3798F1"/>
</linearGradient>
<linearGradient id="paint1_linear_353_4401" x1="3.61343" y1="16.2199" x2="3.61343" y2="17.2822" gradientUnits="userSpaceOnUse">
<stop stop-color="#229CF4"/>
<stop offset="1" stop-color="#3798F1"/>
</linearGradient>
<linearGradient id="paint2_linear_353_4401" x1="3.61343" y1="11.8086" x2="3.61343" y2="15.1532" gradientUnits="userSpaceOnUse">
<stop stop-color="#229CF4"/>
<stop offset="1" stop-color="#3798F1"/>
</linearGradient>
<linearGradient id="paint3_linear_353_4401" x1="8.49551" y1="16.2199" x2="8.49551" y2="17.2822" gradientUnits="userSpaceOnUse">
<stop stop-color="#229CF4"/>
<stop offset="1" stop-color="#3798F1"/>
</linearGradient>
<linearGradient id="paint4_linear_353_4401" x1="8.49551" y1="11.8086" x2="8.49551" y2="15.1532" gradientUnits="userSpaceOnUse">
<stop stop-color="#229CF4"/>
<stop offset="1" stop-color="#3798F1"/>
</linearGradient>
<linearGradient id="paint5_linear_353_4401" x1="6.05447" y1="13.5697" x2="6.05447" y2="18.5" gradientUnits="userSpaceOnUse">
<stop stop-color="#229CF4"/>
<stop offset="1" stop-color="#3798F1"/>
</linearGradient>
</defs>
</svg>
