<svg width="16" height="17" viewBox="0 0 16 17" fill="none" xmlns="http://www.w3.org/2000/svg">
<path d="M8.625 4.8125V8.24113L10.9003 10.5164C11.1444 10.7605 11.1444 11.1562 10.9003 11.4003C10.6562 11.6444 10.2605 11.6443 10.0164 11.4003L7.55806 8.94194C7.44084 8.82475 7.375 8.66575 7.375 8.5V4.8125C7.375 4.46731 7.65481 4.1875 8 4.1875C8.34519 4.1875 8.625 4.46731 8.625 4.8125V4.8125ZM10.4583 0.5H5.54166C4.23259 0.5 2.94113 0.960063 1.90778 1.85869V1.125C1.90778 0.779813 1.62797 0.5 1.28278 0.5C0.937594 0.5 0.657781 0.779813 0.657781 1.125V3.58334C0.657781 3.92853 0.94 4.20834 1.28278 4.20834H3.74113C4.08631 4.20834 4.36613 3.92853 4.36613 3.58334C4.36613 3.23816 4.08631 2.95834 3.74113 2.95834H2.55884C3.34991 2.19569 4.41775 1.75 5.54166 1.75H10.4583C12.8248 1.75 14.75 3.67522 14.75 6.04166V10.9583C14.75 13.3248 12.8248 15.25 10.4583 15.25H5.54166C3.17522 15.25 1.25 13.3248 1.25 10.9583V8.5C1.25 8.15481 0.970187 7.875 0.625 7.875C0.279813 7.875 0 8.15481 0 8.5V10.9583C0 14.014 2.48597 16.5 5.54166 16.5H10.4583C13.514 16.5 16 14.014 16 10.9583V6.04166C16 2.98597 13.514 0.5 10.4583 0.5V0.5Z" fill="url(#paint0_linear_353_4334)"/>
<defs>
<linearGradient id="paint0_linear_353_4334" x1="8" y1="0.5" x2="8" y2="16.5" gradientUnits="userSpaceOnUse">
<stop stop-color="#229CF4"/>
<stop offset="1" stop-color="#3798F1"/>
</linearGradient>
</defs>
</svg>
