<svg width="12" height="19" viewBox="0 0 12 19" fill="none" xmlns="http://www.w3.org/2000/svg">
<path d="M2.97331 8.72238L8.81877 8.72238L8.81877 12.9882L11.3508 12.9882L5.89821 18.5L0.649098 12.9882L2.97331 12.9882L2.97331 8.72238ZM7.75646 9.7847L4.03563 9.7847L4.03563 14.0505L3.12779 14.0505L5.91272 16.9748L8.80562 14.0505L7.75646 14.0505L7.75646 9.7847Z" fill="url(#paint0_linear_353_4424)"/>
<path d="M8.91772 2.78009L7.85541 2.78009L7.85541 1.71777L8.91772 1.71777L8.91772 2.78009Z" fill="url(#paint1_linear_353_4424)"/>
<path d="M8.91772 7.19143L7.85541 7.19143L7.85541 3.8468L8.91772 3.8468L8.91772 7.19143Z" fill="url(#paint2_linear_353_4424)"/>
<path d="M4.03564 2.78009L2.97333 2.78009L2.97333 1.71777L4.03564 1.71777L4.03564 2.78009Z" fill="url(#paint3_linear_353_4424)"/>
<path d="M4.03564 7.19143L2.97333 7.19143L2.97333 3.8468L4.03564 3.8468L4.03564 7.19143Z" fill="url(#paint4_linear_353_4424)"/>
<path d="M6.47668 5.43027L5.41437 5.43028L5.41437 0.499997L6.47668 0.499997L6.47668 5.43027Z" fill="url(#paint5_linear_353_4424)"/>
<defs>
<linearGradient id="paint0_linear_353_4424" x1="5.99996" y1="18.5" x2="5.99996" y2="8.72238" gradientUnits="userSpaceOnUse">
<stop stop-color="#229CF4"/>
<stop offset="1" stop-color="#3798F1"/>
</linearGradient>
<linearGradient id="paint1_linear_353_4424" x1="8.38657" y1="2.78009" x2="8.38657" y2="1.71777" gradientUnits="userSpaceOnUse">
<stop stop-color="#229CF4"/>
<stop offset="1" stop-color="#3798F1"/>
</linearGradient>
<linearGradient id="paint2_linear_353_4424" x1="8.38657" y1="7.19143" x2="8.38657" y2="3.8468" gradientUnits="userSpaceOnUse">
<stop stop-color="#229CF4"/>
<stop offset="1" stop-color="#3798F1"/>
</linearGradient>
<linearGradient id="paint3_linear_353_4424" x1="3.50449" y1="2.78009" x2="3.50449" y2="1.71777" gradientUnits="userSpaceOnUse">
<stop stop-color="#229CF4"/>
<stop offset="1" stop-color="#3798F1"/>
</linearGradient>
<linearGradient id="paint4_linear_353_4424" x1="3.50449" y1="7.19143" x2="3.50449" y2="3.8468" gradientUnits="userSpaceOnUse">
<stop stop-color="#229CF4"/>
<stop offset="1" stop-color="#3798F1"/>
</linearGradient>
<linearGradient id="paint5_linear_353_4424" x1="5.94553" y1="5.43028" x2="5.94553" y2="0.499997" gradientUnits="userSpaceOnUse">
<stop stop-color="#229CF4"/>
<stop offset="1" stop-color="#3798F1"/>
</linearGradient>
</defs>
</svg>
