<svg width="18" height="19" viewBox="0 0 18 19" fill="none" xmlns="http://www.w3.org/2000/svg">
<path d="M16.3427 0.464844C16.3232 0.464844 16.3039 0.465668 16.2844 0.467316C16.1694 0.476791 13.5992 0.712723 12.6333 2.58699L9.14544 2.23255C8.30018 2.14672 7.4718 2.44211 6.87291 3.04197L0.855271 9.03969C-0.238558 10.1354 -0.238146 11.9177 0.856095 13.0129L5.4716 17.6322C6.026 18.1871 6.7533 18.4649 7.47812 18.4649C8.19292 18.4647 8.90539 18.1946 9.44715 17.6534C9.72167 17.379 9.72195 16.9341 9.44756 16.6595C9.17332 16.3849 8.72823 16.3847 8.45371 16.659C7.91085 17.2014 7.01903 17.1922 6.466 16.6387L1.85036 12.0193C1.30324 11.4718 1.3031 10.5807 1.84871 10.0341L7.86649 4.03623C8.16655 3.73575 8.58088 3.58799 9.0033 3.63083L14.3509 4.17438L14.4205 4.85773C13.4465 5.22083 12.5195 5.27879 12.4983 5.28002C12.1112 5.3009 11.814 5.63145 11.8343 6.01872C11.8541 6.39376 12.1644 6.68463 12.5356 6.68463C12.5481 6.68463 12.5605 6.68435 12.573 6.68366C12.6181 6.68133 13.5175 6.62983 14.5668 6.29406L14.8939 9.50661C14.9369 9.92821 14.79 10.3418 14.4906 10.6419L11.062 14.0202C10.7856 14.2925 10.7823 14.7376 11.0546 15.0141C11.3271 15.2905 11.772 15.2938 12.0484 15.0213L15.4791 11.6411C15.4802 11.64 15.4813 11.6389 15.4825 11.6377C16.0832 11.0376 16.3784 10.2089 16.2923 9.3642L15.9192 5.70135C16.3919 5.42463 16.7904 5.09861 17.109 4.727C17.7174 4.01687 18.0257 3.15828 18.025 2.17528V2.14727C18.025 1.21961 17.2704 0.464844 16.3427 0.464844V0.464844ZM16.6195 2.17569C16.62 2.96122 16.3356 3.59856 15.7563 4.10256L15.6911 3.46192C15.6573 3.13013 15.3949 2.86769 15.063 2.83391L14.2478 2.7511C14.9671 2.06446 16.1557 1.8965 16.368 1.87151C16.5088 1.88442 16.6195 2.00321 16.6195 2.14727V2.17569ZM10.9237 10.7615C10.6493 11.036 10.2044 11.036 9.92986 10.7615C9.65534 10.487 9.65534 10.0421 9.92986 9.76767C10.0048 9.69269 10.0184 9.60576 10.0167 9.54602C10.0139 9.45003 9.97202 9.35678 9.89883 9.28372L9.4683 8.85306C9.35665 8.74141 9.21301 8.67906 9.06386 8.67741C8.95922 8.67645 8.80994 8.7035 8.67412 8.83946L8.56316 8.95042C8.3341 9.17935 8.32572 9.55769 8.54462 9.77673L9.00001 10.232C9.37313 10.6051 9.58146 11.0974 9.58695 11.6185C9.59231 12.1468 9.38865 12.6446 9.01305 13.02L8.96128 13.0718C8.58143 13.4518 8.09212 13.6412 7.59966 13.6412C7.18135 13.6413 6.76099 13.5041 6.40297 13.2315L6.10867 13.5155C5.9723 13.6471 5.79638 13.7125 5.62074 13.7125C5.43672 13.7125 5.25283 13.6406 5.11496 13.4977C4.84538 13.2183 4.85348 12.7734 5.13281 12.504L5.39621 12.2498C5.09985 11.9287 4.93245 11.52 4.92324 11.0906C4.91336 10.6225 5.09175 10.1808 5.42573 9.84677C5.70025 9.57239 6.1452 9.57239 6.41972 9.84677C6.69411 10.1213 6.69411 10.5662 6.41972 10.8408C6.35738 10.903 6.32675 10.977 6.32854 11.0606C6.33046 11.1504 6.37056 11.239 6.4417 11.31L7.1819 12.0502C7.41371 12.282 7.75141 12.2938 7.96743 12.078L8.0192 12.026C8.12535 11.92 8.1829 11.7805 8.18139 11.633C8.17974 11.482 8.11753 11.3373 8.00615 11.226L7.55063 10.7706C6.77994 9.99976 6.78832 8.73742 7.56917 7.95643L7.68027 7.84547C8.05065 7.47509 8.53899 7.27185 9.05741 7.27185H9.07911C9.43754 7.27583 9.78265 7.37663 10.0849 7.56161L10.3868 7.24987C10.6569 6.97096 11.1017 6.96382 11.3806 7.23381C11.6594 7.5038 11.6665 7.94874 11.3965 8.22766L11.0985 8.53541C11.2984 8.82037 11.4114 9.15532 11.4217 9.50482C11.4355 9.98026 11.2588 10.4266 10.9237 10.7615Z" fill="url(#paint0_linear_353_4376)"/>
<defs>
<linearGradient id="paint0_linear_353_4376" x1="9.03009" y1="0.464844" x2="9.03009" y2="18.4649" gradientUnits="userSpaceOnUse">
<stop stop-color="#229CF4"/>
<stop offset="1" stop-color="#3798F1"/>
</linearGradient>
</defs>
</svg>
