<svg width="16" height="19" viewBox="0 0 16 19" fill="none" xmlns="http://www.w3.org/2000/svg">
<path d="M12.9674 6.26277C12.8475 6.14627 12.6794 6.09329 12.5147 6.12039C12.3498 6.14736 12.2074 6.25089 12.1309 6.39946C11.8677 6.9106 11.5335 7.38032 11.1403 7.79555C11.1795 7.49564 11.1992 7.19385 11.1992 6.8913C11.1992 6.31073 11.1214 5.71328 10.9679 5.11545C10.4631 3.15162 9.13958 1.49077 7.33656 0.558844C7.17969 0.477703 6.99255 0.480621 6.83808 0.566437C6.68367 0.652324 6.58253 0.809789 6.56868 0.985922C6.42812 2.7706 5.50882 4.39429 4.04519 5.44166C4.02579 5.45562 4.00656 5.46975 3.98733 5.48382C3.94753 5.513 3.90995 5.54052 3.8749 5.56366C3.86941 5.56731 3.86396 5.57104 3.85859 5.57487C2.93805 6.23395 2.1785 7.1125 1.66199 8.11583C1.1371 9.13638 0.870972 10.2315 0.870972 11.3708C0.870972 11.9511 0.948772 12.5485 1.10223 13.1465C1.91205 16.2986 4.7486 18.4999 8.00017 18.4999C11.931 18.4999 15.129 15.3018 15.129 11.3708C15.129 9.43225 14.3613 7.61819 12.9674 6.26277ZM8.00017 17.4453C5.23021 17.4453 2.81374 15.5697 2.1238 12.8843C1.99235 12.372 1.92566 11.8628 1.92566 11.3708C1.92566 10.4009 2.15249 9.46815 2.59978 8.59845C3.03857 7.74616 3.68347 6.99923 4.46524 6.43775C4.51826 6.40234 4.56727 6.36642 4.61086 6.33449C4.6277 6.32212 4.64461 6.30974 4.66032 6.29842C6.14951 5.23273 7.15881 3.65639 7.50745 1.88852C8.70758 2.71491 9.58016 3.95283 9.94645 5.37793C10.0779 5.88998 10.1446 6.39918 10.1446 6.89133C10.1446 7.61197 10.0125 8.32898 9.752 9.02237C9.67234 9.23439 9.73699 9.47363 9.9126 9.61668C10.0882 9.75966 10.3355 9.7746 10.5271 9.65377C11.3972 9.10467 12.1367 8.37591 12.6958 7.52197C13.5892 8.60531 14.0743 9.94884 14.0743 11.3708C14.0743 14.7203 11.3494 17.4453 8.00017 17.4453Z" fill="url(#paint0_linear_353_4312)"/>
<defs>
<linearGradient id="paint0_linear_353_4312" x1="7.99997" y1="0.499969" x2="7.99997" y2="18.4999" gradientUnits="userSpaceOnUse">
<stop stop-color="#229CF4"/>
<stop offset="1" stop-color="#3798F1"/>
</linearGradient>
</defs>
</svg>
