<svg width="42" height="42" viewBox="0 0 42 42" fill="none" xmlns="http://www.w3.org/2000/svg">
<rect width="42" height="42" rx="12" fill="#E5E5E5"/>
<path d="M33.6158 8.00613L22.675 16.1301L24.7072 11.3371L33.6158 8.00613Z" fill="#E2761B" stroke="#E2761B" stroke-linecap="round" stroke-linejoin="round"/>
<path d="M8.38403 8.00607L19.2259 16.2069L17.2926 11.337L8.38403 8.00607Z" fill="#E4761B" stroke="#E4761B" stroke-linecap="round" stroke-linejoin="round"/>
<path d="M29.6834 26.8373L26.7725 31.3005L33.0008 33.0154L34.7803 26.9362L29.6834 26.8373Z" fill="#E4761B" stroke="#E4761B" stroke-linecap="round" stroke-linejoin="round"/>
<path d="M7.23071 26.9362L8.99925 33.0154L15.2276 31.3005L12.3276 26.8373L7.23071 26.9362Z" fill="#E4761B" stroke="#E4761B" stroke-linecap="round" stroke-linejoin="round"/>
<path d="M14.8872 19.2961L13.1516 21.9234L19.325 22.1983L19.1163 15.5474L14.8872 19.2961Z" fill="#E4761B" stroke="#E4761B" stroke-linecap="round" stroke-linejoin="round"/>
<path d="M27.1129 19.2961L22.8179 15.4705L22.675 22.1982L28.8485 21.9234L27.1129 19.2961Z" fill="#E4761B" stroke="#E4761B" stroke-linecap="round" stroke-linejoin="round"/>
<path d="M15.2275 31.3006L18.9514 29.4867L15.7438 26.9803L15.2275 31.3006Z" fill="#E4761B" stroke="#E4761B" stroke-linecap="round" stroke-linejoin="round"/>
<path d="M23.0486 29.4867L26.7724 31.3006L26.2561 26.9803L23.0486 29.4867Z" fill="#E4761B" stroke="#E4761B" stroke-linecap="round" stroke-linejoin="round"/>
<path d="M26.7724 31.3005L23.0486 29.4867L23.3452 31.9161L23.3122 32.9385L26.7724 31.3005Z" fill="#D7C1B3" stroke="#D7C1B3" stroke-linecap="round" stroke-linejoin="round"/>
<path d="M15.2275 31.3009L18.6877 32.9389L18.6658 31.9165L18.9514 29.487L15.2275 31.3009Z" fill="#D7C1B3" stroke="#D7C1B3" stroke-linecap="round" stroke-linejoin="round"/>
<path d="M18.7537 25.3753L15.656 24.4629L17.842 23.4625L18.7537 25.3753Z" fill="#233447" stroke="#233447" stroke-linecap="round" stroke-linejoin="round"/>
<path d="M23.2463 25.3753L24.1581 23.4625L26.355 24.4629L23.2463 25.3753Z" fill="#233447" stroke="#233447" stroke-linecap="round" stroke-linejoin="round"/>
<path d="M15.2276 31.3005L15.7659 26.8373L12.3276 26.9362L15.2276 31.3005Z" fill="#CD6116" stroke="#CD6116" stroke-linecap="round" stroke-linejoin="round"/>
<path d="M26.2344 26.8373L26.7726 31.3005L29.6836 26.9362L26.2344 26.8373Z" fill="#CD6116" stroke="#CD6116" stroke-linecap="round" stroke-linejoin="round"/>
<path d="M28.8485 21.9234L22.675 22.1983L23.2463 25.3753L24.158 23.4625L26.3549 24.4628L28.8485 21.9234Z" fill="#CD6116" stroke="#CD6116" stroke-linecap="round" stroke-linejoin="round"/>
<path d="M15.6561 24.4628L17.8421 23.4625L18.7538 25.3753L19.325 22.1983L13.1516 21.9234L15.6561 24.4628Z" fill="#CD6116" stroke="#CD6116" stroke-linecap="round" stroke-linejoin="round"/>
<path d="M13.1516 21.9236L15.744 26.9805L15.6561 24.4631L13.1516 21.9236Z" fill="#E4751F" stroke="#E4751F" stroke-linecap="round" stroke-linejoin="round"/>
<path d="M26.355 24.4628L26.2561 26.9803L28.8485 21.9234L26.355 24.4628Z" fill="#E4751F" stroke="#E4751F" stroke-linecap="round" stroke-linejoin="round"/>
<path d="M19.3249 22.1979L18.7537 25.3749L19.4787 29.1236L19.6324 24.1877L19.3249 22.1979Z" fill="#E4751F" stroke="#E4751F" stroke-linecap="round" stroke-linejoin="round"/>
<path d="M22.675 22.1979L22.3784 24.1767L22.5212 29.1236L23.2462 25.3749L22.675 22.1979Z" fill="#E4751F" stroke="#E4751F" stroke-linecap="round" stroke-linejoin="round"/>
<path d="M23.2465 25.3752L22.5215 29.1239L23.0487 29.4867L26.2563 26.9802L26.3551 24.4628L23.2465 25.3752Z" fill="#F6851B" stroke="#F6851B" stroke-linecap="round" stroke-linejoin="round"/>
<path d="M15.656 24.4628L15.7439 26.9802L18.9514 29.4867L19.4787 29.1239L18.7537 25.3752L15.656 24.4628Z" fill="#F6851B" stroke="#F6851B" stroke-linecap="round" stroke-linejoin="round"/>
<path d="M23.3123 32.9385L23.3452 31.9162L23.0706 31.6743H18.9294L18.6658 31.9162L18.6877 32.9385L15.2275 31.3006L16.4359 32.2899L18.8964 33.9939H23.1036L25.5641 32.2899L26.7725 31.3006L23.3123 32.9385Z" fill="#C0AD9E" stroke="#C0AD9E" stroke-linecap="round" stroke-linejoin="round"/>
<path d="M23.0487 29.4868L22.5214 29.124H19.4786L18.9514 29.4868L18.6658 31.9162L18.9294 31.6744H23.0706L23.3453 31.9162L23.0487 29.4868Z" fill="#161616" stroke="#161616" stroke-linecap="round" stroke-linejoin="round"/>
<path d="M34.0772 16.6577L34.9999 12.1725L33.6159 8.00607L23.0486 15.8552L27.1129 19.296L32.8579 20.978L34.1212 19.4939L33.5719 19.0981L34.4507 18.2956L33.7806 17.768L34.6594 17.0974L34.0772 16.6577Z" fill="#763D16" stroke="#763D16" stroke-linecap="round" stroke-linejoin="round"/>
<path d="M7 12.1727L7.9337 16.6578L7.34053 17.0976L8.2193 17.7682L7.54924 18.2958L8.42801 19.0983L7.87878 19.4941L9.14202 20.9781L14.887 19.2962L18.9514 15.8553L8.38407 8.00626L7 12.1727Z" fill="#763D16" stroke="#763D16" stroke-linecap="round" stroke-linejoin="round"/>
<path d="M32.8579 20.9779L27.1129 19.296L28.8485 21.9233L26.2561 26.9802L29.6833 26.9362H34.7802L32.8579 20.9779Z" fill="#F6851B" stroke="#F6851B" stroke-linecap="round" stroke-linejoin="round"/>
<path d="M14.8871 19.296L9.14205 20.9779L7.23071 26.9362H12.3276L15.7439 26.9802L13.1515 21.9233L14.8871 19.296Z" fill="#F6851B" stroke="#F6851B" stroke-linecap="round" stroke-linejoin="round"/>
<path d="M22.675 22.1984L23.0485 15.8553L24.7072 11.3372H17.2925L18.9512 15.8553L19.3247 22.1984L19.4675 24.1991L19.4784 29.124H22.5212L22.5322 24.1991L22.675 22.1984Z" fill="#F6851B" stroke="#F6851B" stroke-linecap="round" stroke-linejoin="round"/>
</svg>
