<svg width="42" height="42" viewBox="0 0 42 42" fill="none" xmlns="http://www.w3.org/2000/svg">
<path d="M0 21C0 13.65 0 9.975 1.43063 7.16625C2.69063 4.69875 4.69875 2.69063 7.16625 1.43063C9.975 0 13.65 0 21 0C28.35 0 32.025 0 34.8338 1.43063C37.3013 2.69063 39.3093 4.69875 40.5693 7.16625C42 9.975 42 13.65 42 21C42 28.35 42 32.025 40.5693 34.8338C39.3093 37.3013 37.3013 39.3093 34.8338 40.5693C32.025 42 28.35 42 21 42C13.65 42 9.975 42 7.16625 40.5693C4.69875 39.3093 2.69063 37.3013 1.43063 34.8338C0 32.025 0 28.35 0 21Z" fill="#E5E5E5"/>
<path fill-rule="evenodd" clip-rule="evenodd" d="M32 23.0594V24.8961C32 29.9989 24.7493 32.9358 22.5268 33.7147L21.7185 34V30.8256L22.1134 30.6733C25.5712 29.3444 29.0601 27.0426 29.0601 24.8961V23.0594H32ZM21.0189 8L23.982 8.93297V12.1718L21.0189 11.2356L20.8251 11.2969V18.5842H23.982V21.5867H20.8251V33.9556L20.002 33.6424C19.6198 33.4974 19.0042 33.2502 18.2426 32.8975L17.8848 32.7307V8.98759L21.0189 8ZM16.9547 9.29257V12.5167L12.9399 13.7894V18.5841H16.9547V32.4712L16.0655 32.0042C13.2985 30.5499 10 28.0976 10 24.6736V23.0594H12.9399V24.6736C12.9399 25.3821 13.301 26.1264 14.0144 26.8929V21.5866H10V11.4847L16.9547 9.29257ZM24.8745 9.21582L32 11.4676V21.5867H27.8164V25.9683C27.8164 25.9683 26.881 27.2204 24.8771 28.2688C24.8771 27.6893 24.8758 18.7803 24.8751 13.3527L24.8745 9.21582ZM27.8164 13.3827V18.5842H29.0601V13.7747L27.8164 13.3827Z" fill="black"/>
</svg>
