<svg width="42" height="42" viewBox="0 0 42 42" fill="none" xmlns="http://www.w3.org/2000/svg">
<path fill-rule="evenodd" clip-rule="evenodd" d="M1.43063 7.16625C0 9.975 0 13.65 0 21C0 28.35 0 32.025 1.43063 34.8338C2.69063 37.3013 4.69875 39.3093 7.16625 40.5693C9.975 42 13.65 42 21 42C28.35 42 32.025 42 34.8338 40.5693C37.3013 39.3093 39.3093 37.3013 40.5693 34.8338C42 32.025 42 28.35 42 21C42 13.65 42 9.975 40.5693 7.16625C39.3093 4.69875 37.3013 2.69063 34.8338 1.43063C32.025 0 28.35 0 21 0C13.65 0 9.975 0 7.16625 1.43063C4.69875 2.69063 2.69063 4.69875 1.43063 7.16625ZM31.4803 11.3268C31.8478 11.3268 32.1957 11.4778 32.4516 11.7338C32.7075 11.9963 32.852 12.3507 32.8453 12.7115C32.7798 16.6228 32.6288 19.6153 32.3466 21.9843C32.071 24.3535 31.6575 26.1122 31.0341 27.5363C30.6141 28.4878 30.0957 29.2753 29.4853 29.9447C28.665 30.8307 27.7266 31.4738 26.7028 32.0841C26.2651 32.3459 25.8101 32.6043 25.3327 32.8754C24.3142 33.4538 23.1944 34.0897 21.9253 34.9388C21.466 35.2472 20.8688 35.2472 20.4095 34.9388C19.1209 34.0798 17.9863 33.436 16.9585 32.853C16.7299 32.7233 16.5067 32.5966 16.2882 32.4713C15.0873 31.7757 14.0045 31.1128 13.0595 30.1547C12.4295 29.5247 11.8848 28.7568 11.4516 27.8447C10.861 26.624 10.4607 25.1475 10.1654 23.2378C9.77161 20.685 9.57474 17.3447 9.50255 12.7115C9.49599 12.3507 9.6338 11.9963 9.88974 11.7338C10.1457 11.4778 10.5001 11.3268 10.8676 11.3268H11.432C13.171 11.3335 17.01 11.1628 20.3307 8.5772C20.8228 8.19657 21.512 8.19657 22.0041 8.5772C25.3248 11.1628 29.1638 11.3335 30.9095 11.3268H31.4803ZM28.4288 26.6635C28.8553 25.784 29.2098 24.57 29.4788 22.8243C29.8003 20.7375 29.9973 17.9025 30.0891 14.0438C28.0416 13.9847 24.5241 13.591 21.1707 11.3335C17.8173 13.5843 14.2998 13.9782 12.2588 14.0438C12.331 17.2332 12.4753 19.7138 12.705 21.6628C12.9675 23.881 13.3416 25.3838 13.8075 26.4403C14.116 27.1425 14.4573 27.6478 14.8641 28.094C15.4088 28.6913 16.0978 29.1835 17.0363 29.7478C17.4256 29.9814 17.8548 30.2243 18.3219 30.4888C19.1543 30.9599 20.1073 31.4992 21.1707 32.176C22.2145 31.5103 23.1537 30.9764 23.9764 30.5088C24.2244 30.3679 24.4617 30.2329 24.6882 30.1022C25.8432 29.4393 26.6963 28.8882 27.3328 28.245C27.7595 27.8053 28.1073 27.3263 28.4288 26.6635Z" fill="#3375BB"/>
</svg>
