<svg width="42" height="42" viewBox="0 0 42 42" fill="none" xmlns="http://www.w3.org/2000/svg">
<path d="M0 21C0 13.65 0 9.975 1.43063 7.16625C2.69063 4.69875 4.69875 2.69063 7.16625 1.43063C9.975 0 13.65 0 21 0C28.35 0 32.025 0 34.8338 1.43063C37.3013 2.69063 39.3093 4.69875 40.5693 7.16625C42 9.975 42 13.65 42 21C42 28.35 42 32.025 40.5693 34.8338C39.3093 37.3013 37.3013 39.3093 34.8338 40.5693C32.025 42 28.35 42 21 42C13.65 42 9.975 42 7.16625 40.5693C4.69875 39.3093 2.69063 37.3013 1.43063 34.8338C0 32.025 0 28.35 0 21Z" fill="#3B99FC"/>
<path d="M12.9142 15.4595C17.6253 10.8468 25.2637 10.8468 29.9748 15.4595L30.5418 16.0146C30.7774 16.2452 30.7774 16.6192 30.5418 16.8498L28.6022 18.7488C28.4845 18.8641 28.2935 18.8641 28.1757 18.7488L27.3955 17.9849C24.1088 14.767 18.7802 14.767 15.4935 17.9849L14.6579 18.803C14.5402 18.9183 14.3492 18.9183 14.2314 18.803L12.2918 16.904C12.0563 16.6733 12.0563 16.2994 12.2918 16.0688L12.9142 15.4595ZM33.9861 19.3868L35.7123 21.077C35.9479 21.3076 35.9479 21.6815 35.7123 21.9122L27.9286 29.5332C27.693 29.7638 27.3111 29.7638 27.0756 29.5332C27.0756 29.5332 27.0756 29.5332 27.0756 29.5332L21.5512 24.1243C21.4923 24.0667 21.3968 24.0667 21.3379 24.1243C21.3379 24.1243 21.3379 24.1243 21.3379 24.1243L15.8136 29.5332C15.5781 29.7638 15.1962 29.7638 14.9606 29.5332C14.9606 29.5332 14.9606 29.5332 14.9606 29.5332L7.17667 21.9121C6.94111 21.6814 6.94111 21.3075 7.17667 21.0769L8.90291 19.3867C9.13846 19.1561 9.52038 19.1561 9.75594 19.3867L15.2804 24.7957C15.3393 24.8533 15.4348 24.8533 15.4937 24.7957C15.4937 24.7957 15.4937 24.7957 15.4937 24.7957L21.0179 19.3867C21.2534 19.1561 21.6354 19.1561 21.8709 19.3867C21.8709 19.3867 21.8709 19.3867 21.8709 19.3867L27.3954 24.7957C27.4543 24.8533 27.5498 24.8533 27.6087 24.7957L33.133 19.3868C33.3686 19.1562 33.7505 19.1562 33.9861 19.3868Z" fill="white"/>
</svg>
