<svg width="18" height="18" viewBox="0 0 18 18" fill="none" xmlns="http://www.w3.org/2000/svg">
<path fill-rule="evenodd" clip-rule="evenodd" d="M8.96932 0.818237C6.75497 0.818237 6.47852 0.828426 5.60908 0.867143C4.74101 0.907898 4.15006 1.04443 3.63044 1.24616C3.09451 1.45401 2.63942 1.73318 2.18636 2.18624C1.7333 2.6393 1.45346 3.09372 1.24628 3.63032C1.04455 4.14994 0.907341 4.74089 0.867265 5.60896C0.82651 6.4784 0.818359 6.75485 0.818359 8.96919C0.818359 11.1835 0.828548 11.46 0.867265 12.3294C0.90802 13.1969 1.04455 13.7885 1.24628 14.3081C1.45413 14.8434 1.7333 15.2991 2.18636 15.7522C2.63942 16.2046 3.09384 16.4851 3.63044 16.6922C4.15074 16.8933 4.74168 17.0312 5.60908 17.0712C6.47852 17.112 6.75497 17.1202 8.96932 17.1202C11.1837 17.1202 11.4601 17.1099 12.3295 17.0712C13.197 17.0305 13.7886 16.8933 14.3082 16.6922C14.8435 16.4844 15.2992 16.2046 15.7523 15.7522C16.2047 15.2991 16.4852 14.8453 16.6923 14.3081C16.8934 13.7885 17.0313 13.1969 17.0714 12.3294C17.1121 11.46 17.1203 11.1835 17.1203 8.96919C17.1203 6.75485 17.11 6.4784 17.0714 5.60896C17.0306 4.74156 16.8934 4.14927 16.6923 3.63032C16.4845 3.09439 16.2047 2.6393 15.7523 2.18624C15.2992 1.73318 14.8455 1.45333 14.3082 1.24616C13.7886 1.04443 13.197 0.907219 12.3295 0.867143C11.4601 0.826388 11.1837 0.818237 8.96932 0.818237ZM13.3206 5.5967C13.8599 5.5967 14.2988 5.15859 14.2988 4.61859C14.2988 4.07926 13.8592 3.64047 13.3206 3.64115C12.7813 3.64115 12.3425 4.07926 12.3425 4.61859C12.3425 5.15791 12.7806 5.5967 13.3206 5.5967ZM4.78382 8.96916C4.78382 6.65836 6.6565 4.78364 8.96934 4.78364C11.2801 4.78364 13.1548 6.65632 13.1548 8.96916C13.1548 11.28 11.2822 13.1547 8.96934 13.1547C6.65854 13.1547 4.78382 11.282 4.78382 8.96916ZM8.96934 11.6862C7.46821 11.6862 6.25236 10.4704 6.25236 8.96924C6.25236 7.4681 7.46821 6.25225 8.96934 6.25225C10.4705 6.25225 11.6863 7.4681 11.6863 8.96924C11.6863 10.4704 10.4705 11.6862 8.96934 11.6862Z" fill="#656565"/>
</svg>
