<svg width="18" height="18" viewBox="0 0 18 18" fill="none" xmlns="http://www.w3.org/2000/svg">
<path fill-rule="evenodd" clip-rule="evenodd" d="M8.96913 0.818176C6.75479 0.818176 6.47834 0.828365 5.6089 0.867082C4.74082 0.907837 4.14988 1.04437 3.63026 1.2461C3.09433 1.45395 2.63924 1.73312 2.18617 2.18617C1.73312 2.63924 1.45327 3.09366 1.2461 3.63026C1.04437 4.14988 0.907158 4.74082 0.867082 5.6089C0.826327 6.47834 0.818176 6.75479 0.818176 8.96913C0.818176 11.1835 0.828365 11.4599 0.867082 12.3294C0.907837 13.1968 1.04437 13.7884 1.2461 14.308C1.45395 14.8433 1.73312 15.299 2.18617 15.7521C2.63924 16.2045 3.09366 16.485 3.63026 16.6922C4.15055 16.8933 4.7415 17.0311 5.6089 17.0712C6.47834 17.1119 6.75479 17.1201 8.96913 17.1201C11.1835 17.1201 11.4599 17.1098 12.3294 17.0712C13.1968 17.0304 13.7884 16.8933 14.308 16.6922C14.8433 16.4843 15.299 16.2045 15.7521 15.7521C16.2045 15.299 16.485 14.8453 16.6922 14.308C16.8933 13.7884 17.0311 13.1968 17.0712 12.3294C17.1119 11.4599 17.1201 11.1835 17.1201 8.96913C17.1201 6.75479 17.1098 6.47834 17.0712 5.6089C17.0304 4.7415 16.8933 4.1492 16.6922 3.63026C16.4843 3.09433 16.2045 2.63924 15.7521 2.18617C15.299 1.73312 14.8453 1.45327 14.308 1.2461C13.7884 1.04437 13.1968 0.907158 12.3294 0.867082C11.4599 0.826327 11.1835 0.818176 8.96913 0.818176ZM13.3205 5.59664C13.8597 5.59664 14.2986 5.15853 14.2986 4.61853C14.2986 4.0792 13.859 3.64041 13.3205 3.64109C12.7811 3.64109 12.3423 4.0792 12.3423 4.61853C12.3423 5.15785 12.7804 5.59664 13.3205 5.59664ZM4.78364 8.9691C4.78364 6.6583 6.65632 4.78358 8.96916 4.78358C11.28 4.78358 13.1546 6.65626 13.1546 8.9691C13.1546 11.2799 11.282 13.1546 8.96916 13.1546C6.65836 13.1546 4.78364 11.2819 4.78364 8.9691ZM8.96916 11.6862C7.46803 11.6862 6.25217 10.4703 6.25217 8.96918C6.25217 7.46804 7.46803 6.25219 8.96916 6.25219C10.4703 6.25219 11.6861 7.46804 11.6861 8.96918C11.6861 10.4703 10.4703 11.6862 8.96916 11.6862Z" fill="url(#paint0_linear_1_357)"/>
<defs>
<linearGradient id="paint0_linear_1_357" x1="8.96913" y1="0.818176" x2="8.96913" y2="17.1201" gradientUnits="userSpaceOnUse">
<stop stop-color="#229CF4"/>
<stop offset="1" stop-color="#3798F1"/>
</linearGradient>
</defs>
</svg>
