<svg width="18" height="15" viewBox="0 0 18 15" fill="none" xmlns="http://www.w3.org/2000/svg">
<path d="M2.13488 3.55612C2.15581 3.33635 2.07209 3.11659 1.90465 2.97007L0.230233 0.939841V0.636353H5.44186L9.47093 9.47938L13.0186 0.636353H18V0.939841L16.5663 2.32124C16.4407 2.41542 16.3779 2.5724 16.4093 2.72938V12.8491C16.3884 13.0061 16.4407 13.1631 16.5663 13.2573L17.9686 14.6387V14.9422H10.9151V14.6387L12.3698 13.2259C12.5163 13.0794 12.5163 13.0375 12.5163 12.8177V4.62356L8.47674 14.8898H7.93256L3.22326 4.62356V11.4991C3.1814 11.7922 3.27558 12.0747 3.48488 12.284L5.37907 14.5759V14.8794H0V14.5759L1.89419 12.284C2.09302 12.0747 2.18721 11.7817 2.13488 11.4991V3.55612Z" fill="url(#paint0_linear_1_405)"/>
<defs>
<linearGradient id="paint0_linear_1_405" x1="9" y1="0.636353" x2="9" y2="14.9422" gradientUnits="userSpaceOnUse">
<stop stop-color="#229CF4"/>
<stop offset="1" stop-color="#3798F1"/>
</linearGradient>
</defs>
</svg>
