<svg width="18" height="18" viewBox="0 0 18 18" fill="none" xmlns="http://www.w3.org/2000/svg">
<path d="M16.6818 12.2728C16.6818 13.4134 15.9233 14.527 14.5247 15.3817C13.1347 16.2311 11.1827 16.7728 9 16.7728C6.81734 16.7728 4.86531 16.2311 3.47533 15.3817C2.07676 14.527 1.31821 13.4134 1.31821 12.2728V11.5001H16.6818V12.2728Z" stroke="url(#paint0_linear_1_383)"/>
<path fill-rule="evenodd" clip-rule="evenodd" d="M4.00105 2.68003C3.81151 1.66502 4.59033 0.727295 5.62288 0.727295C6.53406 0.727295 7.27273 1.46596 7.27273 2.37716V6.11167C7.82955 6.03849 8.40746 6.00002 9 6.00002C9.57887 6.00002 10.1437 6.03675 10.6886 6.10661V2.37716C10.6886 1.46596 11.4272 0.727295 12.3384 0.727295C13.371 0.727295 14.1499 1.66502 13.9603 2.68003L13.2076 6.71096C15.5886 7.58514 17.1818 9.17887 17.1818 11C17.1818 13.7614 13.5187 16 9 16C4.48133 16 0.818207 13.7614 0.818207 11C0.818207 9.18815 2.39527 7.60134 4.75631 6.72429L4.00105 2.68003Z" fill="url(#paint1_linear_1_383)"/>
<path d="M6.72721 10.6364C6.72721 11.3895 6.32019 12 5.8181 12C5.31604 12 4.90903 11.3895 4.90903 10.6364C4.90903 9.88325 5.31604 9.27277 5.8181 9.27277C6.32019 9.27277 6.72721 9.88325 6.72721 10.6364Z" fill="white"/>
<path d="M13 10.6364C13 11.3895 12.593 12 12.0909 12C11.5888 12 11.1818 11.3895 11.1818 10.6364C11.1818 9.88325 11.5888 9.27277 12.0909 9.27277C12.593 9.27277 13 9.88325 13 10.6364Z" fill="white"/>
<defs>
<linearGradient id="paint0_linear_1_383" x1="9.00002" y1="11.0001" x2="9.00002" y2="17.2728" gradientUnits="userSpaceOnUse">
<stop stop-color="#229CF4"/>
<stop offset="1" stop-color="#3798F1"/>
</linearGradient>
<linearGradient id="paint1_linear_1_383" x1="9.00002" y1="0.727295" x2="9.00002" y2="16" gradientUnits="userSpaceOnUse">
<stop stop-color="#229CF4"/>
<stop offset="1" stop-color="#3798F1"/>
</linearGradient>
</defs>
</svg>
