<svg width="18" height="18" viewBox="0 0 18 18" fill="none" xmlns="http://www.w3.org/2000/svg">
<path d="M16.682 12.2728C16.682 13.4134 15.9234 14.527 14.5249 15.3817C13.1349 16.2312 11.1828 16.7728 9.00015 16.7728C6.81749 16.7728 4.86546 16.2312 3.47548 15.3817C2.07692 14.527 1.31836 13.4134 1.31836 12.2728V11.5001H16.682V12.2728Z" stroke="#656565"/>
<path fill-rule="evenodd" clip-rule="evenodd" d="M4.0012 2.68003C3.81166 1.66502 4.59048 0.727295 5.62304 0.727295C6.53421 0.727295 7.27288 1.46596 7.27288 2.37716V6.11167C7.8297 6.03849 8.40762 6.00002 9.00015 6.00002C9.57902 6.00002 10.1439 6.03675 10.6887 6.10661V2.37716C10.6887 1.46596 11.4274 0.727295 12.3386 0.727295C13.3712 0.727295 14.15 1.66502 13.9604 2.68003L13.2077 6.71096C15.5888 7.58514 17.182 9.17887 17.182 11C17.182 13.7614 13.5189 16 9.00015 16C4.48148 16 0.818359 13.7614 0.818359 11C0.818359 9.18815 2.39542 7.60134 4.75646 6.72429L4.0012 2.68003Z" fill="#656565"/>
<path d="M6.72737 10.6363C6.72737 11.3894 6.32034 11.9999 5.81825 11.9999C5.31619 11.9999 4.90918 11.3894 4.90918 10.6363C4.90918 9.88319 5.31619 9.27271 5.81825 9.27271C6.32034 9.27271 6.72737 9.88319 6.72737 10.6363Z" fill="white"/>
<path d="M12.9998 10.6363C12.9998 11.3894 12.5928 11.9999 12.0907 11.9999C11.5887 11.9999 11.1816 11.3894 11.1816 10.6363C11.1816 9.88319 11.5887 9.27271 12.0907 9.27271C12.5928 9.27271 12.9998 9.88319 12.9998 10.6363Z" fill="white"/>
</svg>
