<svg width="18" height="18" viewBox="0 0 18 18" fill="none" xmlns="http://www.w3.org/2000/svg">
<g clip-path="url(#clip0_1_371)">
<path fill-rule="evenodd" clip-rule="evenodd" d="M4.46572 9.96543L0.31789 8.4029C-0.103485 8.24371 -0.106782 7.64336 0.312945 7.47983L17.335 0.85209C17.6959 0.711375 18.0684 1.03029 17.9893 1.41278L14.9347 16.2433C14.8627 16.5937 14.4562 16.7524 14.1689 16.5416L9.99908 13.486C9.74582 13.3008 9.4008 13.3105 9.15853 13.5099L6.84618 15.412C6.57808 15.6337 6.17374 15.5104 6.07101 15.1762L4.46572 9.96543ZM13.9181 4.0951L5.81204 9.13368C5.50109 9.32764 5.35495 9.70633 5.45549 10.0606L6.33175 13.1688C6.39383 13.3888 6.71082 13.3666 6.74104 13.1389L6.96903 11.4346C7.01188 11.1135 7.16351 10.8179 7.39865 10.5968L14.0885 4.32057C14.2137 4.20321 14.0637 4.00437 13.9181 4.0951Z" fill="url(#paint0_linear_1_371)"/>
</g>
<defs>
<linearGradient id="paint0_linear_1_371" x1="9" y1="0.818176" x2="9" y2="16.6364" gradientUnits="userSpaceOnUse">
<stop stop-color="#229CF4"/>
<stop offset="1" stop-color="#3798F1"/>
</linearGradient>
<clipPath id="clip0_1_371">
<rect width="18" height="18" fill="white"/>
</clipPath>
</defs>
</svg>
