<svg width="18" height="17" viewBox="0 0 18 17" fill="none" xmlns="http://www.w3.org/2000/svg">
<path fill-rule="evenodd" clip-rule="evenodd" d="M4.46572 9.96541L0.317893 8.40288C-0.103482 8.24369 -0.106778 7.64334 0.312949 7.47981L17.335 0.852069C17.6959 0.711354 18.0684 1.03027 17.9893 1.41276L14.9347 16.2433C14.8628 16.5937 14.4562 16.7523 14.1689 16.5415L9.99908 13.486C9.74582 13.3007 9.40081 13.3105 9.15853 13.5099L6.84619 15.412C6.57809 15.6337 6.17374 15.5103 6.07101 15.1762L4.46572 9.96541ZM13.918 4.09508L5.81184 9.13367C5.50089 9.32763 5.35476 9.70631 5.45529 10.0605L6.33156 13.1688C6.39364 13.3888 6.71063 13.3665 6.74084 13.1389L6.96884 11.4346C7.01169 11.1135 7.16332 10.8179 7.39845 10.5968L14.0883 4.32055C14.2135 4.2032 14.0635 4.00435 13.918 4.09508Z" fill="#656565"/>
</svg>
