<svg width="18" height="16" viewBox="0 0 18 16" fill="none" xmlns="http://www.w3.org/2000/svg">
<path d="M18.3867 2.16704C17.7173 2.46067 17.0041 2.65529 16.2605 2.74979C17.0255 2.29304 17.6093 1.57529 17.8838 0.710169C17.1706 1.13542 16.3831 1.43579 15.5438 1.60342C14.8666 0.882294 13.9013 0.435669 12.8483 0.435669C10.8053 0.435669 9.16059 2.09392 9.16059 4.12679C9.16059 4.41929 9.18534 4.70054 9.24609 4.96829C6.17822 4.81867 3.46359 3.34829 1.63997 1.10842C1.32159 1.66079 1.13484 2.29304 1.13484 2.97367C1.13484 4.25167 1.79297 5.38454 2.77397 6.04042C2.18109 6.02917 1.59947 5.85704 1.10672 5.58592C1.10672 5.59717 1.10672 5.61179 1.10672 5.62642C1.10672 7.41967 2.38584 8.90917 4.06322 9.25229C3.76284 9.33442 3.43547 9.37379 3.09572 9.37379C2.85947 9.37379 2.62097 9.36029 2.39709 9.31079C2.87522 10.7722 4.23197 11.8465 5.84522 11.8814C4.58972 12.8635 2.99559 13.4553 1.26984 13.4553C0.967219 13.4553 0.676969 13.4418 0.386719 13.4047C2.02134 14.4588 3.95859 15.0607 6.04772 15.0607C12.8382 15.0607 16.5507 9.43567 16.5507 4.55992C16.5507 4.39679 16.5451 4.23929 16.5372 4.08292C17.2696 3.56317 17.885 2.91404 18.3867 2.16704Z" fill="#656565"/>
</svg>
