<svg width="18" height="16" viewBox="0 0 18 16" fill="none" xmlns="http://www.w3.org/2000/svg">
<path d="M18.3863 2.16704C17.7169 2.46067 17.0037 2.65529 16.2601 2.74979C17.0251 2.29304 17.6089 1.57529 17.8834 0.710169C17.1702 1.13542 16.3827 1.43579 15.5434 1.60342C14.8662 0.882294 13.9009 0.435669 12.8479 0.435669C10.8049 0.435669 9.1602 2.09392 9.1602 4.12679C9.1602 4.41929 9.18495 4.70054 9.2457 4.96829C6.17782 4.81867 3.4632 3.34829 1.63957 1.10842C1.3212 1.66079 1.13445 2.29304 1.13445 2.97367C1.13445 4.25167 1.79257 5.38454 2.77357 6.04042C2.1807 6.02917 1.59907 5.85704 1.10632 5.58592C1.10632 5.59717 1.10632 5.61179 1.10632 5.62642C1.10632 7.41967 2.38545 8.90917 4.06282 9.25229C3.76245 9.33442 3.43507 9.37379 3.09532 9.37379C2.85907 9.37379 2.62057 9.36029 2.3967 9.31079C2.87482 10.7722 4.23157 11.8465 5.84482 11.8814C4.58932 12.8635 2.9952 13.4553 1.26945 13.4553C0.966822 13.4553 0.676572 13.4418 0.386322 13.4047C2.02095 14.4588 3.9582 15.0607 6.04732 15.0607C12.8378 15.0607 16.5503 9.43567 16.5503 4.55992C16.5503 4.39679 16.5447 4.23929 16.5368 4.08292C17.2692 3.56317 17.8846 2.91404 18.3863 2.16704Z" fill="url(#paint0_linear_1_359)"/>
<defs>
<linearGradient id="paint0_linear_1_359" x1="9.38632" y1="0.435669" x2="9.38632" y2="15.0607" gradientUnits="userSpaceOnUse">
<stop stop-color="#229CF4"/>
<stop offset="1" stop-color="#3798F1"/>
</linearGradient>
</defs>
</svg>
