<svg width="18" height="19" viewBox="0 0 18 19" fill="none" xmlns="http://www.w3.org/2000/svg">
<path d="M3.54836 7.51491C3.37403 7.42411 3.16352 7.43789 3.00248 7.55063C1.51562 8.59138 1.00219 10.6037 1.69519 12.8023C2.76905 16.2091 6.12603 18.5787 9.34541 18.498C13.5538 18.5523 17.4809 14.8149 17.5073 11.1908C17.5219 9.18599 16.4165 7.30852 14.6406 6.29115C14.4775 6.19767 14.2768 6.19816 14.1141 6.29248C13.9514 6.3868 13.8512 6.56064 13.8512 6.74872V7.87897C13.8512 8.45769 13.4384 8.88457 12.8524 8.72525C12.37 8.59409 12.134 8.11757 12.2673 7.68823L12.5027 6.92987C13.233 4.57691 11.9571 3.04065 9.62081 2.26194C9.41864 2.19452 9.19547 2.25555 9.0557 2.41669C8.91596 2.57781 8.88703 2.80726 8.98244 2.99801C9.42503 3.88317 9.3008 5.29613 8.74926 5.65039C8.36182 5.89921 7.47891 5.58324 6.16291 3.95C6.05027 3.81022 5.8739 3.73738 5.69584 3.75657C5.5174 3.7758 5.36096 3.8845 5.28067 4.04505C4.60278 5.40079 4.63361 6.79741 5.36975 8.08389C5.66491 8.59968 5.4254 9.27735 4.77669 9.38391C4.24115 9.47186 3.83209 9.04421 3.83209 8.49481V7.98265C3.83216 7.78603 3.72276 7.60572 3.54836 7.51491ZM7.24215 15.4298C7.24215 14.7062 7.52912 14.4393 7.7791 14.2877C8.34045 13.9471 8.73143 13.3912 8.8801 12.7225C8.96089 12.359 8.96215 11.986 8.88893 11.6312C10.4483 11.9312 11.6716 13.3659 11.6716 15.0298C11.6716 16.3409 10.621 17.4106 9.31746 17.443C8.01804 17.4188 7.24215 16.4554 7.24215 15.4298ZM4.94775 10.4246C6.31537 10.1999 6.94956 8.72121 6.28524 7.56009C5.86539 6.82638 5.7484 6.06785 5.93465 5.29627C6.48678 5.88455 7.01108 6.30106 7.49937 6.5385C8.35504 6.95455 8.96127 6.7677 9.31932 6.53776C10.1324 6.01547 10.4194 4.79293 10.2683 3.67769C11.8893 4.55469 11.766 5.74594 11.4955 6.61717L11.2601 7.37553C10.9524 8.36709 11.5091 9.45284 12.5758 9.7429C13.8042 10.0768 14.9059 9.1857 14.9059 7.87894V7.77418C15.8792 8.64077 16.4622 9.87944 16.4527 11.1831C16.4355 13.5423 14.4382 15.7956 12.2351 16.8073C12.5468 16.2871 12.7263 15.679 12.7263 15.0297C12.7263 12.579 10.7441 10.519 8.28592 10.519H8.08589C7.89142 10.519 7.71273 10.6261 7.62097 10.7975C7.52922 10.969 7.53924 11.177 7.64713 11.3389C7.86646 11.6679 7.94063 12.0888 7.85064 12.4936C7.76493 12.8791 7.54525 13.196 7.2321 13.386C6.53895 13.8065 6.18751 14.4941 6.18751 15.4298C6.18751 15.9216 6.30395 16.3866 6.51041 16.799C4.55431 15.8855 3.22321 14.1417 2.70106 12.4852C2.2977 11.2056 2.39357 10.0249 2.89554 9.18395C3.19281 10.0187 4.00016 10.5804 4.94775 10.4246Z" fill="url(#paint0_linear_353_5205)"/>
<path d="M16.8392 4.71854C17.1304 4.71854 17.3665 4.48244 17.3665 4.19122V3.13659C17.3665 1.68277 16.1838 0.5 14.73 0.5C14.4387 0.5 14.2026 0.736098 14.2026 1.02732V2.08195C14.2026 3.53577 15.3854 4.71854 16.8392 4.71854ZM15.2573 1.64498C15.8711 1.86262 16.3119 2.44907 16.3119 3.13659V3.57356C15.6981 3.35592 15.2573 2.76947 15.2573 2.08195V1.64498Z" fill="url(#paint1_linear_353_5205)"/>
<path d="M3.12902 2.60925C1.67521 2.60925 0.492432 3.79203 0.492432 5.24584V6.30048C0.492432 6.5917 0.728529 6.8278 1.01975 6.8278C2.47356 6.8278 3.65634 5.64502 3.65634 4.19121V3.13657C3.65634 2.84535 3.42028 2.60925 3.12902 2.60925ZM2.6017 4.19121C2.6017 4.87869 2.1609 5.46517 1.54707 5.68281V5.24584C1.54707 4.55836 1.98787 3.97188 2.6017 3.75424V4.19121Z" fill="url(#paint2_linear_353_5205)"/>
<defs>
<linearGradient id="paint0_linear_353_5205" x1="9.44914" y1="2.23486" x2="9.44914" y2="18.5" gradientUnits="userSpaceOnUse">
<stop stop-color="#229CF4"/>
<stop offset="1" stop-color="#3798F1"/>
</linearGradient>
<linearGradient id="paint1_linear_353_5205" x1="15.7846" y1="0.5" x2="15.7846" y2="4.71854" gradientUnits="userSpaceOnUse">
<stop stop-color="#229CF4"/>
<stop offset="1" stop-color="#3798F1"/>
</linearGradient>
<linearGradient id="paint2_linear_353_5205" x1="2.07438" y1="2.60925" x2="2.07438" y2="6.8278" gradientUnits="userSpaceOnUse">
<stop stop-color="#229CF4"/>
<stop offset="1" stop-color="#3798F1"/>
</linearGradient>
</defs>
</svg>
