<svg width="18" height="19" viewBox="0 0 18 19" fill="none" xmlns="http://www.w3.org/2000/svg">
<path d="M13.4762 0.500671C11.1818 0.500671 9.28099 2.21777 8.99095 4.43437H8.06452C7.59163 4.43437 7.14711 4.61852 6.81281 4.95286L0.518924 11.2468C-0.172881 11.9385 -0.173057 13.0582 0.518889 13.7501L4.75051 17.9818C5.44066 18.6719 6.56366 18.6719 7.25388 17.9818L13.5478 11.6878C13.8822 11.3535 14.0663 10.909 14.0663 10.4362V9.5097C16.2829 9.21966 18 7.31887 18 5.0244C18 2.53003 15.9706 0.500671 13.4762 0.500671ZM12.8861 10.4361C12.8861 10.5937 12.8247 10.7419 12.7132 10.8533L6.41934 17.1472C6.18924 17.3773 5.81497 17.3773 5.58487 17.1472L1.35332 12.9156C1.1227 12.685 1.1227 12.3118 1.35332 12.0812L7.64728 5.78722C7.75869 5.67577 7.90691 5.61443 8.06448 5.61443H8.99071C9.06752 6.20927 9.2605 6.77711 9.56228 7.29472C9.42612 7.48706 9.34582 7.72162 9.34582 7.97467C9.34582 8.62538 9.8752 9.1548 10.5259 9.1548C11.1767 9.1548 11.7061 8.62542 11.7061 7.97467C11.7061 7.36345 11.239 6.85934 10.6429 6.80039C10.4135 6.43617 10.259 6.0357 10.1845 5.61446H12.2961C12.6214 5.61446 12.8861 5.87915 12.8861 6.20452V10.4361H12.8861ZM14.0663 8.31481V6.20445C14.0663 5.22837 13.2722 4.4343 12.2961 4.4343H10.1858C10.4654 2.87122 11.8339 1.68073 13.4762 1.68073C15.3199 1.68073 16.8199 3.18067 16.8199 5.02436C16.8199 6.66665 15.6294 8.03518 14.0663 8.31481Z" fill="url(#paint0_linear_353_5183)"/>
<defs>
<linearGradient id="paint0_linear_353_5183" x1="9" y1="0.500671" x2="9" y2="18.4994" gradientUnits="userSpaceOnUse">
<stop stop-color="#229CF4"/>
<stop offset="1" stop-color="#3798F1"/>
</linearGradient>
</defs>
</svg>
