<svg width="16" height="17" viewBox="0 0 16 17" fill="none" xmlns="http://www.w3.org/2000/svg">
<path d="M0.6875 3.4375H1.8125V14.9575C1.81398 15.4822 2.02307 15.9849 2.39407 16.3559C2.76507 16.7269 3.26783 16.936 3.7925 16.9375H12.23C12.7508 16.9301 13.2478 16.7184 13.6139 16.3481C13.9801 15.9777 14.1861 15.4783 14.1875 14.9575V3.4375H15.3125C15.4617 3.4375 15.6048 3.37824 15.7102 3.27275C15.8157 3.16726 15.875 3.02418 15.875 2.875C15.875 2.72582 15.8157 2.58274 15.7102 2.47725C15.6048 2.37176 15.4617 2.3125 15.3125 2.3125H0.6875C0.538316 2.3125 0.395242 2.37176 0.289752 2.47725C0.184263 2.58274 0.125 2.72582 0.125 2.875C0.125 3.02418 0.184263 3.16726 0.289752 3.27275C0.395242 3.37824 0.538316 3.4375 0.6875 3.4375ZM13.0625 3.4375V14.9575C13.0625 15.1843 12.9724 15.4017 12.8121 15.5621C12.6517 15.7224 12.4343 15.8125 12.2075 15.8125H3.77C3.54716 15.8066 3.33543 15.714 3.17992 15.5543C3.02441 15.3945 2.93742 15.1804 2.9375 14.9575V3.4375H13.0625Z" fill="url(#paint0_linear_353_5191)"/>
<path d="M5.75 1.1875H10.25C10.3992 1.1875 10.5423 1.12824 10.6477 1.02275C10.7532 0.917258 10.8125 0.774184 10.8125 0.625C10.8125 0.475816 10.7532 0.332742 10.6477 0.227252C10.5423 0.121763 10.3992 0.0625 10.25 0.0625H5.75C5.60082 0.0625 5.45774 0.121763 5.35225 0.227252C5.24676 0.332742 5.1875 0.475816 5.1875 0.625C5.1875 0.774184 5.24676 0.917258 5.35225 1.02275C5.45774 1.12824 5.60082 1.1875 5.75 1.1875Z" fill="url(#paint1_linear_353_5191)"/>
<path d="M6.13257 13.5625C6.28175 13.5625 6.42483 13.5032 6.53032 13.3977C6.63581 13.2923 6.69507 13.1492 6.69507 13V6.25C6.69507 6.10082 6.63581 5.95774 6.53032 5.85225C6.42483 5.74676 6.28175 5.6875 6.13257 5.6875C5.98338 5.6875 5.84031 5.74676 5.73482 5.85225C5.62933 5.95774 5.57007 6.10082 5.57007 6.25V13C5.57007 13.1492 5.62933 13.2923 5.73482 13.3977C5.84031 13.5032 5.98338 13.5625 6.13257 13.5625Z" fill="url(#paint2_linear_353_5191)"/>
<path d="M9.86743 13.5625C10.0166 13.5625 10.1597 13.5032 10.2652 13.3977C10.3707 13.2923 10.4299 13.1492 10.4299 13V6.25C10.4299 6.10082 10.3707 5.95774 10.2652 5.85225C10.1597 5.74676 10.0166 5.6875 9.86743 5.6875C9.71825 5.6875 9.57517 5.74676 9.46968 5.85225C9.3642 5.95774 9.30493 6.10082 9.30493 6.25V13C9.30493 13.1492 9.3642 13.2923 9.46968 13.3977C9.57517 13.5032 9.71825 13.5625 9.86743 13.5625Z" fill="url(#paint3_linear_353_5191)"/>
<defs>
<linearGradient id="paint0_linear_353_5191" x1="8" y1="2.3125" x2="8" y2="16.9375" gradientUnits="userSpaceOnUse">
<stop stop-color="#229CF4"/>
<stop offset="1" stop-color="#3798F1"/>
</linearGradient>
<linearGradient id="paint1_linear_353_5191" x1="8" y1="0.0625" x2="8" y2="1.1875" gradientUnits="userSpaceOnUse">
<stop stop-color="#229CF4"/>
<stop offset="1" stop-color="#3798F1"/>
</linearGradient>
<linearGradient id="paint2_linear_353_5191" x1="6.13257" y1="5.6875" x2="6.13257" y2="13.5625" gradientUnits="userSpaceOnUse">
<stop stop-color="#229CF4"/>
<stop offset="1" stop-color="#3798F1"/>
</linearGradient>
<linearGradient id="paint3_linear_353_5191" x1="9.86743" y1="5.6875" x2="9.86743" y2="13.5625" gradientUnits="userSpaceOnUse">
<stop stop-color="#229CF4"/>
<stop offset="1" stop-color="#3798F1"/>
</linearGradient>
</defs>
</svg>
