<svg width="18" height="19" viewBox="0 0 18 19" fill="none" xmlns="http://www.w3.org/2000/svg">
<path d="M9.0001 18.14C4.23604 18.14 0.360107 14.264 0.360107 9.49998C0.360107 4.73592 4.23604 0.859985 9.0001 0.859985C13.7642 0.859985 17.6401 4.73592 17.6401 9.49998C17.6401 14.264 13.7642 18.14 9.0001 18.14ZM9.0001 1.93998C4.83148 1.93998 1.44011 5.33136 1.44011 9.49998C1.44011 13.6686 4.83148 17.06 9.0001 17.06C13.1687 17.06 16.5601 13.6686 16.5601 9.49998C16.5601 5.33136 13.1687 1.93998 9.0001 1.93998ZM13.0217 13.2231C13.2884 13.0897 13.3966 12.7654 13.2632 12.4986C13.2128 12.398 11.9994 10.04 9.0001 10.04C6.00076 10.04 4.78738 12.398 4.73698 12.4984C4.60414 12.7643 4.7116 13.0865 4.97674 13.2206C5.2426 13.3543 5.56624 13.2483 5.70178 12.9839C5.74084 12.9077 6.6835 11.12 9.0001 11.12C11.3167 11.12 12.2594 12.9077 12.297 12.9815C12.3917 13.1709 12.5823 13.2803 12.7806 13.28C12.8616 13.28 12.9441 13.2618 13.0217 13.2231V13.2231ZM11.7001 8.41998C11.1045 8.41998 10.6201 7.9356 10.6201 7.33998C10.6201 6.74436 11.1045 6.25998 11.7001 6.25998C12.2957 6.25998 12.7801 6.74436 12.7801 7.33998C12.7801 7.9356 12.2957 8.41998 11.7001 8.41998ZM6.3001 8.41998C5.70448 8.41998 5.2201 7.9356 5.2201 7.33998C5.2201 6.74436 5.70448 6.25998 6.3001 6.25998C6.89572 6.25998 7.3801 6.74436 7.3801 7.33998C7.3801 7.9356 6.89572 8.41998 6.3001 8.41998Z" fill="url(#paint0_linear_353_5212)"/>
<defs>
<linearGradient id="paint0_linear_353_5212" x1="9.0001" y1="0.859985" x2="9.0001" y2="18.14" gradientUnits="userSpaceOnUse">
<stop stop-color="#229CF4"/>
<stop offset="1" stop-color="#3798F1"/>
</linearGradient>
</defs>
</svg>
