<svg width="18" height="13" viewBox="0 0 18 13" fill="none" xmlns="http://www.w3.org/2000/svg">
<path d="M11.25 0.3125C14.6616 0.3125 17.4375 3.08844 17.4375 6.5C17.4375 9.91156 14.6616 12.6875 11.25 12.6875C7.83844 12.6875 5.0625 9.91156 5.0625 6.5C5.0625 3.08844 7.83844 0.3125 11.25 0.3125ZM11.25 11.5625C14.0411 11.5625 16.3125 9.29113 16.3125 6.5C16.3125 3.70888 14.0411 1.4375 11.25 1.4375C8.45887 1.4375 6.1875 3.70888 6.1875 6.5C6.1875 9.29113 8.45887 11.5625 11.25 11.5625Z" fill="url(#paint0_linear_353_5223)"/>
<path d="M1.125 5.9375H3.9375C4.24856 5.9375 4.5 6.1895 4.5 6.5C4.5 6.8105 4.24856 7.0625 3.9375 7.0625H1.125C0.813937 7.0625 0.5625 6.8105 0.5625 6.5C0.5625 6.1895 0.813937 5.9375 1.125 5.9375Z" fill="url(#paint1_linear_353_5223)"/>
<path d="M2.8125 9.875H5.0625C5.37356 9.875 5.625 10.127 5.625 10.4375C5.625 10.748 5.37356 11 5.0625 11H2.8125C2.50144 11 2.25 10.748 2.25 10.4375C2.25 10.127 2.50144 9.875 2.8125 9.875Z" fill="url(#paint2_linear_353_5223)"/>
<path d="M5.0625 3.125H2.8125C2.50144 3.125 2.25 2.873 2.25 2.5625C2.25 2.252 2.50144 2 2.8125 2H5.0625C5.37356 2 5.625 2.252 5.625 2.5625C5.625 2.873 5.37356 3.125 5.0625 3.125Z" fill="url(#paint3_linear_353_5223)"/>
<path d="M8.4375 5.93749H13.0118L12.4695 5.12468C12.2974 4.86649 12.3671 4.51662 12.6253 4.3445C12.8841 4.17125 13.2334 4.24212 13.4055 4.50031L14.5305 6.1878C14.6565 6.3768 14.6565 6.62261 14.5305 6.81161L13.4055 8.49911C13.2373 8.71061 12.9701 8.79723 12.7586 8.72073C12.4757 8.61836 12.3053 8.2308 12.4695 7.8753L13.0118 7.06249H8.4375C8.12644 7.06249 7.875 6.81049 7.875 6.49999C7.875 6.18949 8.12644 5.93749 8.4375 5.93749Z" fill="url(#paint4_linear_353_5223)"/>
<defs>
<linearGradient id="paint0_linear_353_5223" x1="11.25" y1="0.3125" x2="11.25" y2="12.6875" gradientUnits="userSpaceOnUse">
<stop stop-color="#229CF4"/>
<stop offset="1" stop-color="#3798F1"/>
</linearGradient>
<linearGradient id="paint1_linear_353_5223" x1="2.53125" y1="5.9375" x2="2.53125" y2="7.0625" gradientUnits="userSpaceOnUse">
<stop stop-color="#229CF4"/>
<stop offset="1" stop-color="#3798F1"/>
</linearGradient>
<linearGradient id="paint2_linear_353_5223" x1="3.9375" y1="9.875" x2="3.9375" y2="11" gradientUnits="userSpaceOnUse">
<stop stop-color="#229CF4"/>
<stop offset="1" stop-color="#3798F1"/>
</linearGradient>
<linearGradient id="paint3_linear_353_5223" x1="3.9375" y1="2" x2="3.9375" y2="3.125" gradientUnits="userSpaceOnUse">
<stop stop-color="#229CF4"/>
<stop offset="1" stop-color="#3798F1"/>
</linearGradient>
<linearGradient id="paint4_linear_353_5223" x1="11.25" y1="4.24957" x2="11.25" y2="8.74815" gradientUnits="userSpaceOnUse">
<stop stop-color="#229CF4"/>
<stop offset="1" stop-color="#3798F1"/>
</linearGradient>
</defs>
</svg>
