<svg width="16" height="18" viewBox="0 0 16 18" fill="none" xmlns="http://www.w3.org/2000/svg">
<path d="M10.0118 17.2588C10.0118 17.5764 9.80006 17.7882 9.48241 17.7882H1.54123C1.38241 17.7882 1.17065 17.6823 1.06476 17.5235C0.958881 17.3647 0.958881 17.1529 1.06476 16.9941L2.12359 14.8764C2.22947 14.7176 2.38829 14.5588 2.60006 14.5588H8.42359C8.63535 14.5588 8.79418 14.6647 8.90006 14.8764L9.90594 16.8882C9.95888 16.9941 10.0118 17.1 10.0118 17.2588Z" fill="#AFAFAF"/>
<path d="M10.2234 3.65291L9.64108 4.65879C9.48225 4.97644 9.11166 5.13526 8.79402 5.13526C8.63519 5.13526 8.47637 5.08232 8.31755 5.02938L6.41166 8.25879C6.62343 8.36467 6.78225 8.57644 6.83519 8.84114C6.88813 9.10585 6.88813 9.37055 6.72931 9.58232L6.1999 10.4823C6.04108 10.8 5.67049 11.0117 5.35284 11.0117C5.19402 11.0117 4.98225 10.9588 4.82343 10.8529L1.54107 8.94702C1.0646 8.68232 0.905781 8.04702 1.17049 7.57055L1.6999 6.67055C1.9646 6.19408 2.5999 6.03526 3.02343 6.29996L4.87637 3.07055C4.3999 2.80585 4.24107 2.17055 4.55872 1.69408L5.14108 0.6882C5.40578 0.211729 6.04108 0.0529059 6.51755 0.317612L9.85284 2.22349C10.0646 2.38232 10.2764 2.59408 10.3293 2.85879C10.3823 3.12349 10.3293 3.44114 10.2234 3.65291Z" fill="#AFAFAF"/>
<path d="M14.8297 10.9588C14.6179 11.3823 14.1414 11.647 13.665 11.647C13.4532 11.647 13.1885 11.5941 12.9767 11.4882L7.84144 8.47056C7.7885 8.36467 7.73556 8.25879 7.68262 8.15291L8.79438 6.24703C8.90026 6.24703 9.00615 6.24703 9.16497 6.19409L14.3532 9.21173C14.9885 9.52938 15.2003 10.3235 14.8297 10.9588Z" fill="#AFAFAF"/>
</svg>
