<svg width="18" height="18" viewBox="0 0 18 18" fill="none" xmlns="http://www.w3.org/2000/svg">
<path d="M5.75716 8.14153C5.81291 8.35022 5.99056 8.50311 6.20396 8.5286L9.12372 8.87672L9.47184 11.7965C9.49747 12.0129 9.65381 12.1886 9.85891 12.2433C10.0675 12.299 10.2886 12.2221 10.4179 12.0499L12.1789 9.69536L14.8812 10.8537C15.0797 10.9385 15.3095 10.8945 15.4621 10.7419C15.6147 10.5894 15.6587 10.3596 15.5739 10.1611L14.4155 7.45876L16.7701 5.69771C16.9423 5.56844 17.0192 5.34738 16.9634 5.13876C16.9077 4.93008 16.73 4.77641 16.5166 4.75169L13.5969 4.40358L13.2488 1.48382C13.2236 1.27003 13.0704 1.0927 12.8617 1.03701C12.6531 0.981257 12.432 1.05814 12.3027 1.23037L10.5417 3.58493L7.83936 2.4266C7.6409 2.3417 7.41115 2.38578 7.2585 2.53836C7.10593 2.69094 7.06191 2.92072 7.14674 3.11921L8.30507 5.82153L5.95052 7.58258C5.77829 7.71185 5.7015 7.93291 5.75716 8.14153Z" fill="url(#paint0_linear_352_2090)"/>
<path d="M15.4619 3.28416L16.2077 2.53839C16.4138 2.33227 16.4138 1.99874 16.2077 1.79262C16.0016 1.5865 15.668 1.5865 15.4619 1.79262L14.7161 2.53839C14.51 2.74451 14.51 3.07811 14.7161 3.28416C14.9222 3.49028 15.2558 3.49028 15.4619 3.28416Z" fill="url(#paint1_linear_352_2090)"/>
<path d="M10.1316 2.05591C10.413 1.98053 10.5798 1.69137 10.5044 1.40991L10.2313 0.391011C10.1552 0.109515 9.86679 -0.0572661 9.58529 0.0181089C9.30386 0.0934839 9.13705 0.382644 9.21246 0.664105L9.48552 1.683C9.56015 1.96179 9.84784 2.13149 10.1316 2.05591Z" fill="url(#paint2_linear_352_2090)"/>
<path d="M12.5883 11.2244C12.3068 11.2998 12.14 11.589 12.2154 11.8704L12.4885 12.8893C12.5631 13.1681 12.8508 13.3378 13.1345 13.2622C13.416 13.1868 13.5828 12.8977 13.5074 12.6162L13.2343 11.5973C13.1585 11.3162 12.8694 11.1487 12.5883 11.2244Z" fill="url(#paint3_linear_352_2090)"/>
<path d="M6.40265 4.76591L5.38375 4.49285C5.10225 4.41747 4.81309 4.58418 4.73772 4.86568C4.66209 5.14981 4.83222 5.43718 5.11062 5.51168L6.12952 5.78481C6.41101 5.86018 6.7001 5.6934 6.77551 5.4119C6.8505 5.13006 6.68298 4.84089 6.40265 4.76591Z" fill="url(#paint4_linear_352_2090)"/>
<path d="M15.9447 7.86846C15.8691 8.15252 16.0392 8.43989 16.3176 8.51445L17.3365 8.78751C17.618 8.86289 17.9071 8.69618 17.9825 8.41468C18.0579 8.13319 17.8897 7.84332 17.6097 7.76869L16.5908 7.49556C16.3093 7.42018 16.0201 7.58696 15.9447 7.86846Z" fill="url(#paint5_linear_352_2090)"/>
<path d="M0.900378 17.8454C1.10643 18.0515 1.44003 18.0515 1.64615 17.8454L8.33301 11.1586L8.17414 9.82592L6.84154 9.66705L0.154538 16.3539C-0.0515127 16.56 -0.0515127 16.8936 0.154538 17.0997L0.900378 17.8454Z" fill="url(#paint6_linear_352_2090)"/>
<defs>
<linearGradient id="paint0_linear_352_2090" x1="11.3603" y1="1.01907" x2="11.3603" y2="12.2612" gradientUnits="userSpaceOnUse">
<stop stop-color="#229CF4"/>
<stop offset="1" stop-color="#3798F1"/>
</linearGradient>
<linearGradient id="paint1_linear_352_2090" x1="15.4619" y1="1.63803" x2="15.4619" y2="3.43875" gradientUnits="userSpaceOnUse">
<stop stop-color="#229CF4"/>
<stop offset="1" stop-color="#3798F1"/>
</linearGradient>
<linearGradient id="paint2_linear_352_2090" x1="9.85842" y1="0" x2="9.85842" y2="2.07391" gradientUnits="userSpaceOnUse">
<stop stop-color="#229CF4"/>
<stop offset="1" stop-color="#3798F1"/>
</linearGradient>
<linearGradient id="paint3_linear_352_2090" x1="12.8614" y1="11.2062" x2="12.8614" y2="13.2802" gradientUnits="userSpaceOnUse">
<stop stop-color="#229CF4"/>
<stop offset="1" stop-color="#3798F1"/>
</linearGradient>
<linearGradient id="paint4_linear_352_2090" x1="5.75657" y1="4.47473" x2="5.75657" y2="5.80292" gradientUnits="userSpaceOnUse">
<stop stop-color="#229CF4"/>
<stop offset="1" stop-color="#3798F1"/>
</linearGradient>
<linearGradient id="paint5_linear_352_2090" x1="16.9637" y1="7.47745" x2="16.9637" y2="8.80563" gradientUnits="userSpaceOnUse">
<stop stop-color="#229CF4"/>
<stop offset="1" stop-color="#3798F1"/>
</linearGradient>
<linearGradient id="paint6_linear_352_2090" x1="4.1665" y1="9.66705" x2="4.1665" y2="18" gradientUnits="userSpaceOnUse">
<stop stop-color="#229CF4"/>
<stop offset="1" stop-color="#3798F1"/>
</linearGradient>
</defs>
</svg>
