<svg width="18" height="18" viewBox="0 0 18 18" fill="none" xmlns="http://www.w3.org/2000/svg">
<path d="M17.8457 0.154712C17.6383 -0.05271 17.3008 -0.05271 17.0934 0.154712L15.3848 1.86331L16.1371 2.61565L17.8457 0.907056C18.0531 0.699634 18.0531 0.362134 17.8457 0.154712Z" fill="#AFAFAF"/>
<path d="M9.64346 1.99333L0.383305 11.2535C-0.129976 11.7668 -0.122945 12.5894 0.383305 13.0957L4.9044 17.6168C5.41065 18.1265 6.23682 18.1265 6.74659 17.6168C16.4708 7.84334 16.0981 8.38826 16.1544 8.07185L16.738 4.72849L13.2716 1.26208C9.80518 1.90193 9.8544 1.7824 9.64346 1.99333ZM13.9431 4.05701C14.2489 4.36287 14.2489 4.85857 13.9431 5.16443C13.6372 5.47029 13.1415 5.47029 12.8356 5.16443C12.5298 4.85857 12.5298 4.36287 12.8356 4.05701C13.138 3.75115 13.6337 3.75115 13.9431 4.05701Z" fill="#AFAFAF"/>
</svg>
