<svg width="18" height="18" viewBox="0 0 18 18" fill="none" xmlns="http://www.w3.org/2000/svg">
<path d="M2.9356 5.37931C2.68332 5.2336 2.36088 5.32012 2.21531 5.57226C2.0696 5.82453 2.15612 6.14698 2.40825 6.29255C2.66039 6.43826 2.98298 6.35174 3.12855 6.09961C3.27425 5.84733 3.18773 5.52488 2.9356 5.37931Z" fill="#AFAFAF"/>
<path d="M16.3828 4.25403H15.8555V3.72668C15.8555 3.43527 15.6197 3.19934 15.3281 3.19934C15.0367 3.19934 14.8008 3.43527 14.8008 3.72668V4.25403H14.2734C13.982 4.25403 13.7461 4.48996 13.7461 4.78137C13.7461 5.07292 13.982 5.30872 14.2734 5.30872H14.8008V5.83606C14.8008 6.12747 15.0367 6.3634 15.3281 6.3634C15.6197 6.3634 15.8555 6.12747 15.8555 5.83606V5.30872H16.3828C16.6742 5.30872 16.9102 5.07292 16.9102 4.78137C16.9102 4.48996 16.6742 4.25403 16.3828 4.25403Z" fill="#AFAFAF"/>
<path d="M2.14453 2.63684C2.14453 2.92839 2.38033 3.16418 2.67188 3.16418C2.96329 3.16418 3.19922 2.92839 3.19922 2.63684V2.1095H3.72656C4.01797 2.1095 4.25391 1.8737 4.25391 1.58215C4.25391 1.29074 4.01797 1.05481 3.72656 1.05481H3.19922V0.527466C3.19922 0.236053 2.96329 0.00012207 2.67188 0.00012207C2.38033 0.00012207 2.14453 0.236053 2.14453 0.527466V1.05481H1.61719C1.32578 1.05481 1.08984 1.29074 1.08984 1.58215C1.08984 1.8737 1.32578 2.1095 1.61719 2.1095H2.14453V2.63684Z" fill="#AFAFAF"/>
<path d="M5.47552 0.985922C5.97746 1.99007 6.25624 3.09859 6.32641 4.21892H11.6737C11.7438 3.09873 12.0226 1.99007 12.5245 0.985922L12.6357 0.763449C12.7372 0.560614 12.6975 0.315482 12.5368 0.154806C12.3767 -0.00586859 12.1316 -0.0455567 11.9282 0.0559295L10.1587 0.940604L9.37279 0.154806C9.16679 -0.0511872 8.83308 -0.0511872 8.62709 0.154806L7.84129 0.940604L6.07181 0.0557922C5.86787 -0.0455567 5.62439 -0.00641791 5.46316 0.154806C5.30249 0.315344 5.2628 0.560477 5.36429 0.763449L5.47552 0.985922Z" fill="#AFAFAF"/>
<path d="M12.2286 5.30872H5.77112L3.71214 7.80069C2.70126 9.02484 2.14453 10.6095 2.14453 12.1993C2.14453 15.7232 4.83536 18 8.99986 18C13.1645 18 15.8553 15.7232 15.8553 12.1993C15.8553 10.6095 15.2986 9.06 14.2872 7.83585L12.2286 5.30872ZM8.99423 10.7718C9.86668 10.7718 10.5763 11.4814 10.5763 12.3538C10.5763 13.0383 10.1368 13.6169 9.52721 13.8369V14.3087C9.52721 14.6001 9.29141 14.8361 8.99986 14.8361C8.70845 14.8361 8.47266 14.6001 8.47266 14.3087V13.8404C7.85715 13.6236 7.4122 13.0424 7.4122 12.3538C7.4122 12.0623 7.64813 11.8265 7.93954 11.8265C8.23109 11.8265 8.46689 12.0623 8.46689 12.3538C8.46689 12.6448 8.70337 12.8812 8.99423 12.8812C9.28523 12.8812 9.52158 12.6448 9.52158 12.3538C9.52158 12.0628 9.28523 11.8265 8.99423 11.8265C8.12192 11.8265 7.4122 11.1168 7.4122 10.2445C7.4122 9.55576 7.85715 8.97472 8.47266 8.75787V7.98059C8.47266 7.68918 8.70845 7.45325 8.99986 7.45325C9.29141 7.45325 9.52721 7.68918 9.52721 7.98059V8.76144C10.1368 8.98145 10.5763 9.56001 10.5763 10.2445C10.5763 10.536 10.3405 10.7718 10.0489 10.7718C9.75751 10.7718 9.52158 10.536 9.52158 10.2445C9.52158 9.9536 9.28523 9.71712 8.99423 9.71712C8.70337 9.71712 8.46689 9.9536 8.46689 10.2445C8.46689 10.5355 8.70323 10.7718 8.99423 10.7718Z" fill="#AFAFAF"/>
</svg>
