<svg width="18" height="18" viewBox="0 0 18 18" fill="none" xmlns="http://www.w3.org/2000/svg">
<path d="M9.00059 9.34695C11.572 9.34695 13.6741 7.24492 13.6741 4.67348C13.6741 2.10203 11.572 0 9.00059 0C6.42914 0 4.32715 2.10203 4.32715 4.67348C4.32715 7.24492 6.42918 9.34695 9.00059 9.34695Z" fill="#AFAFAF"/>
<path d="M17.0211 13.0817C16.8986 12.7755 16.7354 12.4898 16.5517 12.2245C15.6129 10.8367 14.164 9.91836 12.5313 9.69387C12.3273 9.67348 12.1028 9.71426 11.9395 9.83672C11.0824 10.4694 10.062 10.7959 9.00071 10.7959C7.93946 10.7959 6.91907 10.4694 6.06192 9.83672C5.89864 9.71426 5.67415 9.65305 5.47009 9.69387C3.83743 9.91836 2.36806 10.8367 1.4497 12.2245C1.26603 12.4898 1.10275 12.7959 0.980323 13.0817C0.919112 13.2041 0.939503 13.347 1.00071 13.4694C1.164 13.7551 1.36806 14.0409 1.55173 14.2858C1.83743 14.6735 2.14357 15.0204 2.49052 15.347C2.77622 15.6327 3.10275 15.898 3.42931 16.1633C5.04153 17.3674 6.98032 18 8.98032 18C10.9803 18 12.9191 17.3674 14.5313 16.1633C14.8579 15.9184 15.1844 15.6327 15.4701 15.347C15.7967 15.0204 16.1232 14.6735 16.4089 14.2858C16.613 14.0204 16.7967 13.7551 16.9599 13.4694C17.0619 13.347 17.0823 13.2041 17.0211 13.0817Z" fill="#AFAFAF"/>
</svg>
