<svg width="16" height="16" viewBox="0 0 16 16" fill="none" xmlns="http://www.w3.org/2000/svg">
<path d="M13.7344 15.4922H5.76562C4.79626 15.4922 4.00781 14.7037 4.00781 13.7344V5.76562C4.00781 4.79626 4.79626 4.00781 5.76562 4.00781H13.7344C14.7037 4.00781 15.4922 4.79626 15.4922 5.76562V13.7344C15.4922 14.7037 14.7037 15.4922 13.7344 15.4922ZM2.83594 10.8047H2.25C1.92691 10.8047 1.66406 10.5418 1.66406 10.2188V2.25C1.66406 1.92691 1.92691 1.66406 2.25 1.66406H10.2188C10.5418 1.66406 10.8047 1.92691 10.8047 2.25V2.80664H11.9766V2.25C11.9766 1.28064 11.1881 0.492188 10.2188 0.492188H2.25C1.28064 0.492188 0.492188 1.28064 0.492188 2.25V10.2188C0.492188 11.1881 1.28064 11.9766 2.25 11.9766H2.83594V10.8047Z" fill="url(#paint0_linear_444_2770)"/>
<defs>
<linearGradient id="paint0_linear_444_2770" x1="7.99219" y1="0.492187" x2="7.99219" y2="15.4922" gradientUnits="userSpaceOnUse">
<stop stop-color="#229CF4"/>
<stop offset="1" stop-color="#3798F1"/>
</linearGradient>
</defs>
</svg>
