<svg width="18" height="14" viewBox="0 0 18 14" fill="none" xmlns="http://www.w3.org/2000/svg">
<path fill-rule="evenodd" clip-rule="evenodd" d="M2.20713 13.3909H15.4719C16.4299 13.3909 17.2088 12.6098 17.2088 11.6506V1.74193C17.2088 0.781136 16.4299 0 15.4719 0H2.20713C1.24912 0 0.470215 0.781136 0.470215 1.74193V11.649C0.470215 12.6098 1.24912 13.3909 2.20713 13.3909ZM7.53782 7.42499C7.83523 7.68336 8.19952 7.81142 8.56326 7.81142C8.927 7.81142 9.29074 7.68336 9.58704 7.42668L15.926 1.96303C16.1239 1.79322 16.1493 1.49028 15.9834 1.28776C15.8176 1.08523 15.5219 1.05703 15.3234 1.22853L8.98117 6.69274C8.73739 6.90373 8.3836 6.90373 8.13982 6.69274L1.79758 1.22853C1.59968 1.05872 1.30338 1.08523 1.13754 1.28776C0.971704 1.49028 0.997132 1.79322 1.19503 1.96303L7.53782 7.42499Z" fill="url(#paint0_linear_444_2762)"/>
<defs>
<linearGradient id="paint0_linear_444_2762" x1="8.83953" y1="0" x2="8.83953" y2="13.3909" gradientUnits="userSpaceOnUse">
<stop stop-color="#229CF4"/>
<stop offset="1" stop-color="#3798F1"/>
</linearGradient>
</defs>
</svg>
