<svg width="15" height="13" viewBox="0 0 15 13" fill="none" xmlns="http://www.w3.org/2000/svg">
<path d="M15 0.00728525C14.3471 0.496661 13.6242 0.870955 12.8591 1.11575C12.4485 0.614053 11.9027 0.25846 11.2957 0.0970684C10.6887 -0.064323 10.0497 -0.023726 9.46506 0.213369C8.88045 0.450463 8.37848 0.872616 8.02703 1.42273C7.67558 1.97285 7.49161 2.62438 7.5 3.28922V4.01371C6.3018 4.04672 5.11451 3.76435 4.04387 3.19174C2.97323 2.61913 2.05249 1.77405 1.36364 0.731774C1.36364 0.731774 -1.36364 7.25217 4.77273 10.1501C3.36854 11.1629 1.69579 11.6708 0 11.5991C6.13636 15.2216 13.6364 11.5991 13.6364 3.26749C13.6357 3.06568 13.6175 2.86438 13.5818 2.66616C14.2777 1.93696 14.7687 1.01629 15 0.00728525Z" fill="url(#paint0_linear_444_2752)"/>
<defs>
<linearGradient id="paint0_linear_444_2752" x1="7.5" y1="0" x2="7.5" y2="13" gradientUnits="userSpaceOnUse">
<stop stop-color="#229CF4"/>
<stop offset="1" stop-color="#3798F1"/>
</linearGradient>
</defs>
</svg>
